<mxfile host="Electron" agent="Mozilla/5.0 (Macintosh; Intel Mac OS X 10_15_7) AppleWebKit/537.36 (KHTML, like Gecko) draw.io/26.0.9 Chrome/128.0.6613.186 Electron/32.2.5 Safari/537.36" version="26.0.9">
  <diagram name="Page-1" id="i9hYesGqq067z_oLFOEn">
    <mxGraphModel dx="1994" dy="-40" grid="1" gridSize="10" guides="1" tooltips="1" connect="1" arrows="1" fold="1" page="0" pageScale="1" pageWidth="827" pageHeight="1169" math="0" shadow="0">
      <root>
        <mxCell id="0" />
        <mxCell id="urCsp88US3Rvxd7nxDVZ-52" value="Toggle" style="" parent="0" />
        <mxCell id="0hETNHY3sNTcF9YFYVwX-92" value="" style="rounded=1;whiteSpace=wrap;html=1;fontSize=20;fontStyle=1;fillColor=#DAE8FC;strokeColor=default;strokeWidth=2;align=left;fillStyle=solid;arcSize=4;" parent="urCsp88US3Rvxd7nxDVZ-52" vertex="1">
          <mxGeometry x="-650.37" y="3260" width="1510.37" height="770" as="geometry" />
        </mxCell>
        <mxCell id="0hETNHY3sNTcF9YFYVwX-57" value="" style="rounded=1;whiteSpace=wrap;html=1;fontSize=20;fontStyle=1;fillColor=#DAE8FC;strokeColor=default;strokeWidth=2;align=left;fillStyle=solid;arcSize=4;" parent="urCsp88US3Rvxd7nxDVZ-52" vertex="1">
          <mxGeometry x="-650.37" y="1470" width="1510" height="1690" as="geometry" />
        </mxCell>
        <mxCell id="xsCPCYvkKm-rd6Kjv4GH-3" value="" style="rounded=1;whiteSpace=wrap;html=1;fontSize=20;fontStyle=1;fillColor=#ffdbc4;strokeColor=#38112A;strokeWidth=3;align=left;fillStyle=solid;arcSize=6;" parent="urCsp88US3Rvxd7nxDVZ-52" vertex="1">
          <mxGeometry x="-396.78" y="1621.75" width="1136.78" height="1223.25" as="geometry" />
        </mxCell>
        <mxCell id="0hETNHY3sNTcF9YFYVwX-66" style="edgeStyle=orthogonalEdgeStyle;rounded=0;orthogonalLoop=1;jettySize=auto;html=1;entryX=0;entryY=0.5;entryDx=0;entryDy=0;exitX=0.5;exitY=0;exitDx=0;exitDy=0;" parent="urCsp88US3Rvxd7nxDVZ-52" source="DWezz2kGn4aSGZSSvi70-5" target="PnuRqYjMk-wBqvXui7f1-85" edge="1">
          <mxGeometry relative="1" as="geometry" />
        </mxCell>
        <mxCell id="DWezz2kGn4aSGZSSvi70-5" value="" style="rounded=1;whiteSpace=wrap;html=1;fontSize=20;fontStyle=1;fillColor=#dfddd2;strokeColor=#38112D;strokeWidth=3;align=left;fillStyle=solid;" parent="urCsp88US3Rvxd7nxDVZ-52" vertex="1">
          <mxGeometry x="-590" y="1621.75" width="160" height="1228.25" as="geometry" />
        </mxCell>
        <mxCell id="OHMMpdg7X5gBZiWQbqBY-10" value="&lt;font style=&quot;font-size: 20px;&quot;&gt;Design&lt;/font&gt;" style="text;strokeColor=none;fillColor=none;html=1;fontSize=24;fontStyle=1;verticalAlign=middle;align=right;" parent="urCsp88US3Rvxd7nxDVZ-52" vertex="1">
          <mxGeometry x="630" y="1845.3200000000002" width="67" height="22.62" as="geometry" />
        </mxCell>
        <mxCell id="OHMMpdg7X5gBZiWQbqBY-13" value="&lt;font style=&quot;font-size: 20px;&quot;&gt;Backend Dev&lt;/font&gt;" style="text;strokeColor=none;fillColor=none;html=1;fontSize=24;fontStyle=1;verticalAlign=middle;align=right;" parent="urCsp88US3Rvxd7nxDVZ-52" vertex="1">
          <mxGeometry x="630" y="2470" width="67" height="22.62" as="geometry" />
        </mxCell>
        <mxCell id="CIckr9WYRlozOKqikz8k-143" value="&lt;h1 style=&quot;text-align: left; margin-top: 0px;&quot;&gt;&lt;span style=&quot;background-color: initial;&quot;&gt;&lt;font style=&quot;font-size: 36px;&quot;&gt;SAP BTP Clean Core - Side-by-side Extension Scenario&lt;/font&gt;&lt;/span&gt;&lt;/h1&gt;" style="text;html=1;whiteSpace=wrap;overflow=hidden;rounded=0;align=center;" parent="urCsp88US3Rvxd7nxDVZ-52" vertex="1">
          <mxGeometry x="-360" y="1130" width="1006.97" height="60.5" as="geometry" />
        </mxCell>
        <mxCell id="NWQ9cC1nYAKU2ilUzBE1-3" value="&lt;font style=&quot;font-size: 20px;&quot;&gt;Administration&lt;/font&gt;" style="text;strokeColor=none;fillColor=none;html=1;fontSize=24;fontStyle=1;verticalAlign=middle;align=right;" parent="urCsp88US3Rvxd7nxDVZ-52" vertex="1">
          <mxGeometry x="630" y="1640.0000000000005" width="67" height="22.62" as="geometry" />
        </mxCell>
        <mxCell id="0hETNHY3sNTcF9YFYVwX-7" style="edgeStyle=orthogonalEdgeStyle;rounded=0;orthogonalLoop=1;jettySize=auto;html=1;" parent="urCsp88US3Rvxd7nxDVZ-52" source="PnuRqYjMk-wBqvXui7f1-24" target="PnuRqYjMk-wBqvXui7f1-25" edge="1">
          <mxGeometry relative="1" as="geometry" />
        </mxCell>
        <mxCell id="0hETNHY3sNTcF9YFYVwX-54" style="rounded=0;orthogonalLoop=1;jettySize=auto;html=1;exitX=0.414;exitY=-0.005;exitDx=0;exitDy=0;exitPerimeter=0;" parent="urCsp88US3Rvxd7nxDVZ-52" edge="1">
          <mxGeometry relative="1" as="geometry">
            <mxPoint x="205" y="1605" as="targetPoint" />
            <mxPoint x="204.69999999999982" y="1659.9700000000003" as="sourcePoint" />
          </mxGeometry>
        </mxCell>
        <mxCell id="PnuRqYjMk-wBqvXui7f1-24" value="Launchpad" style="shape=image;verticalLabelPosition=bottom;labelBackgroundColor=none;verticalAlign=top;aspect=fixed;imageAspect=0;image=data:image/svg+xml,PHN2ZyB4bWxucz0iaHR0cDovL3d3dy53My5vcmcvMjAwMC9zdmciIHZpZXdCb3g9IjAgMCAyNTYgMjU2IiBoZWlnaHQ9IjI1NiIgd2lkdGg9IjI1NiIgaWQ9ImxhdW5jaHBhZCI+JiN4YTsgIDxnIGlkPSJleHBvcnQiPiYjeGE7ICAgIDxwYXRoIHN0eWxlPSJmaWxsOiAjMDAwOyBzdHJva2Utd2lkdGg6IDBweDsiIGQ9Ik0xODQuMDEsNDRjLTE1LjQ0LDAtMjgsMTIuNTYtMjgsMjhzMTIuNTYsMjgsMjgsMjgsMjgtMTIuNTYsMjgtMjgtMTIuNTYtMjgtMjgtMjhaTTE4NC4wMSw4NGMtNi42MiwwLTEyLTUuMzgtMTItMTJzNS4zOC0xMiwxMi0xMiwxMiw1LjM4LDEyLDEyLTUuMzgsMTItMTIsMTJaIi8+JiN4YTsgICAgPHBhdGggc3R5bGU9ImZpbGw6ICMwMDA7IHN0cm9rZS13aWR0aDogMHB4OyIgZD0iTTI1NS45OSwxNS43MkMyNTUuODQsNi45NywyNDguNjItLjA2LDIzOS44MywwYy0yMi4yNy4yLTc3Ljg4LDQuNDYtMTEzLjA1LDM5LjY0LTcuOCw3LjgtMTQuNzcsMTYtMjAuODMsMjQuMzZoLTYxLjk0Yy0yLjg5LDAtNS41NiwxLjU2LTYuOTcsNC4wOEwxLjA0LDEzMi4wOHMtLjAxLjAzLS4wMi4wNGMtLjEuMTgtLjE5LjM2LS4yOC41NS0uMDMuMDYtLjA2LjExLS4wOC4xNy0uMDcuMTctLjE0LjM1LS4yLjUzLS4wMy4wNy0uMDYuMTUtLjA4LjIyLS4wNC4xMy0uMDcuMjYtLjExLjM5LS4wMy4xMy0uMDcuMjUtLjEuMzgtLjAyLjA4LS4wMy4xNi0uMDQuMjQtLjAzLjE4LS4wNi4zNy0uMDguNTUsMCwuMDYsMCwuMTMtLjAxLjE5LS4wMi4yLS4wMy40LS4wMy42MSwwLC4wMSwwLC4wMywwLC4wNCwwLC4wNywwLC4xNC4wMS4yMSwwLC4xNy4wMS4zNS4wMy41Mi4wMS4xMi4wMy4yNS4wNS4zNy4wMi4xMy4wMy4yNi4wNi4zOS4wMy4xNS4wNi4yOS4xLjQ0LjAzLjEuMDUuMjEuMDguMzEuMDQuMTUuMS4zLjE1LjQ1LjAzLjEuMDcuMTkuMTEuMjkuMDYuMTQuMTIuMjcuMTguNDEuMDUuMS4wOS4yLjE1LjMuMDYuMTIuMTMuMjMuMi4zNS4wNy4xMS4xMy4yMi4yLjMzLjA2LjEuMTMuMTkuMi4yOS4wOS4xMi4xNy4yNC4yNi4zNS4wNy4wOC4xNC4xNi4yLjI0LjEuMTIuMi4yMy4zMS4zNC4wOC4wOC4xNi4xNS4yNC4yMy4xMS4xLjIxLjIuMzMuMy4xLjA5LjIxLjE3LjMyLjI1LjEuMDcuMTkuMTUuMjkuMjIuMTUuMS4zLjE5LjQ1LjI4LjA2LjA0LjExLjA4LjE3LjExLjAxLDAsLjAyLDAsLjAzLjAyLjI4LjE2LjU3LjMuODcuNDIuMDYuMDIuMTIuMDQuMTguMDYuMjMuMDkuNDYuMTYuNy4yMy4xLjAzLjIuMDUuMy4wOC4yLjA1LjQxLjA5LjYyLjEyLjExLjAyLjIxLjA0LjMyLjA1LjI1LjAzLjUuMDQuNzUuMDUuMDUsMCwuMSwwLC4xNSwwLDAsMCwuMDEsMCwuMDIsMGg1Ni4xMWM3LjQsMCwxNC40MSwxLjY5LDIwLjY4LDQuNy4wOC4wNC4xNi4wOC4yNC4xMi42Mi4zLDEuMjQuNjIsMS44NS45NS4wNC4wMi4wOC4wNS4xMi4wNywxNC44OCw4LjEzLDI0Ljk5LDIzLjkyLDI0Ljk5LDQyLjA0djU2LjEzczAsLjAzLDAsLjA0YzAsLjIuMDEuNDEuMDMuNjEsMCwuMDYsMCwuMTMuMDEuMTkuMDIuMTkuMDUuMzcuMDguNTUuMDEuMDguMDIuMTYuMDQuMjQuMDMuMTMuMDcuMjYuMS4zOS4wMy4xMy4wNi4yNi4xLjM5LjAyLjA4LjA2LjE1LjA5LjIzLjA2LjE4LjEyLjM1LjIuNTIuMDMuMDYuMDYuMTIuMDkuMTguMDguMTguMTcuMzYuMjcuNTQsMCwuMDEuMDEuMDMuMDIuMDQuMDIuMDMuMDQuMDYuMDYuMDkuMTQuMjQuMy40OC40Ni43MS4wNS4wOC4xMS4xNS4xNy4yMi4xOC4yMy4zNy40NS41Ny42NS4wNS4wNS4wOS4wOS4xNC4xNC4yLjE5LjQuMzcuNjEuNTQuMDguMDcuMTcuMTMuMjUuMTkuMTkuMTQuMzguMjcuNTguMzkuMDcuMDQuMTQuMDkuMjEuMTMuMjguMTYuNTYuMy44Ni40Mi4wMiwwLC4wNS4wMi4wNy4wMy4yNy4xMS41NS4yLjgzLjI4LjA4LjAyLjE1LjA0LjIzLjA2LjI0LjA2LjQ3LjExLjcyLjE0LjA5LjAxLjE3LjAzLjI2LjA0LjI5LjAzLjU4LjA2Ljg4LjA2LjAyLDAsLjA1LDAsLjA3LDAsLjA1LDAsLjEsMCwuMTUsMCwuMjUsMCwuNTEtLjAyLjc1LS4wNS4xMS0uMDEuMjEtLjAzLjMyLS4wNS4yMS0uMDMuNDEtLjA3LjYyLS4xMi4xLS4wMi4yLS4wNS4zLS4wOC4yNC0uMDcuNDctLjE0LjctLjIzLjA2LS4wMi4xMi0uMDQuMTgtLjA3LjMtLjEyLjU5LS4yNi44Ny0uNDIuMDEsMCwuMDItLjAxLjAzLS4wMmw2NC0zNmMyLjUyLTEuNDIsNC4wOC00LjA4LDQuMDgtNi45N3YtNTguOTVjOC45NC02LjM0LDE3LjczLTEzLjc0LDI2LjA4LTIyLjEsMzUuMzMtMzUuMzMsMzguMjctOTIuMzYsMzcuODktMTE1LjIzWk03OS4zMiwxMjkuODRjLTQuODctMS4xOS05Ljk1LTEuODQtMTUuMTctMS44NEgyMS42OWwyNy00OGg0Ni45Yy05Ljg1LDE3LjI0LTE1LjU4LDM0LjUxLTE2LjI4LDQ5Ljg0Wk0xMjguMDEsMjM0LjMydi00Mi40NWMwLTQuNTktLjUtOS4wNi0xLjQyLTEzLjM4LDE1LjE1LS4zOSwzMi4yNi01Ljc5LDQ5LjQyLTE1LjM0djQ0LjE3cy00OCwyNy00OCwyN1pNMTIwLjc5LDE2Mi4zN2MtNS43NS0xMS4wNC0xNC42LTIwLjE1LTI1LjQ3LTI2LjI0LTEuNjYtMjMuODksMTUuMDctNTcuNDgsNDIuNzctODUuMTgsMzEtMzEsODEuNTgtMzQuNzcsMTAxLjg5LTM0Ljk4aDBjLjM0LDIwLjg1LTIuMjEsNzIuNjYtMzMuMjEsMTAzLjY2LTI4LjE2LDI4LjE2LTYyLjA2LDQ0Ljg1LTg1Ljk5LDQyLjczWiIvPiYjeGE7ICAgIDxwYXRoIHN0eWxlPSJmaWxsOiAjMDAwOyBzdHJva2Utd2lkdGg6IDBweDsiIGQ9Ik01MS4wNywxNjIuOTNjLTExLjg3LDEuOTUtMjMuNjgsOC4zMS0zMy4yOCwxNy45QzIuNzMsMTk1Ljg5LTEuNDgsMjI3LjcxLjM5LDI0MS4zYzEuMDEsNy4yOSw3LjAzLDEzLjMyLDE0LjMzLDE0LjMzLDEuNjUuMjMsMy42My4zNSw1Ljg0LjM1LDE0LjgzLDAsNDAuNTMtNS4zLDUzLjgtMTguNTcsOS41OS05LjU5LDE1Ljk1LTIxLjQxLDE3LjktMzMuMjgsMi4xMS0xMi44NC0xLjA5LTI0LjI3LTktMzIuMTktNy45Mi03LjkyLTE5LjM1LTExLjExLTMyLjE5LTlaTTc2LjQ4LDIwMS41M2MtMS40MSw4LjU5LTYuMTgsMTcuMzEtMTMuNDIsMjQuNTYtMTAuMzYsMTAuMzUtMzYuMTMsMTUuMDctNDYuMTUsMTMuNjktLjIzLS4wNC0uNjItLjQ0LS42Ni0uNjYtMS40Mi0xMC4yOSwyLjQ5LTM2LjU5LDEyLjg3LTQ2Ljk3LDcuMjUtNy4yNSwxNS45Ny0xMi4wMSwyNC41Ni0xMy40MiwxLjY5LS4yOCwzLjMxLS40MSw0Ljg4LS40MSw1LjUsMCwxMC4xNSwxLjY5LDEzLjQsNC45NCw0LjE3LDQuMTcsNS43OCwxMC42Niw0LjUzLDE4LjI4WiIvPiYjeGE7ICA8L2c+JiN4YTs8L3N2Zz4=;fontStyle=1;fontSize=20;" parent="urCsp88US3Rvxd7nxDVZ-52" vertex="1">
          <mxGeometry x="175.72" y="1675.3200000000002" width="70" height="70" as="geometry" />
        </mxCell>
        <mxCell id="0hETNHY3sNTcF9YFYVwX-9" style="edgeStyle=orthogonalEdgeStyle;rounded=0;orthogonalLoop=1;jettySize=auto;html=1;exitX=0;exitY=0.5;exitDx=0;exitDy=0;exitPerimeter=0;" parent="urCsp88US3Rvxd7nxDVZ-52" source="0hETNHY3sNTcF9YFYVwX-56" edge="1">
          <mxGeometry relative="1" as="geometry">
            <mxPoint x="170" y="1550" as="sourcePoint" />
            <mxPoint x="88.60000000000036" y="1373.75" as="targetPoint" />
          </mxGeometry>
        </mxCell>
        <mxCell id="PnuRqYjMk-wBqvXui7f1-25" value="Mobile Client" style="shape=image;verticalLabelPosition=bottom;labelBackgroundColor=none;verticalAlign=top;aspect=fixed;imageAspect=0;image=data:image/svg+xml,PHN2ZyB4bWxucz0iaHR0cDovL3d3dy53My5vcmcvMjAwMC9zdmciIHZpZXdCb3g9IjAgMCAyNTYgMjU2IiBoZWlnaHQ9IjI1NiIgd2lkdGg9IjI1NiIgaWQ9Im1vYmlsZS1jbGllbnQiPiYjeGE7ICA8ZyBpZD0iZXhwb3J0Ij4mI3hhOyAgICA8cGF0aCBzdHlsZT0iZmlsbDogIzAwMDsgc3Ryb2tlLXdpZHRoOiAwcHg7IiBkPSJNMTM2LDIwOGgtMTZjLTQuNDIsMC04LDMuNTgtOCw4czMuNTgsOCw4LDhoMTZjNC40MiwwLDgtMy41OCw4LThzLTMuNTgtOC04LThaIi8+JiN4YTsgICAgPHBhdGggc3R5bGU9ImZpbGw6ICMwMDA7IHN0cm9rZS13aWR0aDogMHB4OyIgZD0iTTIwMCwwSDU2Yy0xMy4yMywwLTI0LDEwLjc3LTI0LDI0djIwOGMwLDEzLjIzLDEwLjc3LDI0LDI0LDI0aDE0NGMxMy4yMywwLDI0LTEwLjc3LDI0LTI0VjI0YzAtMTMuMjMtMTAuNzctMjQtMjQtMjRaTTIwOCwyMzJjMCw0LjQxLTMuNTksOC04LDhINTZjLTQuNDEsMC04LTMuNTktOC04VjI0YzAtNC40MSwzLjU5LTgsOC04aDE0NGM0LjQxLDAsOCwzLjU5LDgsOHYyMDhaIi8+JiN4YTsgICAgPHBhdGggc3R5bGU9ImZpbGw6ICMwMDA7IHN0cm9rZS13aWR0aDogMHB4OyIgZD0iTTE1Niw0OGgtNTZjLTExLjAzLDAtMjAsOC45Ny0yMCwyMHY4OGMwLDExLjAzLDguOTcsMjAsMjAsMjBoNTZjMTEuMDMsMCwyMC04Ljk3LDIwLTIwdi04OGMwLTExLjAzLTguOTctMjAtMjAtMjBaTTE2MCwxNTZjMCwyLjIxLTEuNzksNC00LDRoLTU2Yy0yLjIxLDAtNC0xLjc5LTQtNHYtODhjMC0yLjIxLDEuNzktNCw0LTRoNTZjMi4yMSwwLDQsMS43OSw0LDR2ODhaIi8+JiN4YTsgIDwvZz4mI3hhOzwvc3ZnPg==;fontStyle=1;fontSize=20;" parent="urCsp88US3Rvxd7nxDVZ-52" vertex="1">
          <mxGeometry x="425.7199999999999" y="1675.3200000000002" width="70" height="70" as="geometry" />
        </mxCell>
        <mxCell id="0hETNHY3sNTcF9YFYVwX-6" style="edgeStyle=orthogonalEdgeStyle;rounded=0;orthogonalLoop=1;jettySize=auto;html=1;" parent="urCsp88US3Rvxd7nxDVZ-52" source="PnuRqYjMk-wBqvXui7f1-27" edge="1">
          <mxGeometry relative="1" as="geometry">
            <mxPoint x="69" y="2190" as="targetPoint" />
          </mxGeometry>
        </mxCell>
        <mxCell id="PnuRqYjMk-wBqvXui7f1-27" value="App Designer" style="shape=image;verticalLabelPosition=bottom;labelBackgroundColor=none;verticalAlign=top;aspect=fixed;imageAspect=0;image=data:image/svg+xml,PHN2ZyB4bWxucz0iaHR0cDovL3d3dy53My5vcmcvMjAwMC9zdmciIHZpZXdCb3g9IjAgMCAyNTYgMjU2IiBoZWlnaHQ9IjI1NiIgd2lkdGg9IjI1NiIgaWQ9ImFwcC1kZXNpZ25lciI+JiN4YTsgIDxwYXRoIHN0eWxlPSJmaWxsOiAjMDAwOyBzdHJva2Utd2lkdGg6IDBweDsiIGQ9Ik0yMzcuNTEsMTEyLjY0Yy00LjItMTkuNjUtMTMuNjctMzguMDUtMjcuNDUtNTIuODgtMTEuMzMtMTIuMTktMjUuMjYtMjEuNjUtNDAuNTUtMjcuNzdoMzkuODhjMy4zLDkuMzEsMTIuMTksMTYsMjIuNjIsMTYsMTMuMjMsMCwyNC0xMC43NywyNC0yNFMyNDUuMjMsMCwyMzIsMGMtMTAuNDMsMC0xOS4zMiw2LjY5LTIyLjYyLDE2aC01OC43NWMtMy4zLTkuMzEtMTIuMTktMTYtMjIuNjItMTZzLTE5LjQsNi43NS0yMi42NiwxNi4xMmMtLjQ0LS4wNy0uODgtLjEyLTEuMzQtLjEyaC01Ny4zOEM0My4zMiw2LjY5LDM0LjQzLDAsMjQsMCwxMC43NywwLDAsMTAuNzcsMCwyNHMxMC43NywyNCwyNCwyNGMxMC40MywwLDE5LjMyLTYuNjksMjIuNjItMTZoNDAuMTFjLTE1LjI2LDYuMTItMjkuMiwxNS41Ny00MC41NiwyNy43NC0xMy44OCwxNC44Ni0yMy40MSwzMy4yNS0yNy42NSw1Mi45LTEwLjYsMi40OS0xOC41MiwxMi4wMS0xOC41MiwyMy4zNiwwLDEzLjIzLDEwLjc3LDI0LDI0LDI0czI0LTEwLjc3LDI0LTI0YzAtOS40Ny01LjUxLTE3LjY3LTEzLjQ5LTIxLjU3LDguNjYtMzYuODQsMzkuMDktNjYuMyw3Ny4wNC03Mi45NywzLjA5LDIuOTIsNi45NSw1LjAyLDExLjI1LDUuOTdsLTIuMjMsNS42MmMtOS4zLDIzLjQtMjEuMTMsNDUuNzYtMzUuMTksNjYuNDYtOC4zMSwxMi4yNS0xNy41MiwyNC4wOC0yNy4zNiwzNS4xOGwtNC40LDQuOTYsNC4wNSw1LjI0YzYuMTYsNy45OCwxMS4xOCwxNi43NSwxNC45LDI2LjA4LDMuMDUsNy42NCw1LjIzLDE1LjY2LDYuNDgsMjMuODJsLjE1LDEuMDEuNC45NGMxLjg5LDQuNDIsNi4yMiw3LjI3LDExLjAzLDcuMjdoNzQuNzJjMi4zNSwwLDQuNjQtLjY4LDYuNjEtMS45OCwxLjk2LTEuMywzLjQ5LTMuMTIsNC40Mi01LjI5bC40LS45NC4xNS0xLjAxYzEuMjUtOC4xNiwzLjQzLTE2LjE3LDYuNDgtMjMuODIsMy43Mi05LjMzLDguNzQtMTguMSwxNC45LTI2LjA4bDQuMDUtNS4yNC00LjQtNC45NmMtOS44NS0xMS4xLTE5LjA1LTIyLjkzLTI3LjM2LTM1LjE4LTE0LjA1LTIwLjcxLTI1Ljg5LTQzLjA3LTM1LjE5LTY2LjQ2bC0yLjIzLTUuNjJjNC4zLS45NSw4LjE3LTMuMDcsMTEuMjctNS45OSwzOC42Myw2LjY1LDY4LjU5LDM1LjU4LDc3LjA5LDcyLjk2LTguMDIsMy44OS0xMy41NiwxMi4xMS0xMy41NiwyMS42MSwwLDEzLjIzLDEwLjc3LDI0LDI0LDI0czI0LTEwLjc3LDI0LTI0YzAtMTEuMzQtNy45MS0yMC44Ni0xOC40OS0yMy4zNlpNMjQsMTQ0Yy00LjQxLDAtOC0zLjU5LTgtOHMzLjU5LTgsOC04LDgsMy41OSw4LDgtMy41OSw4LTgsOFpNMjMyLDE2YzQuNDEsMCw4LDMuNTksOCw4cy0zLjU5LDgtOCw4LTgtMy41OS04LTgsMy41OS04LDgtOFpNMjQsMzJjLTQuNDEsMC04LTMuNTktOC04czMuNTktOCw4LTgsOCwzLjU5LDgsOC0zLjU5LDgtOCw4Wk0xODEuNzcsMTYwLjQ0Yy01LjMxLDcuNjgtOS43NCwxNS45My0xMy4yLDI0LjU5LTIuOTYsNy40MS01LjIsMTUuMTEtNi42OSwyMi45N2gtNjcuNzZjLTEuNDktNy44Ni0zLjczLTE1LjU2LTYuNjktMjIuOTctMy40Ni04LjY2LTcuODktMTYuOTEtMTMuMi0yNC41OSw4LjcxLTEwLjE4LDE2LjktMjAuOSwyNC4zOS0zMS45NSw3LjgtMTEuNSwxNC45My0yMy40OSwyMS4zOC0zNS44NnY3NS4zN2MwLDQuNDIsMy41OCw4LDgsOHM4LTMuNTgsOC04di03NS4zN2M2LjQ1LDEyLjM3LDEzLjU4LDI0LjM3LDIxLjM4LDM1Ljg2LDcuNDksMTEuMDQsMTUuNjgsMjEuNzYsMjQuMzksMzEuOTVaTTEyOCwzMmMtNC40MSwwLTgtMy41OS04LThzMy41OS04LDgtOCw4LDMuNTksOCw4LTMuNTksOC04LDhaTTIzMiwxNDRjLTQuNDEsMC04LTMuNTktOC04czMuNTktOCw4LTgsOCwzLjU5LDgsOC0zLjU5LDgtOCw4WiIvPiYjeGE7ICA8cGF0aCBzdHlsZT0iZmlsbDogIzAwMDsgc3Ryb2tlLXdpZHRoOiAwcHg7IiBkPSJNMTY4LDI0MGgtODBjLTQuNDIsMC04LDMuNTgtOCw4czMuNTgsOCw4LDhoODBjNC40MiwwLDgtMy41OCw4LThzLTMuNTgtOC04LThaIi8+JiN4YTs8L3N2Zz4=;fontStyle=1;fontSize=20;" parent="urCsp88US3Rvxd7nxDVZ-52" vertex="1">
          <mxGeometry x="34" y="2290.75" width="70" height="70" as="geometry" />
        </mxCell>
        <mxCell id="PnuRqYjMk-wBqvXui7f1-35" value="API Designer" style="shape=image;verticalLabelPosition=bottom;labelBackgroundColor=none;verticalAlign=top;aspect=fixed;imageAspect=0;image=data:image/svg+xml,PHN2ZyB4bWxucz0iaHR0cDovL3d3dy53My5vcmcvMjAwMC9zdmciIHZpZXdCb3g9IjAgMCAyNTYgMjU2IiBoZWlnaHQ9IjI1NiIgd2lkdGg9IjI1NiIgaWQ9ImFwaS1kZXNpZ25lciI+JiN4YTsgIDxwYXRoIHN0eWxlPSJmaWxsOiAjMDAwOyBzdHJva2Utd2lkdGg6IDBweDsiIGQ9Ik0xNzAuNjIsMTE5LjE4Yy0xNC4wNS0yMC43MS0yNS44OS00My4wNy0zNS4xOS02Ni40NmwtNy40My0xOC43MS03LjQzLDE4LjcxYy05LjMsMjMuNC0yMS4xMyw0NS43Ni0zNS4xOSw2Ni40Ni04LjMxLDEyLjI1LTE3LjUyLDI0LjA4LTI3LjM2LDM1LjE4bC00LjQsNC45Niw0LjA1LDUuMjRjNi4xNiw3Ljk4LDExLjE4LDE2Ljc1LDE0LjksMjYuMDgsMy4wNSw3LjY0LDUuMjMsMTUuNjYsNi40OCwyMy44MmwuMTUsMS4wMS40Ljk0YzEuODksNC40Miw2LjIyLDcuMjcsMTEuMDMsNy4yN2g3NC43MmMyLjM1LDAsNC42NC0uNjgsNi42MS0xLjk4LDEuOTYtMS4yOSwzLjQ5LTMuMTIsNC40Mi01LjI5bC40LS45NC4xNS0xLjAxYzEuMjUtOC4xNiwzLjQzLTE2LjE3LDYuNDgtMjMuODIsMy43Mi05LjMyLDguNzQtMTguMSwxNC45LTI2LjA4bDQuMDUtNS4yNC00LjQtNC45NmMtOS44NS0xMS4xLTE5LjA1LTIyLjkzLTI3LjM2LTM1LjE4Wk0xNjguNTcsMTg0LjcxYy0yLjk2LDcuNDEtNS4yLDE1LjExLTYuNjksMjIuOTdoLTY3Ljc2Yy0xLjQ5LTcuODUtMy43My0xNS41Ni02LjY5LTIyLjk3LTMuNDYtOC42Ni03Ljg5LTE2LjkxLTEzLjItMjQuNTksOC43MS0xMC4xOCwxNi45LTIwLjkxLDI0LjM5LTMxLjk1LDcuOC0xMS41LDE0LjkzLTIzLjQ5LDIxLjM4LTM1Ljg2djc1LjM3YzAsNC40MiwzLjU4LDgsOCw4czgtMy41OCw4LTh2LTc1LjM3YzYuNDUsMTIuMzcsMTMuNTgsMjQuMzcsMjEuMzgsMzUuODYsNy40OSwxMS4wNCwxNS42OCwyMS43NiwyNC4zOSwzMS45NS01LjMxLDcuNjgtOS43NCwxNS45My0xMy4yLDI0LjU5WiIvPiYjeGE7ICA8cGF0aCBzdHlsZT0iZmlsbDogIzAwMDsgc3Ryb2tlLXdpZHRoOiAwcHg7IiBkPSJNMTY4LDIzOS42OGgtODBjLTQuNDIsMC04LDMuNTgtOCw4czMuNTgsOCw4LDhoODBjNC40MiwwLDgtMy41OCw4LThzLTMuNTgtOC04LThaIi8+JiN4YTsgIDxwYXRoIHN0eWxlPSJmaWxsOiAjMDAwOyBzdHJva2Utd2lkdGg6IDBweDsiIGQ9Ik04MC4zMSwyNy42MmwxMC4wNCwxMC4wNGMxLjU2LDEuNTYsMy42MSwyLjM0LDUuNjYsMi4zNHM0LjA5LS43OCw1LjY2LTIuMzRjMy4xMi0zLjEyLDMuMTItOC4xOSwwLTExLjMxTDc3LjY2LDIuMzRjLTMuMTItMy4xMi04LjE5LTMuMTItMTEuMzEsMGwtMjQsMjRjLTMuMTIsMy4xMi0zLjEyLDguMTksMCwxMS4zMSwxLjU2LDEuNTYsMy42MSwyLjM0LDUuNjYsMi4zNHM0LjA5LS43OCw1LjY2LTIuMzRsMTAuNjYtMTAuNjZjLS4yMywxNC41OS0zLjE5LDM1LjY2LTE1LjI4LDU3LjA3LTEzLjM3LDIzLjY4LTMxLjg0LDM3LjUzLTQ0Ljk4LDQ0Ljk3LTMuODQsMi4xOC01LjE5LDcuMDYtMy4wMiwxMC45LDEuNDcsMi42LDQuMTgsNC4wNiw2Ljk3LDQuMDYsMS4zNCwwLDIuNjktLjMzLDMuOTQtMS4wNCwxNC45LTguNDQsMzUuODUtMjQuMTUsNTEuMDItNTEuMDMsMTMuNi0yNC4wOSwxNy4wMy00Ny43OCwxNy4zNC02NC4zMVoiLz4mI3hhOyAgPHBhdGggc3R5bGU9ImZpbGw6ICMwMDA7IHN0cm9rZS13aWR0aDogMHB4OyIgZD0iTTI1MS45NCwxMjkuMDRjLTEzLjE0LTcuNDUtMzEuNjEtMjEuMjktNDQuOTgtNDQuOTctMTIuMDktMjEuNDEtMTUuMDYtNDIuNDgtMTUuMjgtNTcuMDdsMTAuNjYsMTAuNjZjMS41NiwxLjU2LDMuNjEsMi4zNCw1LjY2LDIuMzRzNC4wOS0uNzgsNS42Ni0yLjM0YzMuMTItMy4xMiwzLjEyLTguMTksMC0xMS4zMWwtMjQtMjRjLTMuMTItMy4xMi04LjE5LTMuMTItMTEuMzEsMGwtMjQsMjRjLTMuMTIsMy4xMi0zLjEyLDguMTksMCwxMS4zMSwxLjU2LDEuNTYsMy42MSwyLjM0LDUuNjYsMi4zNHM0LjA5LS43OCw1LjY2LTIuMzRsMTAuMDQtMTAuMDRjLjMxLDE2LjUzLDMuNzQsNDAuMjMsMTcuMzQsNjQuMzEsMTUuMTgsMjYuODgsMzYuMTIsNDIuNTgsNTEuMDIsNTEuMDMsMS4yNS43MSwyLjYsMS4wNCwzLjk0LDEuMDQsMi43OSwwLDUuNS0xLjQ2LDYuOTctNC4wNiwyLjE4LTMuODQuODMtOC43My0zLjAyLTEwLjlaIi8+JiN4YTs8L3N2Zz4=;fontStyle=1;fontSize=20;" parent="urCsp88US3Rvxd7nxDVZ-52" vertex="1">
          <mxGeometry x="28.629999999999995" y="2712" width="70" height="70" as="geometry" />
        </mxCell>
        <mxCell id="PnuRqYjMk-wBqvXui7f1-37" value="Internal DB" style="shape=image;verticalLabelPosition=bottom;labelBackgroundColor=none;verticalAlign=top;aspect=fixed;imageAspect=0;image=data:image/svg+xml,PHN2ZyB4bWxucz0iaHR0cDovL3d3dy53My5vcmcvMjAwMC9zdmciIHZpZXdCb3g9IjAgMCAyNTYgMjU2IiBoZWlnaHQ9IjI1NiIgd2lkdGg9IjI1NiIgaWQ9ImRhdGEtc291cmNlIj4mI3hhOyAgPHBhdGggc3R5bGU9ImZpbGw6ICMwMDA7IHN0cm9rZS13aWR0aDogMHB4OyIgZD0iTTIxNC45MSw5LjY0QzE5MS42LDMuNDIsMTYwLjczLDAsMTI4LDBzLTYzLjYsMy40Mi04Ni45MSw5LjY0QzEzLjgyLDE2LjkxLDAsMjcuMTMsMCw0MHYxNzZjMCwxMi44NywxMy44MiwyMy4wOSw0MS4wOSwzMC4zNiwyMy4zMiw2LjIyLDU0LjE5LDkuNjQsODYuOTEsOS42NHM2My42LTMuNDIsODYuOTEtOS42NGMyNy4yNi03LjI3LDQxLjA5LTE3LjQ4LDQxLjA5LTMwLjM2VjQwYzAtMTIuODctMTMuODItMjMuMDktNDEuMDktMzAuMzZaTTI0MCwxNTJjMCwxLjUtNC45Niw4LjQzLTI5LjIxLDE0LjktMjIuMDEsNS44Ny01MS40MSw5LjEtODIuNzksOS4xcy02MC43OC0zLjIzLTgyLjc5LTkuMWMtMjQuMjUtNi40Ny0yOS4yMS0xMy40LTI5LjIxLTE0Ljl2LTI3LjExYzYuNDQsMy41NiwxNC44MSw2LjcyLDI1LjA5LDkuNDcsMjMuMzIsNi4yMiw1NC4xOSw5LjY0LDg2LjkxLDkuNjRzNjMuNi0zLjQyLDg2LjkxLTkuNjRjMTAuMjgtMi43NCwxOC42NS01LjksMjUuMDktOS40N3YyNy4xMVpNMjQwLDEwNGMwLDEuNS00Ljk2LDguNDMtMjkuMjEsMTQuOS0yMi4wMSw1Ljg3LTUxLjQxLDkuMS04Mi43OSw5LjFzLTYwLjc4LTMuMjMtODIuNzktOS4xYy0yNC4yNS02LjQ3LTI5LjIxLTEzLjQtMjkuMjEtMTQuOXYtNDMuMTFjNi40NCwzLjU2LDE0LjgxLDYuNzIsMjUuMDksOS40NywyMy4zMiw2LjIyLDU0LjE5LDkuNjQsODYuOTEsOS42NHM2My42LTMuNDIsODYuOTEtOS42NGMxMC4yOC0yLjc0LDE4LjY1LTUuOSwyNS4wOS05LjQ3djQzLjExWk00NS4yMSwyNS4xYzIyLjAxLTUuODcsNTEuNDEtOS4xLDgyLjc5LTkuMXM2MC43OCwzLjIzLDgyLjc5LDkuMWMyNC4yNSw2LjQ3LDI5LjIxLDEzLjQsMjkuMjEsMTQuOXMtNC45Niw4LjQzLTI5LjIxLDE0LjljLTIyLjAxLDUuODctNTEuNDEsOS4xLTgyLjc5LDkuMXMtNjAuNzgtMy4yMy04Mi43OS05LjFjLTI0LjI1LTYuNDctMjkuMjEtMTMuNC0yOS4yMS0xNC45czQuOTYtOC40MywyOS4yMS0xNC45Wk0yMTAuNzksMjMwLjljLTIyLjAxLDUuODctNTEuNDEsOS4xLTgyLjc5LDkuMXMtNjAuNzgtMy4yMy04Mi43OS05LjFjLTI0LjI1LTYuNDctMjkuMjEtMTMuNC0yOS4yMS0xNC45di00My4xMWM2LjQ0LDMuNTYsMTQuODEsNi43MiwyNS4wOSw5LjQ3LDIzLjMyLDYuMjIsNTQuMTksOS42NCw4Ni45MSw5LjY0czYzLjYtMy40Miw4Ni45MS05LjY0YzEwLjI4LTIuNzQsMTguNjUtNS45LDI1LjA5LTkuNDd2NDMuMTFjMCwxLjUtNC45Niw4LjQzLTI5LjIxLDE0LjlaIi8+JiN4YTs8L3N2Zz4=;fontStyle=1;fontSize=20;" parent="urCsp88US3Rvxd7nxDVZ-52" vertex="1">
          <mxGeometry x="210" y="2712" width="70" height="70" as="geometry" />
        </mxCell>
        <mxCell id="PnuRqYjMk-wBqvXui7f1-43" value="Authentication" style="shape=image;verticalLabelPosition=bottom;labelBackgroundColor=none;verticalAlign=top;aspect=fixed;imageAspect=0;image=data:image/svg+xml,PHN2ZyB4bWxucz0iaHR0cDovL3d3dy53My5vcmcvMjAwMC9zdmciIHZpZXdCb3g9IjAgMCAyNTYgMjU2IiBoZWlnaHQ9IjI1NiIgd2lkdGg9IjI1NiIgaWQ9ImkxOG4iPiYjeGE7ICA8cGF0aCBzdHlsZT0iZmlsbDogIzAwMDsgc3Ryb2tlLXdpZHRoOiAwcHg7IiBkPSJNMjU2LDg3Ljk5di00Ny45OXMwLS4wNiwwLS4wOWMwLS4xNS0uMDEtLjMtLjAyLS40NSwwLS4xMi0uMDEtLjI0LS4wMy0uMzYtLjAyLS4xNS0uMDQtLjI5LS4wNy0uNDQtLjAyLS4xMi0uMDQtLjI0LS4wNi0uMzYtLjAzLS4xMy0uMDctLjI3LS4xLS40LS4wMy0uMTItLjA2LS4yNS0uMS0uMzctLjA0LS4xMi0uMDktLjI0LS4xMy0uMzUtLjA1LS4xMy0uMDktLjI1LS4xNS0uMzgtLjA1LS4xMS0uMS0uMjEtLjE1LS4zMi0uMDYtLjEzLS4xMi0uMjUtLjE5LS4zOC0uMDYtLjEtLjEyLS4yLS4xOC0uMy0uMDctLjEyLS4xNC0uMjQtLjIyLS4zNi0uMDctLjEtLjE0LS4xOS0uMjItLjI5LS4wOC0uMTEtLjE2LS4yMi0uMjUtLjMyLS4wOC0uMS0uMTctLjE5LS4yNi0uMjgtLjA5LS4wOS0uMTctLjE5LS4yNi0uMjgtLjEtLjA5LS4yLS4xOC0uMy0uMjctLjA5LS4wOC0uMTgtLjE2LS4yNy0uMjQtLjExLS4wOS0uMjItLjE3LS4zNC0uMjUtLjA5LS4wNy0uMTktLjE0LS4yOC0uMjEtLjEyLS4wOC0uMjQtLjE1LS4zNi0uMjItLjEtLjA2LS4yLS4xMi0uMzEtLjE4LS4xMi0uMDYtLjI0LS4xMi0uMzYtLjE4LS4xMS0uMDUtLjIzLS4xMS0uMzQtLjE2LS4xMi0uMDUtLjI0LS4wOS0uMzYtLjEzLS4xMy0uMDUtLjI2LS4wOS0uMzktLjEzLS4xMS0uMDMtLjIzLS4wNi0uMzUtLjA5LS4xNC0uMDQtLjI4LS4wNy0uNDMtLjEtLjEyLS4wMi0uMjQtLjA0LS4zNi0uMDUtLjE1LS4wMi0uMjktLjA0LS40NC0uMDYtLjAzLDAtLjA2LDAtLjA5LS4wMS0yNi42Ni0yLjEtNTIuOTUtNy4zNi03OC4xMy0xNS42Mi0xMy4yNy00LjM2LTI2LjQyLTkuNjEtMzkuMDYtMTUuNjIsMCwwLS4wMiwwLS4wMi0uMDEtLjE3LS4wOC0uMzUtLjE1LS41Mi0uMjItLjI2LS4xLS41Mi0uMTktLjc4LS4yNi0uMDUtLjAxLS4xMS0uMDQtLjE2LS4wNS0uMTgtLjA0LS4zNi0uMDgtLjUzLS4xMS0uMDgtLjAxLS4xNS0uMDMtLjIzLS4wNS0uMTYtLjAyLS4zMS0uMDMtLjQ3LS4wNS0uMSwwLS4yMS0uMDItLjMxLS4wMy0uMTMsMC0uMjUsMC0uMzgsMC0uMTQsMC0uMjcsMC0uNDEsMC0uMDksMC0uMTguMDItLjI4LjAzLS4xNy4wMS0uMzQuMDMtLjUxLjA1LS4wNiwwLS4xMi4wMi0uMTguMDMtLjIuMDMtLjM5LjA3LS41OS4xMiwwLDAsMCwwLDAsMC0uMzQuMDktLjY4LjItMS4wMS4zNC0uMTUuMDYtLjMuMTItLjQ1LjE5LDAsMC0uMDIsMC0uMDMuMDEtMTIuNjUsNi4wMS0yNS43OSwxMS4yNy0zOS4wNiwxNS42Mi0yNS4xOSw4LjI3LTUxLjQ3LDEzLjUyLTc4LjEzLDE1LjYyLS4wMywwLS4wNiwwLS4wOS4wMS0uMTUuMDEtLjI5LjA0LS40NC4wNi0uMTIuMDItLjI0LjAzLS4zNi4wNS0uMTUuMDMtLjI5LjA2LS40My4xLS4xMi4wMy0uMjMuMDYtLjM1LjA5LS4xMy4wNC0uMjYuMDktLjM5LjEzLS4xMi4wNC0uMjQuMDgtLjM2LjEzLS4xMi4wNS0uMjMuMS0uMzQuMTYtLjEyLjA2LS4yNS4xMS0uMzYuMTgtLjExLjA2LS4yMS4xMi0uMzEuMTgtLjEyLjA3LS4yNC4xNC0uMzYuMjItLjEuMDYtLjE5LjE0LS4yOC4yMS0uMTEuMDgtLjIzLjE2LS4zNC4yNS0uMDkuMDgtLjE4LjE2LS4yNy4yNC0uMS4wOS0uMi4xOC0uMy4yNy0uMDkuMDktLjE3LjE4LS4yNi4yOC0uMDkuMDktLjE4LjE5LS4yNi4yOC0uMDkuMS0uMTcuMjEtLjI1LjMyLS4wNy4xLS4xNS4xOS0uMjIuMjktLjA4LjEyLS4xNS4yNC0uMjIuMzYtLjA2LjEtLjEyLjItLjE4LjMtLjA3LjEyLS4xMy4yNS0uMTkuMzgtLjA1LjExLS4xMS4yMS0uMTUuMzItLjA1LjEyLS4xLjI1LS4xNS4zOC0uMDQuMTItLjA5LjIzLS4xMy4zNS0uMDQuMTItLjA3LjI1LS4xLjM3LS4wNC4xMy0uMDcuMjYtLjEuNC0uMDMuMTItLjA0LjI0LS4wNi4zNi0uMDIuMTQtLjA1LjI5LS4wNy40NC0uMDEuMTItLjAyLjI0LS4wMy4zNiwwLC4xNS0uMDIuMy0uMDIuNDUsMCwuMDMsMCwuMDYsMCwuMDl2NDcuOTlzMCwuMDYsMCwuMDh2MjMuOTJjMCwxOC40Miw5Ljc0LDU5LjY5LDQ2LjI0LDk3LjU1LDI2LjkzLDI3LjkzLDU4LjIyLDQwLjU0LDc5LjczLDQ2LjE5LjE1LjA0LjI5LjA2LjQ0LjA5LjE0LjAzLjI4LjA2LjQyLjA4LjM4LjA2Ljc2LjA5LDEuMTMuMDkuMDEsMCwuMDIsMCwuMDQsMCwwLDAsMCwwLDAsMHMwLDAsMCwwYy4wMSwwLC4wMiwwLC4wNCwwLC4zNywwLC43NS0uMDQsMS4xMy0uMDkuMTQtLjAyLjI4LS4wNS40Mi0uMDguMTUtLjAzLjI5LS4wNS40NC0uMDksMjEuNTEtNS42NSw1Mi44LTE4LjI1LDc5LjczLTQ2LjE5LDM2LjUtMzcuODYsNDYuMjQtNzkuMTQsNDYuMjQtOTcuNTV2LTIzLjkyczAtLjA2LDAtLjA4Wk0yNDAsNDcuMzF2MzUuMjljLTMzLjMsMTMuMjEtNjguMjIsMjAuMzctMTA0LDIxLjI5VjIwLjRjOS42Nyw0LjE4LDE5LjU1LDcuOTMsMjkuNSwxMS4yLDI0LjA3LDcuOSw0OS4wOSwxMy4xNyw3NC41LDE1LjcxWk05MC41LDMxLjZjOS45NS0zLjI3LDE5LjgzLTcuMDIsMjkuNS0xMS4ydjgzLjQ5Yy0zNS43OC0uOTMtNzAuNy04LjA5LTEwNC0yMS4yOXYtMzUuMjljMjUuNC0yLjU0LDUwLjQzLTcuODEsNzQuNS0xNS43MVpNNTcuNzYsMTk4LjQ1QzI0LjczLDE2NC4xOCwxNiwxMjYuOTIsMTYsMTEydi0xMi4yNmMzMy40MSwxMi41LDY4LjMsMTkuMjksMTA0LDIwLjE2djExNy4zN2MtMTguNS02LjE3LTQxLjc5LTE3LjYxLTYyLjI0LTM4LjgzWk0xOTguMjQsMTk4LjQ1Yy0yMC40NSwyMS4yMS00My43NCwzMi42Ni02Mi4yNCwzOC44M3YtMTE3LjM3YzM1LjctLjg4LDcwLjYtNy42NiwxMDQtMjAuMTZ2MTIuMjZjMCwxNC45Mi04LjczLDUyLjE4LTQxLjc2LDg2LjQ1WiIvPiYjeGE7PC9zdmc+;fontStyle=1;fontSize=20;" parent="urCsp88US3Rvxd7nxDVZ-52" vertex="1">
          <mxGeometry x="-545" y="2131.75" width="70" height="70" as="geometry" />
        </mxCell>
        <mxCell id="PnuRqYjMk-wBqvXui7f1-47" value="Mobile" style="shape=image;verticalLabelPosition=bottom;labelBackgroundColor=default;verticalAlign=top;aspect=fixed;imageAspect=0;image=data:image/svg+xml,PHN2ZyB4bWxucz0iaHR0cDovL3d3dy53My5vcmcvMjAwMC9zdmciIHZpZXdCb3g9IjAgMCAyNTYgMjU2IiBoZWlnaHQ9IjI1NiIgd2lkdGg9IjI1NiIgaWQ9Im1vYmlsZS1kZXZpY2VzIj4mI3hhOyAgPGcgaWQ9IkV4cG9ydCI+JiN4YTsgICAgPHBhdGggc3R5bGU9ImZpbGw6ICMwMDA7IHN0cm9rZS13aWR0aDogMHB4OyIgZD0iTTEyMCwyMDhoLTMyYy00LjQyLDAtOCwzLjU4LTgsOHMzLjU4LDgsOCw4aDMyYzQuNDIsMCw4LTMuNTgsOC04cy0zLjU4LTgtOC04WiIvPiYjeGE7ICAgIDxwYXRoIHN0eWxlPSJmaWxsOiAjMDAwOyBzdHJva2Utd2lkdGg6IDBweDsiIGQ9Ik0xODQsNDhIMjRjLTEzLjIzLDAtMjQsMTAuNzctMjQsMjR2MTYwYzAsMTMuMjMsMTAuNzcsMjQsMjQsMjRoMTYwYzEzLjIzLDAsMjQtMTAuNzcsMjQtMjRWNzJjMC0xMy4yMy0xMC43Ny0yNC0yNC0yNFpNMTkyLDIzMmMwLDQuNDEtMy41OSw4LTgsOEgyNGMtNC40MSwwLTgtMy41OS04LThWNzJjMC00LjQxLDMuNTktOCw4LThoMTYwYzQuNDEsMCw4LDMuNTksOCw4djE2MFoiLz4mI3hhOyAgICA8cGF0aCBzdHlsZT0iZmlsbDogIzAwMDsgc3Ryb2tlLXdpZHRoOiAwcHg7IiBkPSJNMjMwLjU1LDBINzMuNDVjLTE0LjA0LDAtMjUuNDUsMTAuMjEtMjUuNDUsMjIuNzcsMCw0LjQyLDMuNTgsOCw4LDhzOC0zLjU4LDgtOGMwLTMuNjcsNC4zMy02Ljc3LDkuNDUtNi43N2gxNTcuMDljNS4xMiwwLDkuNDUsMy4xLDkuNDUsNi43N3YxNjIuNDZjMCwzLjY3LTQuMzMsNi43Ny05LjQ1LDYuNzctNC40MiwwLTgsMy41OC04LDhzMy41OCw4LDgsOGMxNC4wNCwwLDI1LjQ1LTEwLjIxLDI1LjQ1LTIyLjc3VjIyLjc3YzAtMTIuNTUtMTEuNDItMjIuNzctMjUuNDUtMjIuNzdaIi8+JiN4YTsgICAgPHBhdGggc3R5bGU9ImZpbGw6ICMwMDA7IHN0cm9rZS13aWR0aDogMHB4OyIgZD0iTTE0NCw4MGgtODBjLTguODIsMC0xNiw3LjE4LTE2LDE2djgwYzAsOC44Miw3LjE4LDE2LDE2LDE2aDgwYzguODIsMCwxNi03LjE4LDE2LTE2di04MGMwLTguODItNy4xOC0xNi0xNi0xNlpNMTQ0LDE3NmgtODB2LTgwaDgwdjgwczAsMCwwLDBaIi8+JiN4YTsgIDwvZz4mI3hhOzwvc3ZnPg==;fontStyle=1;fontSize=20;" parent="urCsp88US3Rvxd7nxDVZ-52" vertex="1">
          <mxGeometry x="50" y="1275.76" width="70" height="70" as="geometry" />
        </mxCell>
        <mxCell id="PnuRqYjMk-wBqvXui7f1-78" value="" style="shape=image;verticalLabelPosition=bottom;labelBackgroundColor=default;verticalAlign=top;aspect=fixed;imageAspect=0;image=data:image/svg+xml,PHN2ZyB4bWxucz0iaHR0cDovL3d3dy53My5vcmcvMjAwMC9zdmciIHZpZXdCb3g9IjAgMCAzMiAzMiI+PHBhdGggZD0iTTI0LjYgMjAuNmMtLjEuMi0uMS4zLS4xLjQtLjQgMS4xLTEgMi4xLTEuNyAzLS4zLjQtLjcuOC0xLjEgMS4xLS4zLjItLjUuNC0uOC42LS4yLjEtLjUuMi0uNy4yaC0uNmMtLjMgMC0uNi0uMS0uOC0uMmwtLjktLjNjLS4yLS4xLS4zLS4xLS41LS4ycy0uNS0uMS0uNy0uMWMtLjMgMC0uNiAwLS45LjEtLjQuMS0uOC4yLTEuMi40LS4yLjEtLjMuMS0uNS4yLS4zLjEtLjYuMi0uOS4yaC0uNGMtLjMgMC0uNi0uMS0uOC0uMy0uNC0uMi0uOC0uNS0xLjEtLjgtLjMtLjMtLjYtLjYtLjgtMS0uNS0uNi0uOS0xLjMtMS4yLTItLjQtLjgtLjctMS42LS45LTIuNS0uMS0uNC0uMi0uOC0uMi0xLjMgMC0uMy0uMS0uNi0uMS0uOXYtLjljMC0uMiAwLS40LjEtLjcgMC0uMy4xLS43LjItMSAuMi0uOS42LTEuNiAxLjItMi4zLjYtLjcgMS40LTEuMiAyLjItMS40LjQtLjEuOS0uMiAxLjMtLjJoMWMuMyAwIC42LjEuOS4yLjIuMS41LjIuNy4zLjIuMS40LjIuNi4yLjIuMS41LjEuNy4xLjIgMCAuNS0uMS43LS4ybC45LS4zYy41LS4yIDEuMS0uMyAxLjctLjMuNSAwIDEgMCAxLjQuMS41LjEuOS4yIDEuMy41LjcuMyAxLjIuOCAxLjcgMS40LS4zLjItLjYuNS0uOS44LS40LjQtLjcuOC0uOSAxLjItLjIuNS0uNC45LS40IDEuNHYuN2MwIC4zLjEuNS4xLjguMi44LjYgMS40IDEuMiAyIC4zLjMuNy42IDEuMi45LS4yIDAtLjEgMCAwIC4xeiIvPjxwYXRoIGQ9Ik0yMCA2di44YzAgLjctLjMgMS40LS43IDItLjQuNi0uOSAxLjEtMS41IDEuNC0uNC4zLS45LjQtMS40LjVoLS41di0uNWMwLS40IDAtLjcuMS0xLjEuMS0uNS40LS45LjctMS4zLjQtLjUuOC0uOSAxLjMtMS4yLjUtLjMgMS0uNiAxLjYtLjcuMS4xLjIuMS40LjF6Ii8+PC9zdmc+;" parent="urCsp88US3Rvxd7nxDVZ-52" vertex="1">
          <mxGeometry x="272.73" y="1311" width="70" height="70" as="geometry" />
        </mxCell>
        <mxCell id="PnuRqYjMk-wBqvXui7f1-79" value="" style="shape=image;verticalLabelPosition=bottom;labelBackgroundColor=default;verticalAlign=top;aspect=fixed;imageAspect=0;image=data:image/svg+xml,PHN2ZyB4bWxuczp4bGluaz0iaHR0cDovL3d3dy53My5vcmcvMTk5OS94bGluayIgeG1sbnM9Imh0dHA6Ly93d3cudzMub3JnLzIwMDAvc3ZnIiB4bWw6c3BhY2U9InByZXNlcnZlIiBzdHlsZT0iZW5hYmxlLWJhY2tncm91bmQ6bmV3IDAgMCA3NSA3NTsiIHZpZXdCb3g9IjAgMCA3NSA3NSIgeT0iMHB4IiB4PSIwcHgiIGlkPSJMYXllcl8xIiB2ZXJzaW9uPSIxLjEiPiYjeGE7PHN0eWxlIHR5cGU9InRleHQvY3NzIj4mI3hhOwkuc3Qwe2ZpbGw6IzAwMDt9JiN4YTsJLnN0MXtmaWxsOiMwMDA7fSYjeGE7CS5zdDJ7ZmlsbDpub25lO3N0cm9rZTojMDAwO3N0cm9rZS13aWR0aDowLjk1NzU7c3Ryb2tlLW1pdGVybGltaXQ6MTA7fSYjeGE7CS5zdDN7ZmlsbDojMDAwO3N0cm9rZTojMDAwO3N0cm9rZS13aWR0aDowLjMxOTI7c3Ryb2tlLW1pdGVybGltaXQ6MTA7fSYjeGE7CS5zdDR7ZmlsbDpub25lO3N0cm9rZTojMDAwO3N0cm9rZS13aWR0aDoxLjgwNztzdHJva2UtbWl0ZXJsaW1pdDoxMDt9JiN4YTsJLnN0NXtmaWxsOm5vbmU7c3Ryb2tlOiMwMDA7c3Ryb2tlLXdpZHRoOjEuODAyNDtzdHJva2UtbWl0ZXJsaW1pdDoxMDt9JiN4YTs8L3N0eWxlPiYjeGE7PGc+JiN4YTsJPGc+JiN4YTsJCTxwYXRoIGQ9Ik01Mi43LDM3YzAtMS43LTAuOC0yLjktMS41LTMuNUM1MC4zLDMyLjYsNDksMzIsNDcuNywzMmMwLDAtMC4xLDAtMC4xLDBjLTIuMywwLjEtNC43LDAtNywwYy0xLDAtMiwwLTMsMCYjMTA7JiM5OyYjOTsmIzk7YzAsMCwwLDAtMC4xLDBIMjcuMmMtMC43LDAtMS40LDAuMi0yLDAuNGMtMS45LDAuOS0yLjksMi41LTIuOSw0LjdjMCwyLjEsMCw0LjIsMCw2LjNsMCwyLjFjMCwwLjIsMCwwLjQsMC4xLDAuNSYjMTA7JiM5OyYjOTsmIzk7YzAuMSwwLjQsMC40LDAuNywwLjgsMC43YzAuNCwwLDAuNy0wLjIsMC45LTAuNmMwLjEtMC4yLDAtMC40LDAtMC41bDAtMC4xYzAtMSwwLTIsMC0zYzAtMS45LDAtMy43LDAtNS42YzAtMS41LDEuMS0yLjgsMi41LTMuMSYjMTA7JiM5OyYjOTsmIzk7YzAuMiwwLDAuNC0wLjEsMC40LTAuMWMwLDAsMCwwLjIsMCwwLjRsMCwzLjhjMCwyLjcsMCw1LjQsMCw4YzAsMi40LDIsNC42LDQuNSw0LjdjMC4zLDAsMC4zLDAuMSwwLjMsMC40YzAsMS42LDAsMy4xLDAsNC43JiMxMDsmIzk7JiM5OyYjOTtsMCwxLjNsMCwwLjFjMCwwLjEsMCwwLjMsMCwwLjRjMC4xLDAuNCwwLjQsMC43LDAuOCwwLjdjMCwwLDAsMCwwLDBjMC40LDAsMC44LTAuMywwLjgtMC43YzAtMC4xLDAtMC4zLDAtMC40bDAtMC4xbDAtMS41JiMxMDsmIzk7JiM5OyYjOTtjMC0xLjUsMC0zLDAtNC41YzAtMC4yLDAtMC4yLDAuMS0wLjNjMCwwLDAuMS0wLjEsMC4zLTAuMWMwLDAsMCwwLDAsMGMyLjUsMCw0LjksMCw3LjIsMGMwLjEsMCwwLjMsMCwwLjMsMC4xJiMxMDsmIzk7JiM5OyYjOTtjMCwwLDAuMSwwLjEsMC4xLDAuM2MwLDEuNCwwLDIuOCwwLDQuMmwwLDEuM2wwLDAuMmMwLDAuMiwwLDAuNSwwLDAuN2MwLDAuNCwwLjQsMC44LDAuOCwwLjhjMCwwLDAsMCwwLDBjMC40LDAsMC44LTAuMywwLjgtMC44JiMxMDsmIzk7JiM5OyYjOTtjMC0wLjEsMC0wLjIsMC0wLjRsMC0wLjFsMC0xLjZjMC0xLjUsMC0zLDAtNC41YzAtMC4zLDAtMC4zLDAuMy0wLjNjMC42LDAsMS4xLTAuMiwxLjctMC41YzEuOS0xLDIuOC0yLjUsMi44LTQuNCYjMTA7JiM5OyYjOTsmIzk7YzAtMy45LDAtNy45LDAtMTEuOGMwLTAuMSwwLTAuMiwwLTAuM2MwLDAsMC4xLDAsMC4yLDBjMS42LDAuMywyLjcsMS42LDIuNywzLjFjMCwxLjksMCwzLjksMCw1LjdjMCwxLDAsMS45LDAsMi45djAmIzEwOyYjOTsmIzk7JiM5O2MwLDAuMiwwLDAuNCwwLjEsMC42YzAuMSwwLjQsMC40LDAuNiwwLjgsMC42YzAuNCwwLDAuNy0wLjIsMC44LTAuNmMwLTAuMiwwLjEtMC4zLDAuMS0wLjVsMC0xLjlDNTIuNyw0MS41LDUyLjcsMzkuMiw1Mi43LDM3eiYjMTA7JiM5OyYjOTsmIzk7IE0zOC4xLDQ5LjFjLTAuMSwwLTAuMSwwLTAuMiwwbC0wLjcsMGMtMS42LDAtMy4zLDAtNC45LDBjLTIuMiwwLTMuNS0xLjMtMy41LTMuNWMwLTIuNSwwLTUuMSwwLTcuNnYtMy44YzAtMC40LDAtMC40LDAuNS0wLjQmIzEwOyYjOTsmIzk7JiM5O2w4LjMsMGwyLjEsMGMyLDAsNC4xLDAsNi4xLDBjMC4yLDAsMC4zLDAsMC40LDAuMWMwLjEsMC4xLDAuMSwwLjIsMC4xLDAuNGMwLDMuOCwwLDcuNSwwLDExLjJjMCwwLjcsMCwxLjUtMC40LDIuMSYjMTA7JiM5OyYjOTsmIzk7Yy0wLjYsMS0xLjUsMS41LTIuNiwxLjVjLTEuMywwLTIuNiwwLTMuOSwwQzM4LjksNDkuMSwzOC41LDQ5LjEsMzguMSw0OS4xeiIgY2xhc3M9InN0MSIvPiYjeGE7CQk8cGF0aCBkPSJNMjguNiwzMC44bDYuNywwbDExLjIsMGMwLjEsMCwwLjMsMCwwLjUsMGMwLjctMC4xLDEtMC40LDEtMS4xYzAtMC43LTAuMS0xLjUtMC40LTIuNCYjMTA7JiM5OyYjOTsmIzk7Yy0wLjYtMi4xLTEuNy0zLjktMy4zLTUuM2MtMC4zLTAuMi0wLjMtMC4zLTAuMS0wLjZjMC40LTAuNSwwLjctMS4xLDEuMS0xLjZjMC4xLTAuMiwwLjMtMC40LDAuNC0wLjZjMC4xLTAuMSwwLjItMC4yLDAuMi0wLjQmIzEwOyYjOTsmIzk7JiM5O2MwLjItMC4zLDAuNC0wLjYsMC42LTAuOWMwLjItMC40LDAuMS0wLjktMC4yLTEuMWMtMC40LTAuMy0wLjgtMC4yLTEuMSwwLjFjLTAuMSwwLjEtMC4yLDAuMy0wLjMsMC40bC0wLjUsMC43JiMxMDsmIzk7JiM5OyYjOTtjLTAuNSwwLjctMSwxLjUtMS41LDIuM2MtMC4yLDAuMy0wLjMsMC40LTAuNiwwLjJjLTAuOC0wLjQtMS42LTAuNy0yLjMtMC44Yy0yLjMtMC41LTQuNi0wLjMtNi44LDAuOGMtMC41LDAuMi0wLjUsMC4yLTAuOC0wLjMmIzEwOyYjOTsmIzk7JiM5O2wtMC41LTAuOGMtMC41LTAuOC0xLjEtMS42LTEuNi0yLjRjLTAuMi0wLjMtMC40LTAuNC0wLjYtMC41Yy0wLjIsMC0wLjQsMC0wLjYsMC4yYy0wLjQsMC4zLTAuNSwwLjgtMC4xLDEuM2wwLjYsMC44JiMxMDsmIzk7JiM5OyYjOTtjMC42LDAuOCwxLjEsMS43LDEuNywyLjVjMC4yLDAuMiwwLjEsMC4zLTAuMSwwLjVjLTIuMiwxLjktMy41LDQuMy0zLjcsNy4yYy0wLjEsMC43LDAsMS4xLDAuMiwxLjQmIzEwOyYjOTsmIzk7JiM5O0MyNy41LDMwLjcsMjcuOSwzMC44LDI4LjYsMzAuOHogTTI4LjksMjguN2MwLjUtMy4yLDIuMy01LjUsNS4zLTYuOGMxLTAuNCwyLjItMC43LDMuMy0wLjdjMS4zLDAsMi41LDAuMywzLjcsMC44JiMxMDsmIzk7JiM5OyYjOTtjMi4yLDEuMSwzLjksMyw0LjYsNS4zYzAuMSwwLjMsMC4xLDAuNSwwLjIsMC44YzAsMC4yLDAuMSwwLjQsMC4xLDAuNmMwLDAuMSwwLDAuMiwwLDAuMmMwLDAsMCwwLTAuMiwwYzAsMCwwLDAsMCwwJiMxMDsmIzk7JiM5OyYjOTtjLTIuMiwwLTQuNCwwLTYuNywwaC0xLjl2MGwtMS45LDBjLTIuMSwwLTQuMywwLTYuNCwwYzAsMCwwLDAsMCwwYy0wLjIsMC0wLjIsMC0wLjIsMEMyOC45LDI4LjksMjguOCwyOC44LDI4LjksMjguN3oiIGNsYXNzPSJzdDAiLz4mI3hhOwk8L2c+JiN4YTs8L2c+JiN4YTs8L3N2Zz4=;" parent="urCsp88US3Rvxd7nxDVZ-52" vertex="1">
          <mxGeometry x="338.2199999999999" y="1309.75" width="75" height="75" as="geometry" />
        </mxCell>
        <mxCell id="PnuRqYjMk-wBqvXui7f1-80" value="" style="shape=image;verticalLabelPosition=bottom;labelBackgroundColor=default;verticalAlign=top;aspect=fixed;imageAspect=0;image=data:image/svg+xml,PHN2ZyB4bWxuczp4bGluaz0iaHR0cDovL3d3dy53My5vcmcvMTk5OS94bGluayIgeG1sbnM9Imh0dHA6Ly93d3cudzMub3JnLzIwMDAvc3ZnIiB4bWw6c3BhY2U9InByZXNlcnZlIiBzdHlsZT0iZW5hYmxlLWJhY2tncm91bmQ6bmV3IDAgMCA3NSA3NTsiIHZpZXdCb3g9IjAgMCA3NSA3NSIgeT0iMHB4IiB4PSIwcHgiIGlkPSJMYXllcl8xIiB2ZXJzaW9uPSIxLjEiPiYjeGE7PHN0eWxlIHR5cGU9InRleHQvY3NzIj4mI3hhOwkuc3Qwe2ZpbGw6IzAwMDt9JiN4YTsJLnN0MXtmaWxsOiMwMDA7fSYjeGE7CS5zdDJ7ZmlsbDpub25lO3N0cm9rZTojMDAwO3N0cm9rZS13aWR0aDowLjk1NzU7c3Ryb2tlLW1pdGVybGltaXQ6MTA7fSYjeGE7CS5zdDN7ZmlsbDojMDAwO3N0cm9rZTojMDAwO3N0cm9rZS13aWR0aDowLjMxOTI7c3Ryb2tlLW1pdGVybGltaXQ6MTA7fSYjeGE7CS5zdDR7ZmlsbDpub25lO3N0cm9rZTojMDAwO3N0cm9rZS13aWR0aDoxLjgwNztzdHJva2UtbWl0ZXJsaW1pdDoxMDt9JiN4YTsJLnN0NXtmaWxsOm5vbmU7c3Ryb2tlOiMwMDA7c3Ryb2tlLXdpZHRoOjEuODAyNDtzdHJva2UtbWl0ZXJsaW1pdDoxMDt9JiN4YTs8L3N0eWxlPiYjeGE7PGc+JiN4YTsJPGc+JiN4YTsJCTxnPiYjeGE7CQkJPHBhdGggZD0iTTUzLDM3LjhjLTEuMiwwLTIuMywwLTMuNSwwYy0zLjgsMC03LjgsMC0xMS43LDBjMCwwLTAuMSwwLTAuMSwwYy0wLjcsMC0xLjIsMC4yLTEuNiwwLjUmIzEwOyYjOTsmIzk7JiM5OyYjOTtjLTAuMywwLjMtMC41LDAuOS0wLjUsMS43YzAuMSwzLjQsMC4xLDYuOSwwLDEwLjRjMCwxLjQsMC41LDIsMiwyLjJjNCwwLjUsOC4yLDEuMiwxMi4xLDEuOGMxLjUsMC4yLDMsMC40LDQuNSwwLjdsMC41LDBsMC00LjUmIzEwOyYjOTsmIzk7JiM5OyYjOTtjMC0zLjcsMC03LjUsMC4xLTExLjJjMC0wLjUtMC4xLTAuOS0wLjQtMS4yQzU0LjIsMzcuOCw1My42LDM3LjgsNTMsMzcuOHogTTM3LDQwLjdjMC0wLjUsMC4xLTAuOCwwLjMtMWMwLjItMC4yLDAuNS0wLjMsMS0wLjMmIzEwOyYjOTsmIzk7JiM5OyYjOTtjMCwwLDAsMCwwLDBjMS42LDAsMy4zLDAsNC45LDBjMC43LDAsMS4zLDAsMiwwYzAuNywwLDEuNCwwLDIuMiwwYzEuNSwwLDMuMSwwLDQuNiwwYzAuNiwwLDEsMC4xLDEuMywwLjMmIzEwOyYjOTsmIzk7JiM5OyYjOTtjMC4yLDAuMiwwLjMsMC42LDAuMywxLjJjMCwzLjUsMCw3LjIsMCwxMS4zYzAsMC41LTAuMSwwLjgtMC4zLDFjLTAuMiwwLjItMC41LDAuMi0xLDAuMWMtMi45LTAuNC01LjktMC44LTguOC0xLjImIzEwOyYjOTsmIzk7JiM5OyYjOTtjLTEuOC0wLjMtMy42LTAuNS01LjUtMC44Yy0wLjgtMC4xLTEuMi0wLjYtMS4yLTEuNEMzNyw0Ni44LDM3LDQzLjcsMzcsNDAuN3oiIGNsYXNzPSJzdDAiLz4mI3hhOwkJCTxwYXRoIGQ9Ik0zNC44LDM5LjdjMC0wLjctMC4xLTEuMS0wLjQtMS40Yy0wLjMtMC4zLTAuNy0wLjQtMS4zLTAuNGMwLDAsMCwwLDAsMGMtMy4xLDAtNi4yLDAuMS05LjMsMC4xbC0zLjcsMHYxMi40JiMxMDsmIzk7JiM5OyYjOTsmIzk7bDAuMSwwYzEuMiwwLjIsMi40LDAuMywzLjUsMC40YzIuOSwwLjQsNiwwLjgsOSwxLjJjMC4zLDAsMC41LDAuMSwwLjcsMC4xYzAuNCwwLDAuNy0wLjEsMS0wLjNjMC4zLTAuMywwLjQtMC43LDAuNC0xLjUmIzEwOyYjOTsmIzk7JiM5OyYjOTtDMzQuNyw0Ni43LDM0LjcsNDMuMSwzNC44LDM5Ljd6IE0zMy4zLDQ1bDAsMS40YzAsMSwwLDIsMCwzYzAsMC40LTAuMSwwLjctMC4zLDAuOWMtMC4yLDAuMi0wLjUsMC4yLTAuOSwwLjEmIzEwOyYjOTsmIzk7JiM5OyYjOTtjLTMuMy0wLjUtNi42LTAuOS05LjQtMS4yYy0wLjgtMC4xLTEuMi0wLjUtMS4yLTEuM2MwLTEuOSwwLTMuOCwwLTUuN3YtMS43YzAtMC40LDAuMS0wLjcsMC4zLTAuOWMwLjItMC4yLDAuNi0wLjMsMS0wLjMmIzEwOyYjOTsmIzk7JiM5OyYjOTtjMCwwLDAsMCwwLDBjMy42LDAsNi41LDAsOS4yLDBjMCwwLDAsMCwwLDBjMC40LDAsMC44LDAuMSwxLDAuM2MwLjIsMC4yLDAuMywwLjYsMC4zLDEuMmMwLDEsMCwyLDAsM0wzMy4zLDQ1eiIgY2xhc3M9InN0MCIvPiYjeGE7CQkJPHBhdGggZD0iTTMzLjIsMzYuOUMzMy4yLDM2LjksMzMuMiwzNi45LDMzLjIsMzYuOWMwLjUsMCwwLjktMC4xLDEuMi0wLjRjMC40LTAuNCwwLjQtMSwwLjQtMS40YzAtMy41LDAtNywwLTEwLjQmIzEwOyYjOTsmIzk7JiM5OyYjOTtjMC0wLjctMC4xLTEuMi0wLjUtMS41Yy0wLjMtMC4zLTAuOC0wLjQtMS41LTAuM2MtMywwLjUtNi4xLDAuOS05LjEsMS4zYy0xLjIsMC4yLTIuNCwwLjMtMy42LDAuNWwtMC4xLDB2MTJsMy44LDAmIzEwOyYjOTsmIzk7JiM5OyYjOTtDMjYuOSwzNi44LDMwLjEsMzYuOCwzMy4yLDM2Ljl6IE0zMy4zLDM0LjNjMCwwLjUtMC4xLDAuOC0wLjMsMWMtMC4yLDAuMi0wLjYsMC4zLTEuMiwwLjNjLTEuMSwwLTIuMiwwLTMuMiwwJiMxMDsmIzk7JiM5OyYjOTsmIzk7Yy0wLjksMC0xLjgsMC0yLjcsMGMtMSwwLTIuMSwwLTMuMSwwYy0wLjUsMC0wLjktMC4xLTEuMS0wLjNjLTAuMi0wLjItMC4zLTAuNS0wLjMtMWMwLTEuOSwwLTMuOSwwLTUuN2wwLTEuNCYjMTA7JiM5OyYjOTsmIzk7JiM5O2MwLTAuOSwwLjMtMS4yLDEuMS0xLjNjMS45LTAuMywzLjgtMC41LDUuOC0wLjhjMS4zLTAuMiwyLjUtMC40LDMuOC0wLjVjMC4xLDAsMC4yLDAsMC4zLDBjMC4zLDAsMC41LDAuMSwwLjYsMC4yJiMxMDsmIzk7JiM5OyYjOTsmIzk7YzAuMiwwLjIsMC4zLDAuNSwwLjMsMC45YzAsMSwwLDEuOSwwLDIuOUMzMy4zLDMwLjQsMzMuMywzMi40LDMzLjMsMzQuM3oiIGNsYXNzPSJzdDAiLz4mI3hhOwkJCTxwYXRoIGQ9Ik0zNS43LDM1YzAsMC43LDAuMSwxLjIsMC40LDEuNWMwLjMsMC4zLDAuNywwLjQsMS4zLDAuNGMwLDAsMC4xLDAsMC4xLDBjMS44LDAsMy42LDAsNS40LDAmIzEwOyYjOTsmIzk7JiM5OyYjOTtjMC44LDAsMS41LDAsMi4zLDBjMC43LDAsMS41LDAsMi4yLDBjMS45LDAsMy44LDAsNS42LDBjMCwwLDAsMCwwLjEsMGMwLjYsMCwxLjEtMC4xLDEuMy0wLjRjMC4zLTAuMywwLjQtMC43LDAuNC0xLjMmIzEwOyYjOTsmIzk7JiM5OyYjOTtjMC00LjcsMC05LjUsMC0xMy43YzAtMC42LTAuMS0xLTAuNC0xLjNjLTAuMy0wLjItMC43LTAuMy0xLjItMC4ybC0zLjksMC42Yy0zLjksMC42LTgsMS4yLTEyLDEuOGMtMS4yLDAuMi0xLjcsMC44LTEuNywyLjEmIzEwOyYjOTsmIzk7JiM5OyYjOTtDMzUuNywyOCwzNS43LDMxLjYsMzUuNywzNXogTTM3LDI1YzAtMSwwLjMtMS4zLDEuMy0xLjRjNC45LTAuNyw5LjgtMS40LDEzLjktMmMwLjIsMCwwLjMsMCwwLjQsMGMwLjMsMCwwLjUsMC4xLDAuNywwLjImIzEwOyYjOTsmIzk7JiM5OyYjOTtjMC4yLDAuMiwwLjMsMC42LDAuMywxLjJjMCw0LjEsMCw3LjgsMCwxMS4zYzAsMC41LTAuMSwwLjktMC4zLDEuMWMtMC4yLDAuMi0wLjYsMC4zLTEuMiwwLjNjLTEuNiwwLTMuMywwLTQuOSwwJiMxMDsmIzk7JiM5OyYjOTsmIzk7Yy0xLjMsMC0yLjcsMC00LDBjLTEuNiwwLTMuMiwwLTQuOCwwYy0wLjYsMC0wLjktMC4xLTEuMi0wLjNjLTAuMi0wLjItMC4zLTAuNi0wLjMtMS4xQzM3LDMxLjMsMzcsMjguMywzNywyNXoiIGNsYXNzPSJzdDAiLz4mI3hhOwkJPC9nPiYjeGE7CTwvZz4mI3hhOzwvZz4mI3hhOzwvc3ZnPg==;" parent="urCsp88US3Rvxd7nxDVZ-52" vertex="1">
          <mxGeometry x="406.4900000000001" y="1311" width="75" height="75" as="geometry" />
        </mxCell>
        <mxCell id="PnuRqYjMk-wBqvXui7f1-84" value="" style="shape=image;verticalLabelPosition=bottom;labelBackgroundColor=default;verticalAlign=top;aspect=fixed;imageAspect=0;image=data:image/svg+xml,PHN2ZyB4bWxucz0iaHR0cDovL3d3dy53My5vcmcvMjAwMC9zdmciIHZpZXdCb3g9IjAgMCA3NSA3NSIgZGF0YS1uYW1lPSJMYXllciAxIiBpZD0iYmMzMmZiYTAtNmY5NS00OTU2LWI2NGEtMzU0MDZmYzgxMDQxIj4mI3hhOyAgICA8ZGVmcz4mI3hhOyAgICAgICAgPHN0eWxlPiYjeGE7ICAgICAgICAgICAgLmFmODQzMThkLTUxZjctNDJjOS1hNjdiLWFjY2Q1ZDdmMGNiNntmaWxsOiMwMDA7fS5hMWVkMzIwMi0xYzAzLTQ0NmQtYTI0Yi1jNDU3ZGM4MGEzYTd7ZmlsbDojMDAwO308L3N0eWxlPiYjeGE7ICAgIDwvZGVmcz4mI3hhOyAgICA8cGF0aCBkPSJNNDAuMjEsNDAuMjZhOC45MSw4LjkxLDAsMSwwLTUuNDIsMEExNSwxNSwwLDAsMCwyMi41Miw1NXYuNzVoMzBWNTVBMTUsMTUsMCwwLDAsNDAuMjEsNDAuMjZaTTMwLjA5LDMxLjc4YTcuNDEsNy40MSwwLDEsMSw3LjQxLDcuNDFBNy40Miw3LjQyLDAsMCwxLDMwLjA5LDMxLjc4Wk0yNCw1NC4yNGExMy40OCwxMy40OCwwLDAsMSwyNi45MiwwWiIgY2xhc3M9ImFmODQzMThkLTUxZjctNDJjOS1hNjdiLWFjY2Q1ZDdmMGNiNiIvPiYjeGE7ICAgIDxwYXRoIGQ9Ik0xOC4xMSwzNy45YTEzLjM2LDEzLjM2LDAsMCwxLDkuNTMsNGwxLjA2LTEuMDZhMTQuODMsMTQuODMsMCwwLDAtNy44Ny00LjE0LDguOSw4LjksMCwxLDAtNS40MywwQTE1LDE1LDAsMCwwLDMuMTMsNTEuMzh2Ljc1SDIxdi0xLjVINC42NUExMy40OSwxMy40OSwwLDAsMSwxOC4xMSwzNy45Wk0xMC43LDI4LjE3YTcuNDEsNy40MSwwLDEsMSw3LjQxLDcuNDFBNy40Myw3LjQzLDAsMCwxLDEwLjcsMjguMTdaIiBjbGFzcz0iYTFlZDMyMDItMWMwMy00NDZkLWEyNGItYzQ1N2RjODBhM2E3Ii8+JiN4YTsgICAgPHBhdGggZD0iTTU5LjYsMzYuNjZhOC45Miw4LjkyLDAsMSwwLTUuNDMsMCwxNC44MywxNC44MywwLDAsMC03Ljg3LDQuMTRsMS4wNiwxLjA2YTEzLjQ4LDEzLjQ4LDAsMCwxLDIzLDguNzhINTR2MS41SDcxLjg3di0uNzVBMTUsMTUsMCwwLDAsNTkuNiwzNi42NlpNNDkuNDgsMjguMTdhNy40MSw3LjQxLDAsMSwxLDcuNDEsNy40MUE3LjQzLDcuNDMsMCwwLDEsNDkuNDgsMjguMTdaIiBjbGFzcz0iYTFlZDMyMDItMWMwMy00NDZkLWEyNGItYzQ1N2RjODBhM2E3Ii8+JiN4YTs8L3N2Zz4=;" parent="urCsp88US3Rvxd7nxDVZ-52" vertex="1">
          <mxGeometry x="5" y="1200.76" width="75" height="75" as="geometry" />
        </mxCell>
        <mxCell id="PnuRqYjMk-wBqvXui7f1-85" value="Desktop" style="shape=image;verticalLabelPosition=bottom;labelBackgroundColor=default;verticalAlign=top;aspect=fixed;imageAspect=0;image=data:image/svg+xml,PHN2ZyB4bWxucz0iaHR0cDovL3d3dy53My5vcmcvMjAwMC9zdmciIHdpZHRoPSI1MTIiIHZpZXdCb3g9IjAgMCAyNCAyNCIgaGVpZ2h0PSI1MTIiIGZpbGw9Im5vbmUiPjxwYXRoIGZpbGwtcnVsZT0iZXZlbm9kZCIgZmlsbD0icmdiKDAsMCwwKSIgZD0ibTEuMjUgNmMwLTEuNTE4NzggMS4yMzEyMi0yLjc1IDIuNzUtMi43NWgxNmMxLjUxODggMCAyLjc1IDEuMjMxMjIgMi43NSAyLjc1djEwYzAgMS41MTg4LTEuMjMxMiAyLjc1LTIuNzUgMi43NWgtNS43ODY1bC43NSAxLjVoMi4wMzY1Yy40MTQyIDAgLjc1LjMzNTguNzUuNzVzLS4zMzU4Ljc1LS43NS43NWgtMTBjLS40MTQyMSAwLS43NS0uMzM1OC0uNzUtLjc1cy4zMzU3OS0uNzUuNzUtLjc1aDIuMDM2NDdsLjc1LTEuNWgtNS43ODY0N2MtMS41MTg3OCAwLTIuNzUtMS4yMzEyLTIuNzUtMi43NXptMTguNzUgMTEuMjVoLTE2Yy0uNjkwMzYgMC0xLjI1LS41NTk2LTEuMjUtMS4yNXYtMTBjMC0uNjkwMzYuNTU5NjQtMS4yNSAxLjI1LTEuMjVoMTZjLjY5MDQgMCAxLjI1LjU1OTY0IDEuMjUgMS4yNXYxMGMwIC42OTA0LS41NTk2IDEuMjUtMS4yNSAxLjI1eiIgY2xpcC1ydWxlPSJldmVub2RkIi8+PC9zdmc+;fontStyle=1;fontSize=20;" parent="urCsp88US3Rvxd7nxDVZ-52" vertex="1">
          <mxGeometry x="-50.870000000000005" y="1275.76" width="70" height="70" as="geometry" />
        </mxCell>
        <mxCell id="xsCPCYvkKm-rd6Kjv4GH-4" value="" style="endArrow=none;html=1;rounded=0;exitX=0.003;exitY=0.227;exitDx=0;exitDy=0;exitPerimeter=0;strokeColor=#38112D;strokeWidth=3;" parent="urCsp88US3Rvxd7nxDVZ-52" edge="1">
          <mxGeometry width="50" height="50" relative="1" as="geometry">
            <mxPoint x="-395.01497000000035" y="1834.9877499999998" as="sourcePoint" />
            <mxPoint x="740" y="1830" as="targetPoint" />
          </mxGeometry>
        </mxCell>
        <mxCell id="xsCPCYvkKm-rd6Kjv4GH-5" value="" style="endArrow=none;html=1;rounded=0;exitX=0.003;exitY=0.227;exitDx=0;exitDy=0;exitPerimeter=0;strokeColor=#38112D;strokeWidth=3;entryX=1;entryY=0.318;entryDx=0;entryDy=0;entryPerimeter=0;" parent="urCsp88US3Rvxd7nxDVZ-52" target="xsCPCYvkKm-rd6Kjv4GH-3" edge="1">
          <mxGeometry width="50" height="50" relative="1" as="geometry">
            <mxPoint x="-395.01497000000035" y="2016.49775" as="sourcePoint" />
            <mxPoint x="707.78" y="2011.75" as="targetPoint" />
          </mxGeometry>
        </mxCell>
        <mxCell id="xsCPCYvkKm-rd6Kjv4GH-18" value="" style="endArrow=none;html=1;rounded=0;exitX=0.003;exitY=0.227;exitDx=0;exitDy=0;exitPerimeter=0;strokeColor=#38112D;strokeWidth=3;entryX=0.998;entryY=0.842;entryDx=0;entryDy=0;entryPerimeter=0;" parent="urCsp88US3Rvxd7nxDVZ-52" target="xsCPCYvkKm-rd6Kjv4GH-3" edge="1">
          <mxGeometry width="50" height="50" relative="1" as="geometry">
            <mxPoint x="-395.01497000000035" y="2657.74775" as="sourcePoint" />
            <mxPoint x="707.78" y="2653" as="targetPoint" />
          </mxGeometry>
        </mxCell>
        <mxCell id="xsCPCYvkKm-rd6Kjv4GH-19" value="&lt;font style=&quot;font-size: 20px;&quot;&gt;Connectivity&lt;/font&gt;" style="text;strokeColor=none;fillColor=none;html=1;fontSize=24;fontStyle=1;verticalAlign=middle;align=right;" parent="urCsp88US3Rvxd7nxDVZ-52" vertex="1">
          <mxGeometry x="630" y="2670" width="67" height="22.62" as="geometry" />
        </mxCell>
        <mxCell id="xsCPCYvkKm-rd6Kjv4GH-22" value="&lt;font style=&quot;font-size: 20px;&quot;&gt;Frontend Dev&lt;/font&gt;" style="text;strokeColor=none;fillColor=none;html=1;fontSize=24;fontStyle=1;verticalAlign=middle;align=right;" parent="urCsp88US3Rvxd7nxDVZ-52" vertex="1">
          <mxGeometry x="630" y="2233.75" width="67" height="22.62" as="geometry" />
        </mxCell>
        <mxCell id="xsCPCYvkKm-rd6Kjv4GH-25" value="" style="endArrow=none;html=1;rounded=0;exitX=0.003;exitY=0.227;exitDx=0;exitDy=0;exitPerimeter=0;strokeColor=#38112D;strokeWidth=3;entryX=0.999;entryY=0.676;entryDx=0;entryDy=0;entryPerimeter=0;" parent="urCsp88US3Rvxd7nxDVZ-52" target="xsCPCYvkKm-rd6Kjv4GH-3" edge="1">
          <mxGeometry width="50" height="50" relative="1" as="geometry">
            <mxPoint x="-396.7849700000003" y="2454.74775" as="sourcePoint" />
            <mxPoint x="710" y="2450" as="targetPoint" />
          </mxGeometry>
        </mxCell>
        <mxCell id="xsCPCYvkKm-rd6Kjv4GH-26" value="" style="endArrow=none;html=1;rounded=0;exitX=0.003;exitY=0.227;exitDx=0;exitDy=0;exitPerimeter=0;strokeColor=#38112D;strokeWidth=3;entryX=0.997;entryY=0.486;entryDx=0;entryDy=0;entryPerimeter=0;" parent="urCsp88US3Rvxd7nxDVZ-52" target="xsCPCYvkKm-rd6Kjv4GH-3" edge="1">
          <mxGeometry width="50" height="50" relative="1" as="geometry">
            <mxPoint x="-396.7849700000003" y="2221.12775" as="sourcePoint" />
            <mxPoint x="710" y="2216" as="targetPoint" />
          </mxGeometry>
        </mxCell>
        <mxCell id="xsCPCYvkKm-rd6Kjv4GH-27" value="&lt;span style=&quot;font-size: 20px;&quot;&gt;Runtime&lt;/span&gt;" style="text;strokeColor=none;fillColor=none;html=1;fontSize=24;fontStyle=1;verticalAlign=middle;align=right;" parent="urCsp88US3Rvxd7nxDVZ-52" vertex="1">
          <mxGeometry x="630" y="2025.5" width="67" height="22.62" as="geometry" />
        </mxCell>
        <mxCell id="0hETNHY3sNTcF9YFYVwX-44" style="edgeStyle=orthogonalEdgeStyle;rounded=0;orthogonalLoop=1;jettySize=auto;html=1;exitX=1;exitY=0.5;exitDx=0;exitDy=0;" parent="urCsp88US3Rvxd7nxDVZ-52" source="iBRr24rVuucf6CacbPqA-4" target="0hETNHY3sNTcF9YFYVwX-42" edge="1">
          <mxGeometry relative="1" as="geometry">
            <mxPoint x="174" y="2109" as="sourcePoint" />
          </mxGeometry>
        </mxCell>
        <mxCell id="xsCPCYvkKm-rd6Kjv4GH-39" value="" style="shape=curlyBracket;whiteSpace=wrap;html=1;rounded=1;labelPosition=left;verticalLabelPosition=middle;align=right;verticalAlign=middle;rotation=90;" parent="urCsp88US3Rvxd7nxDVZ-52" vertex="1">
          <mxGeometry x="365.72" y="1238.75" width="20" height="135" as="geometry" />
        </mxCell>
        <mxCell id="xsCPCYvkKm-rd6Kjv4GH-41" value="Neptune DXP - Open Edition as&amp;nbsp;&lt;div&gt;central development instance&lt;/div&gt;" style="text;strokeColor=none;fillColor=none;html=1;fontSize=20;fontStyle=1;verticalAlign=middle;align=center;" parent="urCsp88US3Rvxd7nxDVZ-52" vertex="1">
          <mxGeometry x="570" y="2860" width="100" height="40" as="geometry" />
        </mxCell>
        <mxCell id="xsCPCYvkKm-rd6Kjv4GH-68" value="" style="edgeStyle=entityRelationEdgeStyle;fontSize=12;html=1;endArrow=none;endFill=0;startArrow=blockThin;rounded=0;startFill=1;" parent="urCsp88US3Rvxd7nxDVZ-52" edge="1">
          <mxGeometry width="60" height="60" relative="1" as="geometry">
            <mxPoint x="112.63" y="2746.5" as="sourcePoint" />
            <mxPoint x="180" y="2747" as="targetPoint" />
            <Array as="points">
              <mxPoint x="142.63" y="2752.5" />
              <mxPoint x="97" y="2747" />
            </Array>
          </mxGeometry>
        </mxCell>
        <mxCell id="0hETNHY3sNTcF9YFYVwX-3" value="" style="fontSize=12;html=1;endArrow=classic;endFill=1;startArrow=blockThin;rounded=0;startFill=1;entryX=0.5;entryY=0;entryDx=0;entryDy=0;exitX=0.49;exitY=1.108;exitDx=0;exitDy=0;exitPerimeter=0;" parent="urCsp88US3Rvxd7nxDVZ-52" target="PnuRqYjMk-wBqvXui7f1-35" edge="1">
          <mxGeometry width="60" height="60" relative="1" as="geometry">
            <mxPoint x="64" y="2393.99" as="sourcePoint" />
            <mxPoint x="100.47999999999999" y="2570" as="targetPoint" />
            <Array as="points">
              <mxPoint x="64" y="2550" />
            </Array>
          </mxGeometry>
        </mxCell>
        <mxCell id="0hETNHY3sNTcF9YFYVwX-48" style="edgeStyle=orthogonalEdgeStyle;rounded=0;orthogonalLoop=1;jettySize=auto;html=1;entryX=0;entryY=0.5;entryDx=0;entryDy=0;" parent="urCsp88US3Rvxd7nxDVZ-52" source="0hETNHY3sNTcF9YFYVwX-34" target="PnuRqYjMk-wBqvXui7f1-24" edge="1">
          <mxGeometry relative="1" as="geometry" />
        </mxCell>
        <mxCell id="0hETNHY3sNTcF9YFYVwX-34" value="Tilegroup" style="shape=image;verticalLabelPosition=bottom;labelBackgroundColor=none;verticalAlign=top;aspect=fixed;imageAspect=0;image=data:image/svg+xml,PHN2ZyB4bWxucz0iaHR0cDovL3d3dy53My5vcmcvMjAwMC9zdmciIHZpZXdCb3g9IjAgMCAyNTYgMjU2IiBoZWlnaHQ9IjI1NiIgd2lkdGg9IjI1NiIgaWQ9InRpbGVncm91cCI+JiN4YTsgIDxnIGlkPSJleHBvcnQiPiYjeGE7ICAgIDxwYXRoIHN0eWxlPSJmaWxsOiAjMDAwOyBzdHJva2Utd2lkdGg6IDBweDsiIGQ9Ik05MiwwSDIwQzguOTcsMCwwLDguOTcsMCwyMHY3MmMwLDExLjAzLDguOTcsMjAsMjAsMjBoNzJjMTEuMDMsMCwyMC04Ljk3LDIwLTIwVjIwYzAtMTEuMDMtOC45Ny0yMC0yMC0yMFpNOTYsOTJjMCwyLjIxLTEuNzksNC00LDRIMjBjLTIuMjEsMC00LTEuNzktNC00VjIwYzAtMi4yMSwxLjc5LTQsNC00aDcyYzIuMjEsMCw0LDEuNzksNCw0djcyWiIvPiYjeGE7ICAgIDxwYXRoIHN0eWxlPSJmaWxsOiAjMDAwOyBzdHJva2Utd2lkdGg6IDBweDsiIGQ9Ik03MiwzMmgtMzJjLTQuNDIsMC04LDMuNTgtOCw4czMuNTgsOCw4LDhoMzJjNC40MiwwLDgtMy41OCw4LThzLTMuNTgtOC04LThaIi8+JiN4YTsgICAgPHBhdGggc3R5bGU9ImZpbGw6ICMwMDA7IHN0cm9rZS13aWR0aDogMHB4OyIgZD0iTTcyLDY0aC0zMmMtNC40MiwwLTgsMy41OC04LDhzMy41OCw4LDgsOGgzMmM0LjQyLDAsOC0zLjU4LDgtOHMtMy41OC04LTgtOFoiLz4mI3hhOyAgICA8cGF0aCBzdHlsZT0iZmlsbDogIzAwMDsgc3Ryb2tlLXdpZHRoOiAwcHg7IiBkPSJNMjM2LDE0NGgtNzJjLTExLjAzLDAtMjAsOC45Ny0yMCwyMHY3MmMwLDExLjAzLDguOTcsMjAsMjAsMjBoNzJjMTEuMDMsMCwyMC04Ljk3LDIwLTIwdi03MmMwLTExLjAzLTguOTctMjAtMjAtMjBaTTI0MCwyMzZjMCwyLjIxLTEuNzksNC00LDRoLTcyYy0yLjIxLDAtNC0xLjc5LTQtNHYtNzJjMC0yLjIxLDEuNzktNCw0LTRoNzJjMi4yMSwwLDQsMS43OSw0LDR2NzJaIi8+JiN4YTsgICAgPHBhdGggc3R5bGU9ImZpbGw6ICMwMDA7IHN0cm9rZS13aWR0aDogMHB4OyIgZD0iTTIxNiwxNzZoLTMyYy00LjQyLDAtOCwzLjU4LTgsOHMzLjU4LDgsOCw4aDMyYzQuNDIsMCw4LTMuNTgsOC04cy0zLjU4LTgtOC04WiIvPiYjeGE7ICAgIDxwYXRoIHN0eWxlPSJmaWxsOiAjMDAwOyBzdHJva2Utd2lkdGg6IDBweDsiIGQ9Ik0yMTYsMjA4aC0zMmMtNC40MiwwLTgsMy41OC04LDhzMy41OCw4LDgsOGgzMmM0LjQyLDAsOC0zLjU4LDgtOHMtMy41OC04LTgtOFoiLz4mI3hhOyAgICA8cGF0aCBzdHlsZT0iZmlsbDogIzAwMDsgc3Ryb2tlLXdpZHRoOiAwcHg7IiBkPSJNMjM2LDBoLTcyYy0xMS4wMywwLTIwLDguOTctMjAsMjB2NzJjMCwxMS4wMyw4Ljk3LDIwLDIwLDIwaDcyYzExLjAzLDAsMjAtOC45NywyMC0yMFYyMGMwLTExLjAzLTguOTctMjAtMjAtMjBaTTI0MCw5MmMwLDIuMjEtMS43OSw0LTQsNGgtNzJjLTIuMjEsMC00LTEuNzktNC00VjIwYzAtMi4yMSwxLjc5LTQsNC00aDcyYzIuMjEsMCw0LDEuNzksNCw0djcyWiIvPiYjeGE7ICAgIDxwYXRoIHN0eWxlPSJmaWxsOiAjMDAwOyBzdHJva2Utd2lkdGg6IDBweDsiIGQ9Ik05MiwxNDRIMjBjLTExLjAzLDAtMjAsOC45Ny0yMCwyMHY3MmMwLDExLjAzLDguOTcsMjAsMjAsMjBoNzJjMTEuMDMsMCwyMC04Ljk3LDIwLTIwdi03MmMwLTExLjAzLTguOTctMjAtMjAtMjBaTTk2LDIzNmMwLDIuMjEtMS43OSw0LTQsNEgyMGMtMi4yMSwwLTQtMS43OS00LTR2LTcyYzAtMi4yMSwxLjc5LTQsNC00aDcyYzIuMjEsMCw0LDEuNzksNCw0djcyWiIvPiYjeGE7ICAgIDxwYXRoIHN0eWxlPSJmaWxsOiAjMDAwOyBzdHJva2Utd2lkdGg6IDBweDsiIGQ9Ik0yMDAsMzJjLTEzLjIzLDAtMjQsMTAuNzctMjQsMjRzMTAuNzcsMjQsMjQsMjQsMjQtMTAuNzcsMjQtMjQtMTAuNzctMjQtMjQtMjRaTTIwMCw2NGMtNC40MSwwLTgtMy41OS04LThzMy41OS04LDgtOCw4LDMuNTksOCw4LTMuNTksOC04LDhaIi8+JiN4YTsgICAgPHBhdGggc3R5bGU9ImZpbGw6ICMwMDA7IHN0cm9rZS13aWR0aDogMHB4OyIgZD0iTTU2LDE3NmMtMTMuMjMsMC0yNCwxMC43Ny0yNCwyNHMxMC43NywyNCwyNCwyNCwyNC0xMC43NywyNC0yNC0xMC43Ny0yNC0yNC0yNFpNNTYsMjA4Yy00LjQxLDAtOC0zLjU5LTgtOHMzLjU5LTgsOC04LDgsMy41OSw4LDgtMy41OSw4LTgsOFoiLz4mI3hhOyAgPC9nPiYjeGE7PC9zdmc+;fontStyle=1;fontSize=20;" parent="urCsp88US3Rvxd7nxDVZ-52" vertex="1">
          <mxGeometry x="-145" y="1675.32" width="70" height="70" as="geometry" />
        </mxCell>
        <mxCell id="0hETNHY3sNTcF9YFYVwX-47" style="edgeStyle=orthogonalEdgeStyle;rounded=0;orthogonalLoop=1;jettySize=auto;html=1;entryX=0;entryY=0.5;entryDx=0;entryDy=0;" parent="urCsp88US3Rvxd7nxDVZ-52" source="0hETNHY3sNTcF9YFYVwX-36" target="0hETNHY3sNTcF9YFYVwX-34" edge="1">
          <mxGeometry relative="1" as="geometry" />
        </mxCell>
        <mxCell id="0hETNHY3sNTcF9YFYVwX-36" value="Tile" style="shape=image;verticalLabelPosition=bottom;labelBackgroundColor=none;verticalAlign=top;aspect=fixed;imageAspect=0;image=data:image/svg+xml,PHN2ZyB4bWxucz0iaHR0cDovL3d3dy53My5vcmcvMjAwMC9zdmciIHZpZXdCb3g9IjAgMCAyNTYgMjU2IiBoZWlnaHQ9IjI1NiIgd2lkdGg9IjI1NiIgaWQ9InRpbGUiPiYjeGE7ICA8ZyBpZD0iZXhwb3J0Ij4mI3hhOyAgICA8cGF0aCBzdHlsZT0iZmlsbDogIzAwMDsgc3Ryb2tlLXdpZHRoOiAwcHg7IiBkPSJNMjMyLDE2SDI0QzEwLjc3LDE2LDAsMjYuNzcsMCw0MHYxNjBjMCwxMy4yMywxMC43NywyNCwyNCwyNGgyMDhjMTMuMjMsMCwyNC0xMC43NywyNC0yNFY0MGMwLTEzLjIzLTEwLjc3LTI0LTI0LTI0Wk0yNDAsMjAwYzAsNC40MS0zLjU5LDgtOCw4SDI0Yy00LjQxLDAtOC0zLjU5LTgtOFY0MGMwLTQuNDEsMy41OS04LDgtOGgyMDhjNC40MSwwLDgsMy41OSw4LDh2MTYwWiIvPiYjeGE7ICAgIDxwYXRoIHN0eWxlPSJmaWxsOiAjMDAwOyBzdHJva2Utd2lkdGg6IDBweDsiIGQ9Ik03MiwxNjBoLTE2Yy00LjQyLDAtOCwzLjU4LTgsOHMzLjU4LDgsOCw4aDE2YzQuNDIsMCw4LTMuNTgsOC04cy0zLjU4LTgtOC04WiIvPiYjeGE7ICAgIDxwYXRoIHN0eWxlPSJmaWxsOiAjMDAwOyBzdHJva2Utd2lkdGg6IDBweDsiIGQ9Ik0xMDQsNjRoLTQ4Yy00LjQyLDAtOCwzLjU4LTgsOHMzLjU4LDgsOCw4aDQ4YzQuNDIsMCw4LTMuNTgsOC04cy0zLjU4LTgtOC04WiIvPiYjeGE7ICAgIDxwYXRoIHN0eWxlPSJmaWxsOiAjMDAwOyBzdHJva2Utd2lkdGg6IDBweDsiIGQ9Ik0xMDQsMTEyaC00OGMtNC40MiwwLTgsMy41OC04LDhzMy41OCw4LDgsOGg0OGM0LjQyLDAsOC0zLjU4LDgtOHMtMy41OC04LTgtOFoiLz4mI3hhOyAgICA8cGF0aCBzdHlsZT0iZmlsbDogIzAwMDsgc3Ryb2tlLXdpZHRoOiAwcHg7IiBkPSJNMTg4LDY0aC0yNGMtMTEuMDMsMC0yMCw4Ljk3LTIwLDIwdjcyYzAsMTEuMDMsOC45NywyMCwyMCwyMGgyNGMxMS4wMywwLDIwLTguOTcsMjAtMjB2LTcyYzAtMTEuMDMtOC45Ny0yMC0yMC0yMFpNMTkyLDE1NmMwLDIuMjEtMS43OSw0LTQsNGgtMjRjLTIuMjEsMC00LTEuNzktNC00di03MmMwLTIuMjEsMS43OS00LDQtNGgyNGMyLjIxLDAsNCwxLjc5LDQsNHY3MloiLz4mI3hhOyAgPC9nPiYjeGE7PC9zdmc+;fontStyle=1;fontSize=20;" parent="urCsp88US3Rvxd7nxDVZ-52" vertex="1">
          <mxGeometry x="-310" y="1675.32" width="70" height="70" as="geometry" />
        </mxCell>
        <mxCell id="0hETNHY3sNTcF9YFYVwX-42" value="Script Editor" style="shape=image;verticalLabelPosition=bottom;labelBackgroundColor=none;verticalAlign=top;aspect=fixed;imageAspect=0;image=data:image/svg+xml,PHN2ZyB4bWxucz0iaHR0cDovL3d3dy53My5vcmcvMjAwMC9zdmciIHZpZXdCb3g9IjAgMCAyNTYgMjU2IiBoZWlnaHQ9IjI1NiIgd2lkdGg9IjI1NiIgaWQ9InNjcmlwdC1lZGl0b3IiPiYjeGE7ICA8cGF0aCBzdHlsZT0iZmlsbDogIzAwMDsgc3Ryb2tlLXdpZHRoOiAwcHg7IiBkPSJNMTYzLjU1LDEwMy4yNGwxMS42Ny0yMi40Ni0yMi40NiwxMS42N2MtMTMuNzcsNy4xNi0yOC4zOSwxMi42NC00My40NSwxNi4yOS0xNC4yLDMuNDUtMjguODIsNS4yOC00My40NSw1LjQzbC03LjE5LjA4LS42OSw3LjE2Yy0uODcsOS4wNy0yLjY2LDE4LjA1LTUuMzQsMjYuNjgtMS4yNCw0LTIuNjksNy45OS00LjMsMTEuODZsLS4yMy41Ni0uMTUuNThjLS42NywyLjY3LS42Myw1LjQ5LjEsOC4xNS43NCwyLjY2LDIuMTUsNS4wOSw0LjExLDcuMDRsMjcuNTMsMjcuNTNjMy4wMywzLjAzLDcuMTUsNC42OCwxMS4zNSw0LjY4LDEuMjgsMCwyLjU4LS4xNiwzLjg0LS40N2wuNTgtLjE1LjU2LS4yM2MzLjg3LTEuNjIsNy44Ni0zLjA2LDExLjg2LTQuMyw4LjYzLTIuNjcsMTcuNjEtNC40NywyNi42OC01LjM0bDcuMTYtLjY5LjA4LTcuMTljLjE2LTE0LjYzLDEuOTgtMjkuMjUsNS40My00My40NSwzLjY2LTE1LjA3LDkuMTQtMjkuNjksMTYuMjktNDMuNDVaTTEyNi4wMiwxODIuOTRjLTcuNzUsMS4xMi0xNS40MSwyLjgzLTIyLjg0LDUuMTMtNC4xMSwxLjI3LTguMjIsMi43NC0xMi4yMiw0LjM3bC0yNy40LTI3LjRjMS42My00LDMuMS04LjEsNC4zNy0xMi4yMiwyLjMtNy40Myw0LjAyLTE1LjA5LDUuMTMtMjIuODQsMTMuNDktLjYsMjYuOTItMi41MSw0MC4wMi01LjY5LDMuMzYtLjgyLDYuNjktMS43MiwxMC4wMS0yLjdsLTI4Ljg2LDI4Ljg2Yy0zLjEyLDMuMTItMy4xMiw4LjE5LDAsMTEuMzEsMS41NiwxLjU2LDMuNjEsMi4zNCw1LjY2LDIuMzRzNC4wOS0uNzgsNS42Ni0yLjM0bDI4Ljg2LTI4Ljg2Yy0uOTgsMy4zMS0xLjg4LDYuNjUtMi43LDEwLTMuMTgsMTMuMTEtNS4wOSwyNi41NC01LjY5LDQwLjAyWiIvPiYjeGE7ICA8cGF0aCBzdHlsZT0iZmlsbDogIzAwMDsgc3Ryb2tlLXdpZHRoOiAwcHg7IiBkPSJNMzcuNjYsMTg0LjRjLTMuMTItMy4xMi04LjE5LTMuMTItMTEuMzEsMC0zLjEyLDMuMTItMy4xMiw4LjE5LDAsMTEuMzFsMzMuOTQsMzMuOTRjMS41NiwxLjU2LDMuNjEsMi4zNCw1LjY2LDIuMzRzNC4wOS0uNzgsNS42Ni0yLjM0YzMuMTItMy4xMiwzLjEyLTguMTksMC0xMS4zMWwtMzMuOTQtMzMuOTRaIi8+JiN4YTsgIDxwYXRoIHN0eWxlPSJmaWxsOiAjMDAwOyBzdHJva2Utd2lkdGg6IDBweDsiIGQ9Ik0yNTQuOTMsMTIzLjkybC02MC0xMDMuOTJjLTEuNDMtMi40OC00LjA3LTQtNi45My00aC0xMjBjLTIuODYsMC01LjUsMS41Mi02LjkzLDRMMS4wNywxMjMuOTJjLTIuMjEsMy44My0uOSw4LjcyLDIuOTMsMTAuOTMsMy44MiwyLjIxLDguNzIuOSwxMC45My0yLjkzbDU3LjY5LTk5LjkyaDExMC43Nmw1NS4zOCw5NS45Mi01NS4zOCw5NS45MmgtMzEuMzhjLTQuNDIsMC04LDMuNTgtOCw4czMuNTgsOCw4LDhoMzZjMi44NiwwLDUuNS0xLjUyLDYuOTMtNGw2MC0xMDMuOTJjMS40My0yLjQ4LDEuNDMtNS41MiwwLThaIi8+JiN4YTs8L3N2Zz4=;fontStyle=1;fontSize=20;" parent="urCsp88US3Rvxd7nxDVZ-52" vertex="1">
          <mxGeometry x="408.99" y="2520" width="70" height="70" as="geometry" />
        </mxCell>
        <mxCell id="0hETNHY3sNTcF9YFYVwX-46" style="edgeStyle=orthogonalEdgeStyle;rounded=0;orthogonalLoop=1;jettySize=auto;html=1;entryX=0.45;entryY=0.956;entryDx=0;entryDy=0;entryPerimeter=0;exitX=0;exitY=0.5;exitDx=0;exitDy=0;" parent="urCsp88US3Rvxd7nxDVZ-52" source="iBRr24rVuucf6CacbPqA-4" edge="1">
          <mxGeometry relative="1" as="geometry">
            <mxPoint x="-276.99999999999955" y="1773.6799999999998" as="targetPoint" />
            <mxPoint x="-36" y="2109" as="sourcePoint" />
          </mxGeometry>
        </mxCell>
        <mxCell id="0hETNHY3sNTcF9YFYVwX-56" value="SAP Build Work Zone" style="shape=image;verticalLabelPosition=bottom;labelBackgroundColor=none;verticalAlign=top;aspect=fixed;imageAspect=0;image=data:image/svg+xml,PHN2ZyB4bWxucz0iaHR0cDovL3d3dy53My5vcmcvMjAwMC9zdmciIGZpbGw9Im5vbmUiIHZpZXdCb3g9IjAgMCAxNiAxNiIgaGVpZ2h0PSIxNiIgd2lkdGg9IjE2Ij4mI3hhOzxnIGNsaXAtcGF0aD0idXJsKCNjbGlwMF8zMTA2XzI3MTAxKSI+JiN4YTs8Y2lyY2xlIHN0cm9rZS13aWR0aD0iMC4yNzM4MDkiIHN0cm9rZT0iI0Q1REFERCIgZmlsbD0idXJsKCNwYWludDBfbGluZWFyXzMxMDZfMjcxMDEpIiByPSI3LjUyOTc0IiBjeT0iNy45OTk4OSIgY3g9IjcuOTk4OTIiLz4mI3hhOzxnIGNsaXAtcGF0aD0idXJsKCNjbGlwMV8zMTA2XzI3MTAxKSI+JiN4YTs8bWFzayBoZWlnaHQ9IjEzIiB3aWR0aD0iMTIiIHk9IjIiIHg9IjIiIG1hc2tVbml0cz0idXNlclNwYWNlT25Vc2UiIHN0eWxlPSJtYXNrLXR5cGU6YWxwaGEiIGlkPSJtYXNrMF8zMTA2XzI3MTAxIj4mI3hhOzxwYXRoIGZpbGw9ImJsYWNrIiBkPSJNOC40MjExOCAxMC43MzMzQzguNjQxMDYgMTEuMzUyNCA5LjI4Njc1IDExLjcwNDcgMTAuMDEwNSAxMS43MDQ3QzEwLjczNDIgMTEuNzA0NyAxMS4zNDY4IDExLjE3OTEgMTEuNTE5NyAxMC43MDdMMTIuODg3NyA2LjkzODQ5QzEzLjE2MDEgNi4xODgwNCAxMi43NzQyIDUuMzU4MjQgMTIuMDI1OCA1LjA4NTFDMTEuMzM3NCA0LjgzMzg5IDEwLjU4MjIgNS4xNDEgMTAuMjUzNCA1Ljc3NTcyQzEwLjIwMTEgNS44OTQwOSAxMC4xNDc1IDYuMDcyMTYgMTAuMjExNiA2LjI2MTc3TDEwLjg5OTYgOC4xNjUzMUMxMC45MzQxIDguMjYwNzUgMTAuODg5NSA4LjM2NjczIDEwLjc5NzIgOC40MDg0NUMxMC42ODMzIDguNDU5OTMgMTAuNTQ2OCA4LjM5MjYzIDEwLjUxNjggOC4yNzEwNkMxMC4yOTc0IDcuMzgyODcgOS41NjI3OCA2LjgxNjE3IDguNjU0NiA3LjE1MDYzQzcuNzQ2NDIgNy40ODUxIDcuNTU1MjEgOC4zNDc3MiA3LjgyNzYzIDkuMDk4MThMOC40MjExOCAxMC43MzMzWiIvPiYjeGE7PHBhdGggZmlsbD0iYmxhY2siIGQ9Ik0zLjQ3MjEzIDYuOTMyNDVDMy4xOTk3MiA2LjE4MTk5IDMuNTg1NjIgNS4zNTIyIDQuMzM0MDYgNS4wNzkwNkM1LjA4MjUxIDQuODA1OTEgNS45MTAwOCA1LjE5Mjg1IDYuMTgyNSA1Ljk0MzMxTDcuNTQ5NzQgOS43MDk4MkM3LjgyMjE1IDEwLjQ2MDMgNy40MzYyNiAxMS4yOTAxIDYuNjg3ODEgMTEuNTYzMkM1LjkzOTM2IDExLjgzNjQgNS4xMTE3OSAxMS40NDk0IDQuODM5MzcgMTAuNjk5TDMuNDcyMTMgNi45MzI0NVoiLz4mI3hhOzwvbWFzaz4mI3hhOzxnIG1hc2s9InVybCgjbWFzazBfMzEwNl8yNzEwMSkiPiYjeGE7PGcgZmlsdGVyPSJ1cmwoI2ZpbHRlcjBfZF8zMTA2XzI3MTAxKSI+JiN4YTs8cGF0aCBmaWxsPSJ1cmwoI3BhaW50MV9yYWRpYWxfMzEwNl8yNzEwMSkiIGQ9Ik02LjYzNDM0IDAuODcxOTU0QzguNjcyNDkgMC4yOTI4MzUgMTEuMDgyMyAxLjI5MTgzIDEyLjU1MTQgMy45Mzg4NEMxNi4zMzM1IDkuMDE5NDkgMTkuNzUzNyAxNC45MTk2IDExLjk2MDkgMTcuNjc2OEM0LjE2ODEzIDIwLjQzNCA0LjM1MDY3IDE0Ljc3ODIgMS43NTIyNSAxMC4wOTY0Qy0wLjg0NjE2NyA1LjQxNDU1IDQuNTk2MTkgMS40NTEwNyA2LjYzNDM0IDAuODcxOTU0WiIvPiYjeGE7PC9nPiYjeGE7PGcgZmlsdGVyPSJ1cmwoI2ZpbHRlcjFfZF8zMTA2XzI3MTAxKSI+JiN4YTs8cGF0aCBmaWxsPSJ1cmwoI3BhaW50Ml9yYWRpYWxfMzEwNl8yNzEwMSkiIGQ9Ik0xMi42NTQyIDEwLjI3OThDMTEuODQ2MiAxMi4wMTA3IDkuNTMyOTggMTQuMDk2MSA3Ljk2MzgxIDE0LjIzNTdDNC43NDYwMyAxNC45MzE0IC0wLjI2MjI1NSAxMS43NDczIDAuMTY2MTEgOS41ODQ4MUMwLjU5NDQ3NSA3LjQyMjM3IDQuNjY1NjUgNi4zNjU5OSA3LjQ1MjY5IDYuMzg5OTNDMTAuMjM5NyA2LjQxMzg4IDEzLjQ2MjEgOC41NDg5NSAxMi42NTQyIDEwLjI3OThaIi8+JiN4YTs8L2c+JiN4YTs8ZyBmaWx0ZXI9InVybCgjZmlsdGVyMl9kXzMxMDZfMjcxMDEpIj4mI3hhOzxwYXRoIGZpbGw9InVybCgjcGFpbnQzX3JhZGlhbF8zMTA2XzI3MTAxKSIgZD0iTTMuMzUzNjEgOC4zOTkzNkM2Ljk2MjAxIDcuNDQ1NTcgMTAuMTEwOSA3LjMwNjg2IDEwLjQ4NjcgMTAuNjg5NkMxMC43OTE3IDEzLjQzNDkgNi45NTY4IDE1LjY1NzggNC4yMTE0NyAxNS45NjI4QzEuNDY2MTQgMTYuMjY3OCAtMC4xMDIyOTYgOS4zMTI4NCAzLjM1MzYxIDguMzk5MzZaIi8+JiN4YTs8L2c+JiN4YTs8L2c+JiN4YTs8L2c+JiN4YTs8L2c+JiN4YTs8ZGVmcz4mI3hhOzxmaWx0ZXIgY29sb3ItaW50ZXJwb2xhdGlvbi1maWx0ZXJzPSJzUkdCIiBmaWx0ZXJVbml0cz0idXNlclNwYWNlT25Vc2UiIGhlaWdodD0iMTkuMDM1MiIgd2lkdGg9IjE2Ljk0MTQiIHk9IjAuMDg1MTI1NCIgeD0iMC42MTQ4MjkiIGlkPSJmaWx0ZXIwX2RfMzEwNl8yNzEwMSI+JiN4YTs8ZmVGbG9vZCByZXN1bHQ9IkJhY2tncm91bmRJbWFnZUZpeCIgZmxvb2Qtb3BhY2l0eT0iMCIvPiYjeGE7PGZlQ29sb3JNYXRyaXggcmVzdWx0PSJoYXJkQWxwaGEiIHZhbHVlcz0iMCAwIDAgMCAwIDAgMCAwIDAgMCAwIDAgMCAwIDAgMCAwIDAgMTI3IDAiIHR5cGU9Im1hdHJpeCIgaW49IlNvdXJjZUFscGhhIi8+JiN4YTs8ZmVPZmZzZXQgZHk9IjAuMDQ0ODQwNCIgZHg9IjAuMjI0MjAyIi8+JiN4YTs8ZmVHYXVzc2lhbkJsdXIgc3RkRGV2aWF0aW9uPSIwLjMzNjMwMyIvPiYjeGE7PGZlQ29tcG9zaXRlIG9wZXJhdG9yPSJvdXQiIGluMj0iaGFyZEFscGhhIi8+JiN4YTs8ZmVDb2xvck1hdHJpeCB2YWx1ZXM9IjAgMCAwIDAgMCAwIDAgMCAwIDAgMCAwIDAgMCAwIDAgMCAwIDAuNCAwIiB0eXBlPSJtYXRyaXgiLz4mI3hhOzxmZUJsZW5kIHJlc3VsdD0iZWZmZWN0MV9kcm9wU2hhZG93XzMxMDZfMjcxMDEiIGluMj0iQmFja2dyb3VuZEltYWdlRml4IiBtb2RlPSJub3JtYWwiLz4mI3hhOzxmZUJsZW5kIHJlc3VsdD0ic2hhcGUiIGluMj0iZWZmZWN0MV9kcm9wU2hhZG93XzMxMDZfMjcxMDEiIGluPSJTb3VyY2VHcmFwaGljIiBtb2RlPSJub3JtYWwiLz4mI3hhOzwvZmlsdGVyPiYjeGE7PGZpbHRlciBjb2xvci1pbnRlcnBvbGF0aW9uLWZpbHRlcnM9InNSR0IiIGZpbHRlclVuaXRzPSJ1c2VyU3BhY2VPblVzZSIgaGVpZ2h0PSI5LjI4ODU3IiB3aWR0aD0iMTMuOTg1MyIgeT0iNS43NjE4OCIgeD0iLTAuMzA4MDIzIiBpZD0iZmlsdGVyMV9kXzMxMDZfMjcxMDEiPiYjeGE7PGZlRmxvb2QgcmVzdWx0PSJCYWNrZ3JvdW5kSW1hZ2VGaXgiIGZsb29kLW9wYWNpdHk9IjAiLz4mI3hhOzxmZUNvbG9yTWF0cml4IHJlc3VsdD0iaGFyZEFscGhhIiB2YWx1ZXM9IjAgMCAwIDAgMCAwIDAgMCAwIDAgMCAwIDAgMCAwIDAgMCAwIDEyNyAwIiB0eXBlPSJtYXRyaXgiIGluPSJTb3VyY2VBbHBoYSIvPiYjeGE7PGZlT2Zmc2V0IGR5PSIwLjA0NDg0MDQiIGR4PSIwLjIyNDIwMiIvPiYjeGE7PGZlR2F1c3NpYW5CbHVyIHN0ZERldmlhdGlvbj0iMC4zMzYzMDMiLz4mI3hhOzxmZUNvbXBvc2l0ZSBvcGVyYXRvcj0ib3V0IiBpbjI9ImhhcmRBbHBoYSIvPiYjeGE7PGZlQ29sb3JNYXRyaXggdmFsdWVzPSIwIDAgMCAwIDAgMCAwIDAgMCAwIDAgMCAwIDAgMCAwIDAgMCAwLjQgMCIgdHlwZT0ibWF0cml4Ii8+JiN4YTs8ZmVCbGVuZCByZXN1bHQ9ImVmZmVjdDFfZHJvcFNoYWRvd18zMTA2XzI3MTAxIiBpbjI9IkJhY2tncm91bmRJbWFnZUZpeCIgbW9kZT0ibm9ybWFsIi8+JiN4YTs8ZmVCbGVuZCByZXN1bHQ9InNoYXBlIiBpbjI9ImVmZmVjdDFfZHJvcFNoYWRvd18zMTA2XzI3MTAxIiBpbj0iU291cmNlR3JhcGhpYyIgbW9kZT0ibm9ybWFsIi8+JiN4YTs8L2ZpbHRlcj4mI3hhOzxmaWx0ZXIgY29sb3ItaW50ZXJwb2xhdGlvbi1maWx0ZXJzPSJzUkdCIiBmaWx0ZXJVbml0cz0idXNlclNwYWNlT25Vc2UiIGhlaWdodD0iOS41MDUzNyIgd2lkdGg9IjEwLjQ3NzgiIHk9IjcuMTg0NDkiIHg9IjAuOTIyOTM0IiBpZD0iZmlsdGVyMl9kXzMxMDZfMjcxMDEiPiYjeGE7PGZlRmxvb2QgcmVzdWx0PSJCYWNrZ3JvdW5kSW1hZ2VGaXgiIGZsb29kLW9wYWNpdHk9IjAiLz4mI3hhOzxmZUNvbG9yTWF0cml4IHJlc3VsdD0iaGFyZEFscGhhIiB2YWx1ZXM9IjAgMCAwIDAgMCAwIDAgMCAwIDAgMCAwIDAgMCAwIDAgMCAwIDEyNyAwIiB0eXBlPSJtYXRyaXgiIGluPSJTb3VyY2VBbHBoYSIvPiYjeGE7PGZlT2Zmc2V0IGR5PSIwLjA0NDg0MDQiIGR4PSIwLjIyNDIwMiIvPiYjeGE7PGZlR2F1c3NpYW5CbHVyIHN0ZERldmlhdGlvbj0iMC4zMzYzMDMiLz4mI3hhOzxmZUNvbXBvc2l0ZSBvcGVyYXRvcj0ib3V0IiBpbjI9ImhhcmRBbHBoYSIvPiYjeGE7PGZlQ29sb3JNYXRyaXggdmFsdWVzPSIwIDAgMCAwIDAgMCAwIDAgMCAwIDAgMCAwIDAgMCAwIDAgMCAwLjQgMCIgdHlwZT0ibWF0cml4Ii8+JiN4YTs8ZmVCbGVuZCByZXN1bHQ9ImVmZmVjdDFfZHJvcFNoYWRvd18zMTA2XzI3MTAxIiBpbjI9IkJhY2tncm91bmRJbWFnZUZpeCIgbW9kZT0ibm9ybWFsIi8+JiN4YTs8ZmVCbGVuZCByZXN1bHQ9InNoYXBlIiBpbjI9ImVmZmVjdDFfZHJvcFNoYWRvd18zMTA2XzI3MTAxIiBpbj0iU291cmNlR3JhcGhpYyIgbW9kZT0ibm9ybWFsIi8+JiN4YTs8L2ZpbHRlcj4mI3hhOzxsaW5lYXJHcmFkaWVudCBncmFkaWVudFVuaXRzPSJ1c2VyU3BhY2VPblVzZSIgeTI9IjE0LjQ2NjgiIHgyPSIxMy40NTAxIiB5MT0iMi41MDk1NyIgeDE9IjEuNzIyNzciIGlkPSJwYWludDBfbGluZWFyXzMxMDZfMjcxMDEiPiYjeGE7PHN0b3Agc3RvcC1jb2xvcj0id2hpdGUiLz4mI3hhOzxzdG9wIHN0b3AtY29sb3I9IiNFQUVDRUUiIG9mZnNldD0iMSIvPiYjeGE7PC9saW5lYXJHcmFkaWVudD4mI3hhOzxyYWRpYWxHcmFkaWVudCBncmFkaWVudFRyYW5zZm9ybT0idHJhbnNsYXRlKDcuMTQyMiAxMC41MTEzKSByb3RhdGUoLTc1LjY1MTMpIHNjYWxlKDE1Ljk3MDUgMTUuNzQ5OCkiIGdyYWRpZW50VW5pdHM9InVzZXJTcGFjZU9uVXNlIiByPSIxIiBjeT0iMCIgY3g9IjAiIGlkPSJwYWludDFfcmFkaWFsXzMxMDZfMjcxMDEiPiYjeGE7PHN0b3Agc3RvcC1jb2xvcj0iIzEzNDhGRiIvPiYjeGE7PHN0b3Agc3RvcC1jb2xvcj0iIzA2MjM4RCIgb2Zmc2V0PSIxIi8+JiN4YTs8L3JhZGlhbEdyYWRpZW50PiYjeGE7PHJhZGlhbEdyYWRpZW50IGdyYWRpZW50VHJhbnNmb3JtPSJ0cmFuc2xhdGUoMy4xOTI5OSA3LjMwMjE1KSByb3RhdGUoMzEuOTgpIHNjYWxlKDE1LjI2ODUgMjcuNTc2KSIgZ3JhZGllbnRVbml0cz0idXNlclNwYWNlT25Vc2UiIHI9IjEiIGN5PSIwIiBjeD0iMCIgaWQ9InBhaW50Ml9yYWRpYWxfMzEwNl8yNzEwMSI+JiN4YTs8c3RvcCBzdG9wLWNvbG9yPSIjMDE5NUZGIi8+JiN4YTs8c3RvcCBzdG9wLWNvbG9yPSIjMTE0N0U5IiBvZmZzZXQ9IjEiLz4mI3hhOzwvcmFkaWFsR3JhZGllbnQ+JiN4YTs8cmFkaWFsR3JhZGllbnQgZ3JhZGllbnRUcmFuc2Zvcm09InRyYW5zbGF0ZSgzLjg2NDM3IDE1LjI1NDIpIHJvdGF0ZSgtNDYuOTU3OSkgc2NhbGUoMTEuNzY0NCAxNi4xODIpIiBncmFkaWVudFVuaXRzPSJ1c2VyU3BhY2VPblVzZSIgcj0iMSIgY3k9IjAiIGN4PSIwIiBpZD0icGFpbnQzX3JhZGlhbF8zMTA2XzI3MTAxIj4mI3hhOzxzdG9wIHN0b3AtY29sb3I9IiMwMEJCRkYiLz4mI3hhOzxzdG9wIHN0b3AtY29sb3I9IiMwMDhCRkYiIG9mZnNldD0iMSIvPiYjeGE7PC9yYWRpYWxHcmFkaWVudD4mI3hhOzxjbGlwUGF0aCBpZD0iY2xpcDBfMzEwNl8yNzEwMSI+JiN4YTs8cmVjdCB0cmFuc2Zvcm09InRyYW5zbGF0ZSgtMC4wMDA5NzY1NjIpIiBmaWxsPSJ3aGl0ZSIgaGVpZ2h0PSIxNS45OTk5IiB3aWR0aD0iMTUuOTk5OSIvPiYjeGE7PC9jbGlwUGF0aD4mI3hhOzxjbGlwUGF0aCBpZD0iY2xpcDFfMzEwNl8yNzEwMSI+JiN4YTs8cmVjdCB0cmFuc2Zvcm09InRyYW5zbGF0ZSgzLjMzMjI4IDMuNSkiIGZpbGw9IndoaXRlIiBoZWlnaHQ9IjkuNjY2NjQiIHdpZHRoPSI5LjY2NjY0Ii8+JiN4YTs8L2NsaXBQYXRoPiYjeGE7PC9kZWZzPiYjeGE7PC9zdmc+;points=[[0,0,0,0,0],[0,0.25,0,0,0],[0,0.5,0,0,0],[0,0.75,0,0,0],[0.25,0,0,0,0],[0.5,0,0,0,0],[0.75,0,0,0,0],[1,0,0,0,0],[1,0.25,0,0,0],[1,0.5,0,0,0],[1,0.75,0,0,0]];strokeWidth=1.5;align=center;labelPosition=center;fontStyle=1;fontSize=20;" parent="urCsp88US3Rvxd7nxDVZ-52" vertex="1">
          <mxGeometry x="170.00000000000003" y="1500" width="70" height="70" as="geometry" />
        </mxCell>
        <mxCell id="0hETNHY3sNTcF9YFYVwX-58" value="&lt;span style=&quot;&quot;&gt;SAP BTP&lt;/span&gt;" style="text;strokeColor=none;fillColor=#D4E1F5;html=1;fontSize=32;fontStyle=1;verticalAlign=middle;align=center;fontFamily=Helvetica;labelBackgroundColor=none;" parent="urCsp88US3Rvxd7nxDVZ-52" vertex="1">
          <mxGeometry x="700" y="3110.000000000001" width="100" height="40" as="geometry" />
        </mxCell>
        <mxCell id="0hETNHY3sNTcF9YFYVwX-59" value="SAP Cloud&#xa;Identity&#xa;Services" style="shape=image;verticalLabelPosition=bottom;verticalAlign=top;aspect=fixed;imageAspect=0;image=data:image/svg+xml,PHN2ZyB4bWxucz0iaHR0cDovL3d3dy53My5vcmcvMjAwMC9zdmciIGZpbGw9Im5vbmUiIHZpZXdCb3g9IjAgMCAxNiAxNiIgaGVpZ2h0PSIxNiIgd2lkdGg9IjE2Ij4mI3hhOzxjaXJjbGUgc3Ryb2tlLXdpZHRoPSIwLjI4NTcwOCIgc3Ryb2tlPSIjRDVEQUREIiBmaWxsPSJ1cmwoI3BhaW50MF9saW5lYXJfMzg5MF8yMTUyMSkiIHI9IjcuODU2OTYiIGN5PSI3Ljk5Nzg2IiBjeD0iNy45OTY0Ii8+JiN4YTs8ZyBjbGlwLXBhdGg9InVybCgjY2xpcDBfMzg5MF8yMTUyMSkiPiYjeGE7PHBhdGggZmlsbD0idXJsKCNwYWludDFfbGluZWFyXzM4OTBfMjE1MjEpIiBkPSJNNy40MDk4OCAzLjM5Nzk1QzYuMDY2NjIgMy4zOTc5NSA0Ljk3NDI0IDQuNDgzMDIgNC45NzQyNCA1LjgyNTc4QzQuOTc0MjQgNi41MTYxNiA1LjI2MzAyIDcuMTM4NDIgNS43MjYyIDcuNTgwMTFDNC41MDE2OCA4LjA2MjIxIDMuNTk2NjggOS4wNjA3NiAzLjU5NjY4IDEwLjMyNzZWMTEuMTgyMUMzLjU5NjY4IDExLjQ1ODMgMy44MjA1NCAxMS42ODIxIDQuMDk2NjggMTEuNjgyMUg2LjQ3NTI5QzYuNzUxNDQgMTEuNjgyMSA2Ljk3NTI5IDExLjQ1ODMgNi45NzUyOSAxMS4xODIxQzYuOTc1MjkgMTAuOTA2IDYuNzUxNDQgMTAuNjgyMSA2LjQ3NTI5IDEwLjY4MjFINC41OTY2OFYxMC4zMjc2QzQuNTk2NjggOS4yOTk4NyA1LjcyOTI5IDguMjY0MzMgNy40MDk5NiA4LjI2NDMzQzcuNDQ5NzIgOC4yNjQzMyA3LjQ4ODQgOC4yNTk2OCA3LjUyNTQ4IDguMjUwOTFDOC44MTUyNSA4LjE5MDc5IDkuODQ1NTIgNy4xMjk4IDkuODQ1NTIgNS44MjU3OEM5Ljg0NTUyIDQuNDgzMDIgOC43NTMxNCAzLjM5Nzk1IDcuNDA5ODggMy4zOTc5NVpNNS45NzQyNCA1LjgyNTc4QzUuOTc0MjQgNS4wMzkxMSA2LjYxNTA5IDQuMzk3OTUgNy40MDk4OCA0LjM5Nzk1QzguMjA0NjcgNC4zOTc5NSA4Ljg0NTUyIDUuMDM5MTEgOC44NDU1MiA1LjgyNTc4QzguODQ1NTIgNi42MTI0NCA4LjIwNDY3IDcuMjUzNiA3LjQwOTg4IDcuMjUzNkM2LjYxNTA5IDcuMjUzNiA1Ljk3NDI0IDYuNjEyNDQgNS45NzQyNCA1LjgyNTc4WiIgY2xpcC1ydWxlPSJldmVub2RkIiBmaWxsLXJ1bGU9ImV2ZW5vZGQiLz4mI3hhOzxwYXRoIGZpbGw9InVybCgjcGFpbnQyX2xpbmVhcl8zODkwXzIxNTIxKSIgZD0iTTEwLjU0OTYgNy41OTQwOUMxMC41ODY5IDcuMzU1MzYgMTAuODEwNyA3LjE5MjEgMTEuMDQ5NCA3LjIyOTQ0QzExLjkwNiA3LjM2MzM5IDEyLjc0ODMgNy43NzA1NyAxMy40NDEyIDguNDY3MjNDMTMuNjExNSA4LjYzODU1IDEzLjYxMDggOC45MTU1NiAxMy40Mzk1IDkuMDg1OTVDMTMuMjY4MSA5LjI1NjMzIDEyLjk5MTEgOS4yNTU1NyAxMi44MjA3IDkuMDg0MjVDMTIuMjYwMSA4LjUyMDU1IDExLjU4ODEgOC4xOTkzMiAxMC45MTQyIDguMDkzOTNDMTAuNjc1NSA4LjA1NjYgMTAuNTEyMyA3LjgzMjgxIDEwLjU0OTYgNy41OTQwOVoiIGNsaXAtcnVsZT0iZXZlbm9kZCIgZmlsbC1ydWxlPSJldmVub2RkIi8+JiN4YTs8cGF0aCBmaWxsPSJ1cmwoI3BhaW50M19saW5lYXJfMzg5MF8yMTUyMSkiIGQ9Ik0xMC45MzMyIDExLjMzMDFDMTAuOTMzMiAxMS4wODg1IDEwLjczNzQgMTAuODkyNiAxMC40OTU3IDEwLjg5MjZDMTAuMjU0MSAxMC44OTI2IDEwLjA1ODIgMTEuMDg4NSAxMC4wNTgyIDExLjMzMDFDMTAuMDU4MiAxMS42NzM3IDEwLjE1MDMgMTIuMDM5OCAxMC4zMzM3IDEyLjMzNjFDMTAuMzUyNiAxMi4zNjY2IDEwLjM3MTcgMTIuMzk3MSAxMC4zOTQ2IDEyLjQyNDVDMTAuNTM2OSAxMi41OTQ3IDEwLjc5NDEgMTIuNjMzMyAxMC45Nzk4IDEyLjUwNUMxMS4xNzc1IDEyLjM2ODQgMTEuMjI3OSAxMi4wOTgxIDExLjA5MzMgMTEuODk5NkMxMC45ODgxIDExLjczMzUgMTAuOTMzMiAxMS41MjU0IDEwLjkzMzIgMTEuMzMwMVoiLz4mI3hhOzxwYXRoIGZpbGw9InVybCgjcGFpbnQ0X2xpbmVhcl8zODkwXzIxNTIxKSIgZD0iTTEzLjI4NTEgMTEuMDU5OUMxMy4zMzExIDkuOTMzNjkgMTIuNDYzOSA4Ljk4OTU4IDExLjQ1NDQgOC42MTA0OEMxMC40MDg4IDguMjE3OCA5LjEwMDgyIDguMzc5NjYgOC4xOTU2MyA5LjU1NzM0QzguMDQ4MzggOS43NDg5MiA4LjA4NDMxIDEwLjAyMzYgOC4yNzU4OSAxMC4xNzA4QzguNDY3NDYgMTAuMzE4MSA4Ljc0MjEzIDEwLjI4MjEgOC44ODkzOCAxMC4wOTA2QzkuNTI2NTMgOS4yNjE2MiAxMC40MDczIDkuMTUxOTEgMTEuMTQ2OCA5LjQyOTYyQzExLjkyMjUgOS43MjA5MiAxMi40MzY4IDEwLjM4OTIgMTIuNDEwOCAxMS4wMjQyQzEyLjQwNiAxMS4xNDIyIDEyLjM2NjIgMTEuMjAyMSAxMi4zMzU3IDExLjIzMTlDMTIuMzAxMyAxMS4yNjU2IDEyLjI1NyAxMS4yODI2IDEyLjIxNDYgMTEuMjgzNEMxMi4xNzMyIDExLjI4NDIgMTIuMTQyIDExLjI2OTkgMTIuMTIxMyAxMS4yNDkxQzEyLjEwMzYgMTEuMjMxMyAxMi4wNjI3IDExLjE3NzYgMTIuMDYyNyAxMS4wNDIxQzEyLjA2MjcgMTAuNjY3OCAxMS44MjUzIDEwLjI2NjggMTEuNDgwOCAxMC4wMDgzQzExLjEwOTkgOS43Mjk5IDEwLjU4NTIgOS41ODc3NiA5Ljk2ODQ2IDkuNzU3OTJMOS45NTk0MyA5Ljc2MDQxTDkuOTUwNTIgOS43NjMyOUM5LjM1OTk4IDkuOTUzNzkgOC45ODMzIDEwLjUwNTggOC44OTg2NyAxMS4xNTA3QzguODEzMiAxMS44MDIxIDkuMDEzMzEgMTIuNTY4MyA5LjU2NTM4IDEzLjMxMzNDOS43MDkyNCAxMy41MDc0IDkuOTgzMjQgMTMuNTQ4MiAxMC4xNzc0IDEzLjQwNDNDMTAuMzcxNSAxMy4yNjA1IDEwLjQxMjMgMTIuOTg2NSAxMC4yNjg0IDEyLjc5MjNDOS44MjQ5NyAxMi4xOTQgOS43MTU1OSAxMS42NTA1IDkuNzY2MjMgMTEuMjY0NkM5LjgxNzAyIDEwLjg3NzYgMTAuMDE3MiAxMC42NjUyIDEwLjIxMTEgMTAuNTk4N0MxMC41NTc1IDEwLjUwNiAxMC43OTk4IDEwLjU5MTIgMTAuOTU1NSAxMC43MDgxQzExLjAzOSAxMC43NzA3IDExLjEwMDkgMTAuODQ1MiAxMS4xNDA1IDEwLjkxNDZDMTEuMTgyNSAxMC45ODY2IDExLjE4NiAxMS4wMjMyIDExLjE4ODQgMTEuMDg4QzExLjE5NzkgMTEuMzk3NSAxMS4zMDQ3IDExLjY2ODkgMTEuNTAxIDExLjg2NjJDMTEuNzA0IDEyLjA3MDIgMTEuOTcxOCAxMi4xNjMzIDEyLjIzMTUgMTIuMTU4MkMxMi43NjQxIDEyLjE0NzkgMTMuMjU3NyAxMS43MzIgMTMuMjg1MSAxMS4wNTk5WiIvPiYjeGE7PC9nPiYjeGE7PGRlZnM+JiN4YTs8bGluZWFyR3JhZGllbnQgZ3JhZGllbnRVbml0cz0idXNlclNwYWNlT25Vc2UiIHkyPSIxNC43NDU4IiB4Mj0iMTMuNjg0NCIgeTE9IjIuMjY4OTQiIHgxPSIxLjQ0NzUiIGlkPSJwYWludDBfbGluZWFyXzM4OTBfMjE1MjEiPiYjeGE7PHN0b3Agc3RvcC1jb2xvcj0id2hpdGUiLz4mI3hhOzxzdG9wIHN0b3AtY29sb3I9IiNFQUVDRUUiIG9mZnNldD0iMSIvPiYjeGE7PC9saW5lYXJHcmFkaWVudD4mI3hhOzxsaW5lYXJHcmFkaWVudCBncmFkaWVudFVuaXRzPSJ1c2VyU3BhY2VPblVzZSIgeTI9IjguODQ1NzQiIHgyPSIxMC4xMTEzIiB5MT0iNC42MzY4IiB4MT0iNC41MzM0MSIgaWQ9InBhaW50MV9saW5lYXJfMzg5MF8yMTUyMSI+JiN4YTs8c3RvcCBzdG9wLWNvbG9yPSIjMDE5NUZGIi8+JiN4YTs8c3RvcCBzdG9wLWNvbG9yPSIjMTE0N0U5IiBvZmZzZXQ9IjAuOTkxMDI4Ii8+JiN4YTs8L2xpbmVhckdyYWRpZW50PiYjeGE7PGxpbmVhckdyYWRpZW50IGdyYWRpZW50VW5pdHM9InVzZXJTcGFjZU9uVXNlIiB5Mj0iMTEuOTUyNSIgeDI9IjEzLjI1OTgiIHkxPSI4LjE0NjAyIiB4MT0iOC45MTI3MiIgaWQ9InBhaW50Ml9saW5lYXJfMzg5MF8yMTUyMSI+JiN4YTs8c3RvcCBzdG9wLWNvbG9yPSIjMTM0OEZGIi8+JiN4YTs8c3RvcCBzdG9wLWNvbG9yPSIjMDYyMzhEIiBvZmZzZXQ9IjEiLz4mI3hhOzwvbGluZWFyR3JhZGllbnQ+JiN4YTs8bGluZWFyR3JhZGllbnQgZ3JhZGllbnRVbml0cz0idXNlclNwYWNlT25Vc2UiIHkyPSIxMS45NTI1IiB4Mj0iMTMuMjU5OCIgeTE9IjguMTQ2MDIiIHgxPSI4LjkxMjcyIiBpZD0icGFpbnQzX2xpbmVhcl8zODkwXzIxNTIxIj4mI3hhOzxzdG9wIHN0b3AtY29sb3I9IiMxMzQ4RkYiLz4mI3hhOzxzdG9wIHN0b3AtY29sb3I9IiMwNjIzOEQiIG9mZnNldD0iMSIvPiYjeGE7PC9saW5lYXJHcmFkaWVudD4mI3hhOzxsaW5lYXJHcmFkaWVudCBncmFkaWVudFVuaXRzPSJ1c2VyU3BhY2VPblVzZSIgeTI9IjExLjk1MjUiIHgyPSIxMy4yNTk4IiB5MT0iOC4xNDYwMiIgeDE9IjguOTEyNzIiIGlkPSJwYWludDRfbGluZWFyXzM4OTBfMjE1MjEiPiYjeGE7PHN0b3Agc3RvcC1jb2xvcj0iIzEzNDhGRiIvPiYjeGE7PHN0b3Agc3RvcC1jb2xvcj0iIzA2MjM4RCIgb2Zmc2V0PSIxIi8+JiN4YTs8L2xpbmVhckdyYWRpZW50PiYjeGE7PGNsaXBQYXRoIGlkPSJjbGlwMF8zODkwXzIxNTIxIj4mI3hhOzxyZWN0IHRyYW5zZm9ybT0idHJhbnNsYXRlKDMuNTk2NjggMy4zOTc5NSkiIGZpbGw9IndoaXRlIiBoZWlnaHQ9IjEwIiB3aWR0aD0iMTAiLz4mI3hhOzwvY2xpcFBhdGg+JiN4YTs8L2RlZnM+JiN4YTs8L3N2Zz4=;points=[[0,0,0,0,0],[0,0.25,0,0,0],[0,0.5,0,0,0],[0,0.75,0,0,0],[0.25,0,0,0,0],[0.5,0,0,0,0],[0.75,0,0,0,0],[1,0,0,0,0],[1,0.25,0,0,0],[1,0.5,0,0,0],[1,0.75,0,0,0]];fontStyle=1;fontSize=20;fontColor=#1D2D3E;fontFamily=Helvetica;labelBackgroundColor=none;" parent="urCsp88US3Rvxd7nxDVZ-52" vertex="1">
          <mxGeometry x="-545" y="1970" width="70" height="70" as="geometry" />
        </mxCell>
        <mxCell id="0hETNHY3sNTcF9YFYVwX-72" style="edgeStyle=orthogonalEdgeStyle;rounded=0;orthogonalLoop=1;jettySize=auto;html=1;exitX=0.5;exitY=0;exitDx=0;exitDy=0;" parent="urCsp88US3Rvxd7nxDVZ-52" source="IH_4kgBtjWAierBhuPbd-1" edge="1">
          <mxGeometry relative="1" as="geometry">
            <mxPoint x="444" y="2620" as="targetPoint" />
            <mxPoint x="1050" y="3015" as="sourcePoint" />
          </mxGeometry>
        </mxCell>
        <mxCell id="0hETNHY3sNTcF9YFYVwX-73" style="edgeStyle=orthogonalEdgeStyle;rounded=0;orthogonalLoop=1;jettySize=auto;html=1;" parent="urCsp88US3Rvxd7nxDVZ-52" source="0hETNHY3sNTcF9YFYVwX-62" edge="1">
          <mxGeometry relative="1" as="geometry">
            <mxPoint x="10" y="2747" as="targetPoint" />
            <Array as="points">
              <mxPoint x="-40" y="3032" />
              <mxPoint x="-40" y="2747" />
            </Array>
          </mxGeometry>
        </mxCell>
        <mxCell id="0hETNHY3sNTcF9YFYVwX-62" value="SAP Data Quality &#xa;Services" style="shape=image;verticalLabelPosition=bottom;labelBackgroundColor=none;verticalAlign=top;aspect=fixed;imageAspect=0;image=data:image/svg+xml,PHN2ZyB4bWxucz0iaHR0cDovL3d3dy53My5vcmcvMjAwMC9zdmciIGZpbGw9Im5vbmUiIHZpZXdCb3g9IjAgMCAxNiAxNyIgaGVpZ2h0PSIxNyIgd2lkdGg9IjE2Ij4mI3hhOzxwYXRoIGZpbGw9InVybCgjcGFpbnQwX2xpbmVhcl8zMjAyXzE3Njg4KSIgZD0iTTAuNzY0MjUzIDEuOTcyMjdDMC4zMzg0MzIgMi4zNjM1MiAwLjAwNTg1ODM5IDIuOTA3NDQgLTAuMDAzNDE3OTcgMy41ODkwNkMtMC4wMDM0MTc5NyAzLjU4OTA2IDAuMDE3NzgwNSAxMi4zNjg0IDAuMDE3Nzg4OSAxMi4zNjYxTDAuMDE3Nzg5MiAxMi4zNjc0QzAuMDE4NDczOCAxMy44OTggMS4yNzAzNyAxNC43MjUgMi4zODI2NCAxNS4xMzQ4QzMuMjg2MzcgMTUuNDY3OCA0LjM3NzkzIDE1LjY0NTQgNS40ODE1IDE1LjcxMDNDNi4wMzI4MyAxNS43NDI4IDYuNDgxMjIgMTUuMjkxOCA2LjQ4MTU1IDE0LjczOTVMNi40ODE1NyAxNC43MDc3QzYuNDgxOTEgMTQuMTU1NSA2LjAzMzg4IDEzLjcxMTcgNS40ODI4NSAxMy42NzQ4QzQuNTU1MjIgMTMuNjEyNiAzLjcwOTY2IDEzLjQ2MjYgMy4wNjQ2MSAxMy4yMjQ5QzIuMTI5MzMgMTIuODgwMiAyLjAxNzc4IDEyLjUyOTYgMi4wMTc3OCAxMi4zNjYxTDIuMDE2NjYgMTEuMTE5NEMyLjM3NTk3IDExLjIyOTggMi43NTMwMyAxMS4zMjA0IDMuMTM0MDMgMTEuMzk0NkM0LjE3NTI5IDExLjU5NzQgNS4zNTU1OSAxMS42OTggNi41MjEyNCAxMS43MDA1QzYuODQzNTQgMTEuNzAxMiA3LjE2Njg1IDExLjY5NDQgNy40ODc4OCAxMS42Nzk5QzcuOTk3NDkgMTEuNjU2OSA4LjUwMTM5IDExLjYxNDUgOC45ODY0NyAxMS41NTIxQzkuMjk3OCAxMS41MTIgOS41MjQ3OCAxMS4yNDI5IDkuNTI0NzggMTAuOTI5QzkuNTI0NzggMTAuNTI1NCA5LjE1NjI3IDEwLjIyMTkgOC43NTYwMiAxMC4yNzRDOC4zNTEwNiAxMC4zMjY3IDcuOTI0OCAxMC4zNjQzIDcuNDg3ODggMTAuMzg2MUM3LjE3MTMyIDEwLjQwMiA2Ljg0OTE1IDEwLjQwOTcgNi41MjU0NCAxMC40MDlDNS40NjEyNCAxMC40MDY3IDQuNDA4MDQgMTAuMzE0MyAzLjUxMDY5IDEwLjEzOTVDMi44ODQ1NCAxMC4wMTc1IDIuMzgxMDIgOS44NjQxNSAyLjAxMTg4IDkuNzAwMzhMMi4wMDk1NSA4LjE3ODgzQzIuMzcxIDguMjkwMjIgMi43NTA1MiA4LjM4MTU2IDMuMTM0MDMgOC40NTYyN0M0LjE3NTI5IDguNjU5MTEgNS4zNTU1OSA4Ljc1OTY1IDYuNTIxMjQgOC43NjIxM0M3LjY4NjU4IDguNzY0NjIgOC44NjUwMyA4LjY2OTE3IDkuOTAxOSA4LjQ2NjkzQzEwLjI3MjggOC4zOTQ1OSAxMC42NDA4IDguMzA1NzggMTAuOTkyMyA4LjE5NjY5TDEwLjk5MjEgOS40MDg0NkMxMC45OTIgOS45NjA5NyAxMS40NDE5IDEwLjQwOSAxMS45OTQ0IDEwLjQwOUMxMi41NDY3IDEwLjQwOSAxMi45OTYzIDkuOTYxMjYgMTIuOTk2MyA5LjQwODk4VjMuNjAzMUMxMi45OTYzIDIuOTExMDMgMTIuNjU3OCAyLjM2MTIzIDEyLjIyODcgMS45Njk4NUMxMS44MTMgMS41OTA2IDExLjI3MiAxLjMxNjc1IDEwLjcwMzcgMS4xMTU2MUM5LjU2MTQxIDAuNzExMjk4IDguMDYxMzYgMC41MTUxMzcgNi40ODEyNSAwLjUxNTEzN0M0LjkwMTE2IDAuNTE1MTM3IDMuNDExOCAwLjcxMTI3NSAyLjI3NzcyIDEuMTE2NjVDMS43MTMwMiAxLjMxODQ5IDEuMTc3MDMgMS41OTMwMSAwLjc2NDI1MyAxLjk3MjI3Wk0yLjAwMiA1LjIxNDM0TDIuMDA0NzggNi44MTk4M0MyLjM3NDU1IDYuOTg0NzggMi44ODA1MiA3LjEzOTMgMy41MTA2OSA3LjI2MjA1QzQuNDA4MDQgNy40MzY4NiA1LjQ2MTI0IDcuNTI5MyA2LjUyNTQ0IDcuNTMxNTdDNy41ODk5NiA3LjUzMzg0IDguNjM3NjkgNy40NDU4MyA5LjUyNDc4IDcuMjcyOEMxMC4xNDgzIDcuMTUxMTcgMTAuNjQxNSA2Ljk5NzA5IDEwLjk5NjcgNi44MzM0OFY1LjIwMzg2QzEwLjkwMDMgNS4yNDMyNyAxMC44MDI2IDUuMjgwMzMgMTAuNzA0MSA1LjMxNTJDOS41NjE3MSA1LjcxOTUyIDguMDYxNjcgNS45MTU2OCA2LjQ4MTU2IDUuOTE1NjhDNC45MTQ1MiA1LjkxNTY4IDMuNDI5MDMgNS43MjI3NSAyLjI5NTIgNS4zMjQ5N0MyLjE5NjQ2IDUuMjkwMzMgMi4wOTg1NiA1LjI1MzUxIDIuMDAyIDUuMjE0MzRaIiBjbGlwLXJ1bGU9ImV2ZW5vZGQiIGZpbGwtcnVsZT0iZXZlbm9kZCIvPiYjeGE7PHBhdGggZmlsbD0idXJsKCNwYWludDFfbGluZWFyXzMyMDJfMTc2ODgpIiBkPSJNMTMuOTkxNyAxMS4zODQzQzEzLjc2NTkgMTEuMzg0MyAxMy41NjI3IDExLjQ3NDYgMTMuMzgyIDExLjY1NTNMMTAuNTcwNSAxNC40NjY4TDkuNDUyNjYgMTMuMzQ4OUM5LjI5NDU4IDEzLjE2ODMgOS4xMDI2MyAxMy4wNzggOC44NzY4MSAxMy4wNzhDOC42NTA5OCAxMy4wNzggOC40NDc3NCAxMy4xNjgzIDguMjY3MDggMTMuMzQ4OUM4LjA4NjQyIDEzLjUyOTYgNy45OTYwOSAxMy43MzI4IDcuOTk2MDkgMTMuOTU4N0M3Ljk5NjA5IDE0LjE4NDUgOC4wODY0MiAxNC4zODc3IDguMjY3MDggMTQuNTY4NEw5Ljk2MDc2IDE2LjI2MjFDMTAuMTE4OCAxNi40MjAyIDEwLjMyMjEgMTYuNDk5MiAxMC41NzA1IDE2LjQ5OTJDMTAuODE4OSAxNi40OTkyIDExLjAyMjEgMTYuNDIwMiAxMS4xODAyIDE2LjI2MjFMMTQuNjAxNSAxMi44NDA4QzE0Ljc1OTUgMTIuNjYwMiAxNC44Mzg2IDEyLjQ1NjkgMTQuODM4NiAxMi4yMzExQzE0LjgzODYgMTIuMDA1MyAxNC43NTk1IDExLjgxMzMgMTQuNjAxNSAxMS42NTUzQzE0LjQyMDggMTEuNDc0NiAxNC4yMTc2IDExLjM4NDMgMTMuOTkxNyAxMS4zODQzWiIvPiYjeGE7PGRlZnM+JiN4YTs8bGluZWFyR3JhZGllbnQgZ3JhZGllbnRVbml0cz0idXNlclNwYWNlT25Vc2UiIHkyPSIxMS43ODM5IiB4Mj0iMTIuNDU4MiIgeTE9IjIuNzg3NzMiIHgxPSIxLjk0NTMiIGlkPSJwYWludDBfbGluZWFyXzMyMDJfMTc2ODgiPiYjeGE7PHN0b3Agc3RvcC1jb2xvcj0iIzAxOTVGRiIvPiYjeGE7PHN0b3Agc3RvcC1jb2xvcj0iIzExNDdFOSIgb2Zmc2V0PSIwLjk5MTAyOCIvPiYjeGE7PC9saW5lYXJHcmFkaWVudD4mI3hhOzxsaW5lYXJHcmFkaWVudCBncmFkaWVudFVuaXRzPSJ1c2VyU3BhY2VPblVzZSIgeTI9IjE2Ljc0MzgiIHgyPSIxMi40MzY4IiB5MT0iMTIuMTM2OCIgeDE9IjkuMDA3NzEiIGlkPSJwYWludDFfbGluZWFyXzMyMDJfMTc2ODgiPiYjeGE7PHN0b3Agc3RvcC1jb2xvcj0iIzEzNDhGRiIvPiYjeGE7PHN0b3Agc3RvcC1jb2xvcj0iIzA2MjM4RCIgb2Zmc2V0PSIxIi8+JiN4YTs8L2xpbmVhckdyYWRpZW50PiYjeGE7PC9kZWZzPiYjeGE7PC9zdmc+;fontStyle=1;fontSize=20;" parent="urCsp88US3Rvxd7nxDVZ-52" vertex="1">
          <mxGeometry x="-144.9999999999999" y="2994.4299999999994" width="70.6" height="75.01" as="geometry" />
        </mxCell>
        <mxCell id="0hETNHY3sNTcF9YFYVwX-74" style="edgeStyle=orthogonalEdgeStyle;rounded=0;orthogonalLoop=1;jettySize=auto;html=1;" parent="urCsp88US3Rvxd7nxDVZ-52" source="0hETNHY3sNTcF9YFYVwX-64" edge="1">
          <mxGeometry relative="1" as="geometry">
            <mxPoint x="-195" y="2810" as="targetPoint" />
          </mxGeometry>
        </mxCell>
        <mxCell id="0hETNHY3sNTcF9YFYVwX-64" value="Redis" style="shape=image;verticalLabelPosition=bottom;labelBackgroundColor=none;verticalAlign=top;aspect=fixed;imageAspect=0;image=data:image/svg+xml,PHN2ZyB4bWxucz0iaHR0cDovL3d3dy53My5vcmcvMjAwMC9zdmciIGZpbGw9Im5vbmUiIHZpZXdCb3g9IjAgMCA0OSA0OSIgaGVpZ2h0PSI0OSIgd2lkdGg9IjQ5Ij4mI3hhOzxtYXNrIGhlaWdodD0iNDIiIHdpZHRoPSI0OSIgeT0iMyIgeD0iMCIgbWFza1VuaXRzPSJ1c2VyU3BhY2VPblVzZSIgc3R5bGU9Im1hc2stdHlwZTpsdW1pbmFuY2UiIGlkPSJtYXNrMF8yNjIyXzMzODciPiYjeGE7PHBhdGggZmlsbD0id2hpdGUiIGQ9Ik00OC40OTk5IDMuNDY3MjRIMC40OTk5MzlWNDQuNjAyNkg0OC40OTk5VjMuNDY3MjRaIi8+JiN4YTs8L21hc2s+JiN4YTs8ZyBtYXNrPSJ1cmwoI21hc2swXzI2MjJfMzM4NykiPiYjeGE7PHBhdGggZmlsbD0iI0EzMjQyMiIgZD0iTTQ2LjYxMTcgMzUuMTgwOUM0NC4wNTQ2IDM2LjUxODUgMzAuNzg0MyA0MS45NzY3IDI3LjkyNTcgNDMuNDc0OUMyNS4wNjcxIDQ0Ljk3MzEgMjMuNTM2MSA0NC45MzA0IDIxLjMwMDQgNDMuODYxN0MxOS4wNjQ2IDQyLjc5MyA0Ljk5MTEzIDM3LjA2OTIgMi40NDA2NiAzNS44NDk3QzEuMTU1NTkgMzUuMjQ2NSAwLjQ5OTkzOSAzNC43MzE4IDAuNDk5OTM5IDM0LjI0OTlWMjkuMzk0OUMwLjQ5OTkzOSAyOS4zOTQ5IDE4Ljg4NDMgMjUuNDA1MiAyMS44NTExIDI0LjMzQzI0LjgxNzkgMjMuMjU0NyAyNS44NDQgMjMuMjI4NSAyOC4zNjUgMjQuMTUyOUMzMC44ODU5IDI1LjA3NzQgNDUuOTk4NiAyNy44MDQ5IDQ4LjQ5MzQgMjguNzA5N1YzMy40OTU5QzQ4LjQ5MzQgMzMuOTk0MiA0Ny45MTk3IDM0LjQ3OTQgNDYuNjExNyAzNS4xNzc3VjM1LjE4MDlaIi8+JiN4YTs8cGF0aCBmaWxsPSIjREMzODJDIiBkPSJNNDYuNjExNiAzMC4zNDg4QzQ0LjA1NDYgMzEuNjc5OCAzMC43ODQzIDM3LjEzODEgMjcuOTI1NyAzOC42MUMyNS4wNjcgNDAuMDgxOSAyMy41MzYxIDQwLjA2ODggMjEuMzAwMyAzOS4wMDM0QzE5LjA2NDYgMzcuOTM4IDQuOTkxMSAzMi4yMTQxIDIuNDQwNjMgMzEuMDA0NUMtMC4xMDk4MzcgMjkuNzk0OCAtMC4xNTkwMTEgMjguOTQ5IDIuMzQyMjkgMjcuOTcyMUM0Ljg0MzU4IDI2Ljk5NTIgMTguODg0MyAyMS40OTc2IDIxLjg1MTEgMjAuNDE1OEMyNC44MTc5IDE5LjMzMzkgMjUuODQ0IDE5LjMxMSAyOC4zNjQ5IDIwLjIzODdDMzAuODg1OSAyMS4xNjY1IDQ0LjEwMDUgMjYuNDE0OSA0Ni41ODIxIDI3LjMyOTZDNDkuMDYzOCAyOC4yNDQyIDQ5LjE3ODUgMjguOTk0OSA0Ni42MTE2IDMwLjMyMjZWMzAuMzQ4OFoiLz4mI3hhOzxwYXRoIGZpbGw9IiNBMzI0MjIiIGQ9Ik00Ni42MTE3IDI3LjI3MzhDNDQuMDU0NiAyOC42MDgxIDMwLjc4NDMgMzQuMDYzMSAyNy45MjU3IDM1LjUzNUMyNS4wNjcxIDM3LjAwNjkgMjMuNTQ5MiAzNi45OTM4IDIxLjMxMzUgMzUuOTIxOEMxOS4wNzc3IDM0Ljg0OTggNC45OTExMyAyOS4xNTg4IDIuNDQwNjYgMjcuOTQyNkMxLjE1NTU5IDI3LjMzMjggMC40OTk5MzkgMjYuODIxNCAwLjQ5OTkzOSAyNi4zMzYzVjIxLjQ5NzZDMC40OTk5MzkgMjEuNDk3NiAxOC44ODQzIDE3LjQ5NDggMjEuODUxMSAxNi40MTk2QzI0LjgxNzkgMTUuMzQ0MyAyNS44NDQgMTUuMzE0OCAyOC4zNjUgMTYuMjUyNEMzMC44ODU5IDE3LjE5IDQ1Ljk5ODYgMTkuODkxMiA0OC40OTM0IDIwLjgwMjZWMjUuNTg4OEM0OC40OTM0IDI2LjA4NzEgNDcuOTE5NyAyNi41ODU0IDQ2LjYxMTcgMjcuMjczOFoiLz4mI3hhOzxwYXRoIGZpbGw9IiNEQzM4MkMiIGQ9Ik00Ni42MTE3IDIyLjQxODhDNDQuMDU0NiAyMy43NTYzIDMwLjc4NDMgMjkuMjExMyAyNy45MjU3IDMwLjY4MzJDMjUuMDY3MSAzMi4xNTUxIDIzLjUzNjEgMzIuMTQ1MyAyMS4zMDA0IDMxLjA3NjZDMTkuMDY0NiAzMC4wMDc5IDQuOTkxMTQgMjQuMzA3IDIuNDQwNjcgMjMuMDg3NUMtMC4xMDk4MDIgMjEuODY4IC0wLjE1NTY5OCAyMS4wMzg2IDIuMzQyMzIgMjAuMDYxN0M0Ljg0MDM0IDE5LjA4NDggMTguODg0MyAxMy41NzQxIDIxLjg1MTEgMTIuNTIxOEMyNC44MTc5IDExLjQ2OTQgMjUuODQ0IDExLjQwMzkgMjguMzY1IDEyLjMxODVDMzAuODg1OSAxMy4yMzMxIDQ0LjEwMDUgMTguNTI3NSA0Ni41ODIyIDE5LjQxNTlDNDkuMDYzOCAyMC4zMDQzIDQ5LjE3ODUgMjEuMDg0NSA0Ni42MTE3IDIyLjQwODlWMjIuNDE4OFoiLz4mI3hhOzxwYXRoIGZpbGw9IiNBMzI0MjIiIGQ9Ik00Ni42MTE3IDE5LjA2ODRDNDQuMDU0NiAyMC40MDU5IDMwLjc4NDMgMjUuODY0MiAyNy45MjU3IDI3LjMzMjhDMjUuMDY3MSAyOC44MDE1IDIzLjU0OTIgMjguNzkxNyAyMS4zMTM1IDI3LjcyNjJDMTkuMDc3NyAyNi42NjA4IDQuOTkxMTMgMjAuOTUzNCAyLjQ0MDY2IDE5LjczNzJDMS4xNTU1OSAxOS4xMzQgMC40OTk5MzkgMTguNjE5MyAwLjQ5OTkzOSAxOC4xMzQxVjEzLjI3OUMwLjQ5OTkzOSAxMy4yNzkgMTguODg0MyA5LjI4OTQgMjEuODUxMSA4LjIxNzQyQzI0LjgxNzkgNy4xNDU0MyAyNS44NDQgNy4xMTI2NSAyOC4zNjUgOC4wMzcxMkMzMC44ODU5IDguOTYxNTggNDUuOTkyMSAxMS42ODkxIDQ4LjQ4NjggMTIuNjAwNFYxNy4zODY3QzQ4LjQ5MzQgMTcuODkxNSA0Ny45MTk3IDE4LjM4MzIgNDYuNjExNyAxOS4wNjg0WiIvPiYjeGE7PHBhdGggZmlsbD0iI0RDMzgyQyIgZD0iTTQ2LjYxMTYgMTQuMjE5OUM0NC4wNTQ2IDE1LjUzMTIgMzAuNzg0MyAyMS4wMjIyIDI3LjkyNTcgMjIuNDgxQzI1LjA2NyAyMy45Mzk5IDIzLjUzNjEgMjMuOTM2NiAyMS4zMDAzIDIyLjg3NDRDMTkuMDY0NiAyMS44MTIzIDQuOTkxMSAxNi4wOTgzIDIuNDQwNjMgMTQuODg1NEMtMC4xMDk4MzcgMTMuNjcyNCAtMC4xNTkwMTEgMTIuODI5OSAyLjM0MjI5IDExLjg1M0M0Ljg0MzU4IDEwLjg3NjEgMTguODg0MyA1LjM2ODYzIDIxLjg1MTEgNC4yOTk5MkMyNC44MTc5IDMuMjMxMjIgMjUuODQ0IDMuMTk4NDMgMjguMzY0OSA0LjEyMjlDMzAuODg1OSA1LjA0NzM2IDQ0LjEwMDUgMTAuMzAyNCA0Ni41ODIxIDExLjIxMzdDNDkuMDYzOCAxMi4xMjUxIDQ5LjE3ODUgMTIuODgyNCA0Ni42MTE2IDE0LjIxVjE0LjIxOTlaIi8+JiN4YTs8L2c+JiN4YTs8cGF0aCBmaWxsPSJ3aGl0ZSIgZD0iTTI1LjI1MDcgNy4zMjU3NEwyOC40MTc0IDYuMjg2NTRMMjcuNTU4NSA4LjMzODcyTDMwLjc4MSA5LjU0NTExTDI2LjYyNzUgOS45Nzc4NEwyNS42OTMyIDEyLjIyMDJMMjQuMTkxOCA5LjcxODg2TDE5LjM4OTIgOS4yODYxM0wyMi45NzU2IDcuOTk0NUwyMS44OTcgNi4wMDc4OUwyNS4yNTA3IDcuMzI1NzRaIi8+JiN4YTs8cGF0aCBmaWxsPSJ3aGl0ZSIgZD0iTTI1LjQ1MDYgMjAuNDE1OEwxNy42ODc3IDE3LjE5MzNMMjguODA3NSAxNS40ODUzTDI1LjQ1MDYgMjAuNDE1OFoiLz4mI3hhOzxwYXRoIGZpbGw9IndoaXRlIiBkPSJNMTQuNjg4MiAxMC43OTA4QzE3Ljk2NjQgMTAuNzkwOCAyMC42MzE2IDExLjgyMzUgMjAuNjMxNiAxMy4wODU2QzIwLjYzMTYgMTQuMzQ3NyAxNy45NTk5IDE1LjM4MDQgMTQuNjg4MiAxNS4zODA0QzExLjQxNjUgMTUuMzgwNCA4Ljc0MTQ2IDE0LjM0NzcgOC43NDE0NiAxMy4wODU2QzguNzQxNDYgMTEuODIzNSAxMS40MDY3IDEwLjc5MDggMTQuNjg4MiAxMC43OTA4WiIvPiYjeGE7PHBhdGggZmlsbD0iIzc0MTExMyIgZD0iTTM1LjcwMTcgMTAuMTU4MUw0Mi4yODExIDEyLjc1NzhMMzUuNzA4MiAxNS4zNTc0TDM1LjcwMTcgMTAuMTU4MVoiLz4mI3hhOzxwYXRoIGZpbGw9IiNBQzI3MjQiIGQ9Ik0zNS43MDE3IDEwLjE1ODFMMzUuNzA4MiAxNS4zNTc0TDM0Ljk5MzYgMTUuNjM2MUwyOC40MTc0IDEzLjAzNjRMMzUuNzAxNyAxMC4xNTgxWiIvPiYjeGE7PC9zdmc+;fontStyle=1;fontSize=20;" parent="urCsp88US3Rvxd7nxDVZ-52" vertex="1">
          <mxGeometry x="-349.99999999999955" y="3000.000000000001" width="69.44" height="69.44" as="geometry" />
        </mxCell>
        <mxCell id="0hETNHY3sNTcF9YFYVwX-65" value="SAP Cloud Connector" style="shape=image;verticalLabelPosition=bottom;labelBackgroundColor=none;verticalAlign=top;aspect=fixed;imageAspect=0;image=data:image/svg+xml,PHN2ZyB4bWxucz0iaHR0cDovL3d3dy53My5vcmcvMjAwMC9zdmciIGZpbGw9Im5vbmUiIHZpZXdCb3g9IjAgMCAxNiAxNiIgaGVpZ2h0PSIxNiIgd2lkdGg9IjE2Ij4mI3hhOzxjaXJjbGUgc3Ryb2tlLXdpZHRoPSIwLjI4NTcwOCIgc3Ryb2tlPSIjRDVEQUREIiBmaWxsPSJ1cmwoI3BhaW50MF9saW5lYXJfMzg5MF8yMTUzNSkiIHI9IjcuODU2OTYiIGN5PSI3Ljk5NzM4IiBjeD0iNy45OTczOCIvPiYjeGE7PGcgY2xpcC1wYXRoPSJ1cmwoI2NsaXAwXzM4OTBfMjE1MzUpIj4mI3hhOzxwYXRoIGZpbGw9InVybCgjcGFpbnQxX2xpbmVhcl8zODkwXzIxNTM1KSIgZD0iTTcuODc5MTggOC42NDM4MUM3Ljk2MzM1IDguNjIxNDkgOC4wNDEzMyA4LjU3NDQ0IDguMTEzMTIgOC41MDI2NUM4LjIxNzI5IDguMzk4NDggOC4yNjkzNyA4LjI4MTI5IDguMjY5MzcgOC4xNTEwOEM4LjI2OTM3IDguMDIwODggOC4yMTcyOSA3LjkwMzY5IDguMTEzMTIgNy43OTk1Mkw3LjIxNDY5IDYuOTIwNjJMNy41MjcxOSA2LjYwODEyTDguNDA2MDkgNy41MDY1NkM4LjUxMDI2IDcuNjEwNzIgOC42Mjc0NSA3LjY2MjgxIDguNzU3NjYgNy42NjI4MUM4Ljg4Nzg2IDcuNjYyODEgOS4wMDUwNSA3LjYxMDcyIDkuMTA5MjIgNy41MDY1NkM5LjIxMzM5IDcuNDAyMzkgOS4yNjU0NyA3LjI4NTIgOS4yNjU0NyA3LjE1NDk5QzkuMjY1NDcgNy4wMjQ3OSA5LjIxMzM5IDYuOTA3NiA5LjEwOTIyIDYuODAzNDNMOC4yMTA3OCA1LjkyNDUzTDguNjIwOTQgNS41MTQzOEM4LjcxMjA4IDUuNDIzMjMgOC43NTc2NiA1LjMxMjU1IDguNzU3NjYgNS4xODIzNUM4Ljc1NzY2IDUuMDM5MTIgOC43MTIwOCA0LjkyMTkzIDguNjIwOTQgNC44MzA3OUw4LjE3MTcyIDQuMzgxNTdDNy43OTQxMSA0LjAwMzk3IDcuMzUxNCAzLjgwMjE0IDYuODQzNTkgMy43NzYxQzYuMzM1NzggMy43NTAwNiA1Ljg4MDA1IDMuODk5OCA1LjQ3NjQgNC4yMjUzMkw0LjIzNzMxIDIuOTUzODZDNC4xMzMxNCAyLjg0OTY5IDQuMDE1OTUgMi43OTc2MSAzLjg4NTc0IDIuNzk3NjFDMy43Njg1NSAyLjc5NzYxIDMuNjU3ODggMi44NDk2OSAzLjU1MzcxIDIuOTUzODZDMy40NDk1NCAzLjA1ODAyIDMuMzk3NDYgMy4xNzUyMSAzLjM5NzQ2IDMuMzA1NDJDMy4zOTc0NiAzLjQzNTYzIDMuNDQ5NTQgMy41NTI4MSAzLjU1MzcxIDMuNjU2OThMNC43OTI4MSA0LjkyODQ0QzQuNDkzMzMgNS4zMzIwOSA0LjM1NjYxIDUuNzgxMyA0LjM4MjY1IDYuMjc2MDlDNC40MDg2OSA2Ljc1Nzg2IDQuNjEwNTIgNy4xODc1NSA0Ljk4ODEyIDcuNTY1MTVMNS4zNTkyMSA3LjkyMDFDNS41ODIzNyA3Ljg1Mzg1IDUuODEzMjMgNy44MjAxOSA2LjA0ODk4IDcuODIwMTlDNi41NjI2OCA3LjgyMDE5IDcuMDM3OSA3Ljk3OTkzIDcuNDUyNTQgOC4yNzEzQzcuNjA5ODYgOC4zODE4NSA3Ljc1MjAzIDguNTA2NTQgNy44NzkxOCA4LjY0MzgxWiIvPiYjeGE7PHBhdGggZmlsbD0idXJsKCNwYWludDJfbGluZWFyXzM4OTBfMjE1MzUpIiBkPSJNMTMuMzY2MiAxMi4yNTA3QzEzLjM2NjIgMTIuMTMzNSAxMy4zMTQyIDEyLjAyMjggMTMuMjEgMTEuOTE4N0wxMS44MjMzIDEwLjUxMjRDMTIuMTQ4OCAxMC4xMjE4IDEyLjI5ODUgOS42ODU2MiAxMi4yNzI1IDkuMjAzODVDMTIuMjU5NSA4LjcwOTA2IDEyLjA2NDIgOC4yNzI4NiAxMS42ODY2IDcuODk1MjZMMTEuMjM3MyA3LjQ0NjA0QzExLjEzMzIgNy4zNDE4OCAxMS4wMTYgNy4yODk3OSAxMC44ODU4IDcuMjg5NzlDMTAuNzU1NiA3LjI4OTc5IDEwLjYzODQgNy4zNDE4OCAxMC41MzQyIDcuNDQ2MDRMOC43MTYzMSA5LjI2Mzk2QzguODY2NjcgOS4zNzc0NSA5LjAwMTk4IDkuNTA4OTIgOS4xMjEzMiA5LjY1NjVDOS4zMDkyIDkuODgyMDIgOS40NTAxMSAxMC4xMzU3IDkuNTQ4MTUgMTAuNDA4QzkuNjUyODMgMTAuNjk4OCA5LjcwMDQ4IDExLjAwMDkgOS43MDA0OCAxMS4zMDZDOS43MDA0OCAxMS40NDM4IDkuNjkwNTMgMTEuNTgwNiA5LjY3MDMgMTEuNzE1N0M5LjcwNDA3IDExLjcxOSA5LjczODE0IDExLjcyMTYgOS43NzI1MSAxMS43MjM0QzEwLjI4MDMgMTEuNzM2NCAxMC43MzYgMTEuNTY3MSAxMS4xMzk3IDExLjIxNTZMMTIuNTI2NCAxMi42MDIzQzEyLjYzMDYgMTIuNzA2NCAxMi43NDEyIDEyLjc1ODUgMTIuODU4NCAxMi43NTg1QzEyLjk4ODYgMTIuNzU4NSAxMy4xMDU4IDEyLjcwNjQgMTMuMjEgMTIuNjAyM0MxMy4zMTQyIDEyLjQ5ODEgMTMuMzY2MiAxMi4zODA5IDEzLjM2NjIgMTIuMjUwN1oiLz4mI3hhOzxwYXRoIGZpbGw9InVybCgjcGFpbnQzX2xpbmVhcl8zODkwXzIxNTM1KSIgZD0iTTQuNTI2NDUgMTIuNzk3N0g3LjM1NDExQzcuNTQwNTUgMTIuNzk3NyA3LjcxNjYzIDEyLjc1OTcgNy44ODIzNSAxMi42ODM3QzguMDQ4MDggMTIuNjA3OCA4LjE4OTYzIDEyLjUwNDIgOC4zMDcwMiAxMi4zNzNDOC40MzEzMSAxMi4yMzQ5IDguNTI3OTkgMTIuMDc2MSA4LjU5NzA0IDExLjg5NjZDOC42NjYwOSAxMS43MTAxIDguNzAwNjEgMTEuNTEzMyA4LjcwMDYxIDExLjMwNjJDOC43MDA2MSAxMS4xMDU5IDguNjY5NTQgMTAuOTE5NSA4LjYwNzQgMTAuNzQ2OEM4LjU0NTI1IDEwLjU3NDIgOC40NTg5MyAxMC40MjIzIDguMzQ4NDUgMTAuMjkxMUM4LjIzNzk3IDEwLjE1MyA4LjEwNjc3IDEwLjA0MjUgNy45NTQ4NiA5Ljk1OTY2QzcuODAyOTUgOS44NzY4IDcuNjQwNjcgOS44Mjg0NiA3LjQ2ODA1IDkuODE0NjVDNy4zMjk5NCA5LjUxMDgzIDcuMTMzMTUgOS4yNjkxNSA2Ljg3NzY2IDkuMDg5NjFDNi42MjIxNyA4LjkxMDA4IDYuMzQ1OTYgOC44MjAzMSA2LjA0OTA0IDguODIwMzFDNS44NTU2OSA4LjgyMDMxIDUuNjY5MjUgOC44NTgyOSA1LjQ4OTcyIDguOTM0MjVDNS4zMTcwOSA5LjAxMDIgNS4xNjE3MyA5LjExMzc4IDUuMDIzNjIgOS4yNDQ5OEM0Ljg4NTUyIDkuMzc2MTggNC43NzE1OSA5LjUzNSA0LjY4MTgyIDkuNzIxNDNDNC41OTIwNSA5LjkwMDk3IDQuNTI5OTEgMTAuMDk0MyA0LjQ5NTM4IDEwLjMwMTVDNC4zNDM0NyAxMC4zMDE1IDQuMTk4NDYgMTAuMzM2IDQuMDYwMzYgMTAuNDA1QzMuOTI5MTYgMTAuNDY3MiAzLjgxNTIyIDEwLjU1NyAzLjcxODU1IDEwLjY3NDNDMy42MjE4OCAxMC43ODQ4IDMuNTQyNDcgMTAuOTE2IDMuNDgwMzIgMTEuMDY3OUMzLjQyNTA4IDExLjIxOTkgMy4zOTc0NiAxMS4zNzg3IDMuMzk3NDYgMTEuNTQ0NEMzLjM5NzQ2IDExLjcxNyAzLjQyNTA4IDExLjg3OTMgMy40ODAzMiAxMi4wMzEyQzMuNTQyNDcgMTIuMTgzMSAzLjYyNTMzIDEyLjMxNzggMy43Mjg5MSAxMi40MzUyQzMuODMyNDkgMTIuNTQ1NiAzLjk1MzMzIDEyLjYzNTQgNC4wOTE0MyAxMi43MDQ1QzQuMjI5NTMgMTIuNzY2NiA0LjM3NDU0IDEyLjc5NzcgNC41MjY0NSAxMi43OTc3WiIvPiYjeGE7PC9nPiYjeGE7PGRlZnM+JiN4YTs8bGluZWFyR3JhZGllbnQgZ3JhZGllbnRVbml0cz0idXNlclNwYWNlT25Vc2UiIHkyPSIxNC43NDUzIiB4Mj0iMTMuNjg1NCIgeTE9IjIuMjY4NDUiIHgxPSIxLjQ0ODQ4IiBpZD0icGFpbnQwX2xpbmVhcl8zODkwXzIxNTM1Ij4mI3hhOzxzdG9wIHN0b3AtY29sb3I9IndoaXRlIi8+JiN4YTs8c3RvcCBzdG9wLWNvbG9yPSIjRUFFQ0VFIiBvZmZzZXQ9IjEiLz4mI3hhOzwvbGluZWFyR3JhZGllbnQ+JiN4YTs8bGluZWFyR3JhZGllbnQgZ3JhZGllbnRVbml0cz0idXNlclNwYWNlT25Vc2UiIHkyPSI3Ljc4MjAyIiB4Mj0iOC4zNzA1NSIgeTE9IjMuNjcxODciIHgxPSI0LjI3NzEiIGlkPSJwYWludDFfbGluZWFyXzM4OTBfMjE1MzUiPiYjeGE7PHN0b3Agc3RvcC1jb2xvcj0iIzAxOTVGRiIvPiYjeGE7PHN0b3Agc3RvcC1jb2xvcj0iIzExNDdFOSIgb2Zmc2V0PSIwLjk5MTAyOCIvPiYjeGE7PC9saW5lYXJHcmFkaWVudD4mI3hhOzxsaW5lYXJHcmFkaWVudCBncmFkaWVudFVuaXRzPSJ1c2VyU3BhY2VPblVzZSIgeTI9IjExLjMyMjQiIHgyPSIxMy4xOTI5IiB5MT0iOC4xMDc2MSIgeDE9IjkuNDEzMzUiIGlkPSJwYWludDJfbGluZWFyXzM4OTBfMjE1MzUiPiYjeGE7PHN0b3Agc3RvcC1jb2xvcj0iIzAxOTVGRiIvPiYjeGE7PHN0b3Agc3RvcC1jb2xvcj0iIzExNDdFOSIgb2Zmc2V0PSIwLjk5MTAyOCIvPiYjeGE7PC9saW5lYXJHcmFkaWVudD4mI3hhOzxsaW5lYXJHcmFkaWVudCBncmFkaWVudFVuaXRzPSJ1c2VyU3BhY2VPblVzZSIgeTI9IjEyLjk3OTQiIHgyPSI2Ljg1MDQ4IiB5MT0iOS40MDU0NyIgeDE9IjQuMTgxNSIgaWQ9InBhaW50M19saW5lYXJfMzg5MF8yMTUzNSI+JiN4YTs8c3RvcCBzdG9wLWNvbG9yPSIjMTM0OEZGIi8+JiN4YTs8c3RvcCBzdG9wLWNvbG9yPSIjMDYyMzhEIiBvZmZzZXQ9IjEiLz4mI3hhOzwvbGluZWFyR3JhZGllbnQ+JiN4YTs8Y2xpcFBhdGggaWQ9ImNsaXAwXzM4OTBfMjE1MzUiPiYjeGE7PHJlY3QgdHJhbnNmb3JtPSJ0cmFuc2xhdGUoMy4zOTc0NiAyLjc5NzYxKSIgZmlsbD0id2hpdGUiIGhlaWdodD0iMTAiIHdpZHRoPSIxMCIvPiYjeGE7PC9jbGlwUGF0aD4mI3hhOzwvZGVmcz4mI3hhOzwvc3ZnPg==;fontStyle=1;fontSize=20;fontColor=#1D2D3E;labelPosition=center;align=center;" parent="urCsp88US3Rvxd7nxDVZ-52" vertex="1">
          <mxGeometry x="28.62999999999977" y="3290.0000000000014" width="70" height="70" as="geometry" />
        </mxCell>
        <mxCell id="0hETNHY3sNTcF9YFYVwX-75" style="edgeStyle=orthogonalEdgeStyle;rounded=0;orthogonalLoop=1;jettySize=auto;html=1;" parent="urCsp88US3Rvxd7nxDVZ-52" source="0hETNHY3sNTcF9YFYVwX-67" edge="1">
          <mxGeometry relative="1" as="geometry">
            <mxPoint x="20" y="2326" as="targetPoint" />
            <Array as="points">
              <mxPoint x="-110" y="2747" />
              <mxPoint x="-110" y="2326" />
            </Array>
          </mxGeometry>
        </mxCell>
        <mxCell id="0hETNHY3sNTcF9YFYVwX-67" value="Events" style="shape=image;verticalLabelPosition=bottom;labelBackgroundColor=none;verticalAlign=top;aspect=fixed;imageAspect=0;image=data:image/svg+xml,PHN2ZyB4bWxucz0iaHR0cDovL3d3dy53My5vcmcvMjAwMC9zdmciIHZpZXdCb3g9IjAgMCAyNTYgMjU2IiBoZWlnaHQ9IjI1NiIgd2lkdGg9IjI1NiIgaWQ9ImV2ZW50LXNvY2tldCI+JiN4YTsgIDxwYXRoIHN0eWxlPSJmaWxsOiAjMDAwOyBzdHJva2Utd2lkdGg6IDBweDsiIGQ9Ik02NCwxMjh2LTMyYzAtMjIuMDYsMTcuOTQtNDAsNDAtNDBzNDAsMTcuOTQsNDAsNDBjMCwuMTkuMDIuMzkuMDMuNTgtMjcuMTIsMy44OC00OC4wMywyNy4yNS00OC4wMyw1NS40MnY4aDExMnYtOGMwLTI4LjE3LTIwLjkxLTUxLjU0LTQ4LjAzLTU1LjQyLjAxLS4xOS4wMy0uMzguMDMtLjU4LDAtMzAuODgtMjUuMTItNTYtNTYtNTZzLTU2LDI1LjEyLTU2LDU2djMyYzAsOC44Mi03LjE4LDE2LTE2LDE2cy0xNi03LjE4LTE2LTE2YzAtLjY5LS4xLTEuMzYtLjI2LTIsLjE3LS42NC4yNi0xLjMxLjI2LTJWOEMxNiwzLjU4LDEyLjQyLDAsOCwwUzAsMy41OCwwLDh2MTE2YzAsLjY5LjEsMS4zNi4yNiwyLS4xNy42NC0uMjYsMS4zMS0uMjYsMiwwLDE3LjY0LDE0LjM2LDMyLDMyLDMyczMyLTE0LjM2LDMyLTMyWk0xOTEuMiwxNDRoLTc4LjM5YzMuNzItMTguMjQsMTkuODgtMzIsMzkuMi0zMnMzNS40OCwxMy43NiwzOS4yLDMyWiIvPiYjeGE7ICA8cGF0aCBzdHlsZT0iZmlsbDogIzAwMDsgc3Ryb2tlLXdpZHRoOiAwcHg7IiBkPSJNMjMyLDE5Mkg3MmMtMTMuMjMsMC0yNCwxMC43Ny0yNCwyNHYxNmMwLDEzLjIzLDEwLjc3LDI0LDI0LDI0aDE2MGMxMy4yMywwLDI0LTEwLjc3LDI0LTI0di0xNmMwLTEzLjIzLTEwLjc3LTI0LTI0LTI0Wk0yNDAsMjMyYzAsNC40MS0zLjU5LDgtOCw4SDcyYy00LjQxLDAtOC0zLjU5LTgtOHYtMTZjMC00LjQxLDMuNTktOCw4LThoMTYwYzQuNDEsMCw4LDMuNTksOCw4djE2WiIvPiYjeGE7PC9zdmc+;fontStyle=1;fontSize=20;" parent="urCsp88US3Rvxd7nxDVZ-52" vertex="1">
          <mxGeometry x="-230" y="2712" width="70" height="70" as="geometry" />
        </mxCell>
        <mxCell id="0hETNHY3sNTcF9YFYVwX-77" style="edgeStyle=orthogonalEdgeStyle;rounded=0;orthogonalLoop=1;jettySize=auto;html=1;" parent="urCsp88US3Rvxd7nxDVZ-52" source="0hETNHY3sNTcF9YFYVwX-65" edge="1">
          <mxGeometry relative="1" as="geometry">
            <mxPoint x="64" y="3130" as="targetPoint" />
          </mxGeometry>
        </mxCell>
        <mxCell id="0hETNHY3sNTcF9YFYVwX-79" style="edgeStyle=orthogonalEdgeStyle;rounded=0;orthogonalLoop=1;jettySize=auto;html=1;" parent="urCsp88US3Rvxd7nxDVZ-52" source="0hETNHY3sNTcF9YFYVwX-78" edge="1">
          <mxGeometry relative="1" as="geometry">
            <mxPoint x="64" y="2810" as="targetPoint" />
          </mxGeometry>
        </mxCell>
        <mxCell id="0hETNHY3sNTcF9YFYVwX-78" value="Connectivity &#xa;Service" style="shape=image;verticalLabelPosition=bottom;labelBackgroundColor=none;verticalAlign=top;aspect=fixed;imageAspect=0;image=data:image/svg+xml,PHN2ZyB4bWxucz0iaHR0cDovL3d3dy53My5vcmcvMjAwMC9zdmciIGZpbGw9Im5vbmUiIHZpZXdCb3g9IjAgMCAxNiAxNiIgaGVpZ2h0PSIxNiIgd2lkdGg9IjE2Ij4mI3hhOzxjaXJjbGUgc3Ryb2tlLXdpZHRoPSIwLjI4NTcwOCIgc3Ryb2tlPSIjRDVEQUREIiBmaWxsPSJ1cmwoI3BhaW50MF9saW5lYXJfMzUxNF80MDIwMikiIHI9IjcuODU2OTYiIGN5PSI3Ljk5OTA4IiBjeD0iNy45OTkzMyIvPiYjeGE7PGcgY2xpcC1wYXRoPSJ1cmwoI2NsaXAwXzM1MTRfNDAyMDIpIj4mI3hhOzxwYXRoIGZpbGw9InVybCgjcGFpbnQxX2xpbmVhcl8zNTE0XzQwMjAyKSIgZD0iTTguNTgyOTIgNC4xMTQ3NEM4LjU4MjkyIDMuODM4NiA4LjgwNjc4IDMuNjE0NzUgOS4wODI5MiAzLjYxNDc1SDEwLjYyNjRDMTEuNTkyOSAzLjYxNDc1IDEyLjM3NjQgNC4zOTgyNSAxMi4zNzY0IDUuMzY0NzRWNi42OTM5NUMxMi4zNzY0IDYuOTcwMSAxMi4xNTI1IDcuMTkzOTUgMTEuODc2NCA3LjE5Mzk1QzExLjYwMDIgNy4xOTM5NSAxMS4zNzY0IDYuOTcwMSAxMS4zNzY0IDYuNjkzOTVWNS4zNjQ3NEMxMS4zNzY0IDQuOTUwNTMgMTEuMDQwNiA0LjYxNDc0IDEwLjYyNjQgNC42MTQ3NEg5LjA4MjkyQzguODA2NzggNC42MTQ3NCA4LjU4MjkyIDQuMzkwODkgOC41ODI5MiA0LjExNDc0Wk00LjEyMTU4IDguNTMzMjRDNC4zOTc3MiA4LjUzMzI0IDQuNjIxNTggOC43NTcxIDQuNjIxNTggOS4wMzMyNFYxMC42MjgxQzQuNjIxNTggMTEuMDQyMyA0Ljk1NzM2IDExLjM3ODEgNS4zNzE1OCAxMS4zNzgxSDcuMDY5MjVDNy4zNDUzOSAxMS4zNzgxIDcuNTY5MjUgMTEuNjAxOSA3LjU2OTI1IDExLjg3ODFDNy41NjkyNSAxMi4xNTQyIDcuMzQ1MzkgMTIuMzc4MSA3LjA2OTI1IDEyLjM3ODFINS4zNzE1OEM0LjQwNTA4IDEyLjM3ODEgMy42MjE1OCAxMS41OTQ2IDMuNjIxNTggMTAuNjI4MVY5LjAzMzI0QzMuNjIxNTggOC43NTcxIDMuODQ1NDQgOC41MzMyNCA0LjEyMTU4IDguNTMzMjRaIiBjbGlwLXJ1bGU9ImV2ZW5vZGQiIGZpbGwtcnVsZT0iZXZlbm9kZCIvPiYjeGE7PHBhdGggZmlsbD0idXJsKCNwYWludDJfbGluZWFyXzM1MTRfNDAyMDIpIiBkPSJNMTIuODQzMiAxMS45MzI4QzEyLjk0NzQgMTIuMDM3IDEyLjk5OTUgMTIuMTQ3NyAxMi45OTk1IDEyLjI2NDlDMTIuOTk5NSAxMi4zOTUxIDEyLjk0NzQgMTIuNTEyMyAxMi44NDMyIDEyLjYxNjRDMTIuNzM5MSAxMi43MjA2IDEyLjYyMTkgMTIuNzcyNyAxMi40OTE3IDEyLjc3MjdDMTIuMzc0NSAxMi43NzI3IDEyLjI2MzggMTIuNzIwNiAxMi4xNTk2IDEyLjYxNjRMMTAuNzcyOSAxMS4yMjk3QzEwLjM2OTMgMTEuNTgxMyA5LjkxMzU2IDExLjc1MDYgOS40MDU3NSAxMS43Mzc1QzguODk3OTQgMTEuNzExNSA4LjQ1NTI0IDExLjUwOTcgOC4wNzc2MyAxMS4xMzIxTDcuNjI4NDIgMTAuNjgyOEM3LjUyNDI1IDEwLjU3ODcgNy40NzIxNyAxMC40NjggNy40NzIxNyAxMC4zNTA4QzcuNDcyMTcgMTAuMjIwNiA3LjUyNDI1IDEwLjEwMzQgNy42Mjg0MiA5Ljk5OTI2TDEwLjE2NzUgNy40NjAyQzEwLjI3MTYgNy4zNTYwNCAxMC4zODg4IDcuMzAzOTYgMTAuNTE5IDcuMzAzOTZDMTAuNjQ5MiA3LjMwMzk2IDEwLjc2NjQgNy4zNTYwNCAxMC44NzA2IDcuNDYwMkwxMS4zMTk4IDcuOTA5NDJDMTEuNjk3NCA4LjI4NzAyIDExLjg5MjcgOC43MjMyMiAxMS45MDU3IDkuMjE4MDFDMTEuOTMxOCA5LjY5OTc4IDExLjc4MiAxMC4xMzYgMTEuNDU2NSAxMC41MjY2TDEyLjg0MzIgMTEuOTMyOFoiIGNsaXAtcnVsZT0iZXZlbm9kZCIgZmlsbC1ydWxlPSJldmVub2RkIi8+JiN4YTs8cGF0aCBmaWxsPSJ1cmwoI3BhaW50M19saW5lYXJfMzUxNF80MDIwMikiIGQ9Ik03LjcxNTE4IDguNzA0MDZDNy42MTEwMSA4LjgwODIzIDcuNDkzODIgOC44NjAzMSA3LjM2MzYxIDguODYwMzFDNy4yNDY0MiA4Ljg2MDMxIDcuMTM1NzUgOC44MDgyMyA3LjAzMTU4IDguNzA0MDZMNi4xMzMxNCA3LjgwNTYzTDUuNzQyNTIgOC4xOTYyNUM1LjYzODM1IDguMzAwNDIgNS41MjExNiA4LjM1MjUgNS4zOTA5NSA4LjM1MjVDNS4yNDc3MyA4LjM1MjUgNS4xMzA1NCA4LjMwMDQyIDUuMDM5MzkgOC4xOTYyNUw0LjU5MDE3IDcuNzY2NTdDNC4yMTI1NyA3LjM4ODk2IDQuMDEwNzUgNi45NTkyOCAzLjk4NDcgNi40Nzc1MUMzLjk1ODY2IDUuOTgyNzIgNC4wOTUzOCA1LjUzMzUgNC4zOTQ4NiA1LjEyOTg2TDMuMTU1NzYgMy44NTgzOUMzLjA1MTYgMy43NTQyMyAyLjk5OTUxIDMuNjM3MDQgMi45OTk1MSAzLjUwNjgzQzIuOTk5NTEgMy4zNzY2MyAzLjA1MTYgMy4yNTk0NCAzLjE1NTc2IDMuMTU1MjdDMy4yNTk5MyAzLjA1MTExIDMuMzcwNjEgMi45OTkwMiAzLjQ4Nzc5IDIuOTk5MDJDMy42MTggMi45OTkwMiAzLjczNTE5IDMuMDUxMTEgMy44MzkzNiAzLjE1NTI3TDUuMDc4NDUgNC40MjY3NEM1LjQ4MjEgNC4xMDEyMiA1LjkzNzgzIDMuOTUxNDggNi40NDU2NCAzLjk3NzUyQzYuOTUzNDYgNC4wMDM1NiA3LjM5NjE2IDQuMjA1MzggNy43NzM3NyA0LjU4Mjk5TDguMjIyOTkgNS4wMzIyQzguMzE0MTMgNS4xMjMzNSA4LjM1OTcxIDUuMjQwNTMgOC4zNTk3MSA1LjM4Mzc2QzguMzU5NzEgNS41MTM5NyA4LjMxNDEzIDUuNjI0NjUgOC4yMjI5OSA1LjcxNTc5TDcuODEyODMgNi4xMjU5NUw4LjcxMTI3IDcuMDA0ODVDOC44MTU0NCA3LjEwOTAyIDguODY3NTIgNy4yMjYyIDguODY3NTIgNy4zNTY0MUM4Ljg2NzUyIDcuNDg2NjIgOC44MTU0NCA3LjYwMzgxIDguNzExMjcgNy43MDc5N0M4LjYwNzEgNy44MTIxNCA4LjQ4OTkyIDcuODY0MjIgOC4zNTk3MSA3Ljg2NDIyQzguMjI5NSA3Ljg2NDIyIDguMTEyMzEgNy44MTIxNCA4LjAwODE0IDcuNzA3OTdMNy4xMjkyNCA2LjgwOTU0TDYuODE2NzQgNy4xMjIwNEw3LjI2NTk2IDcuNTYxNDlMNy43MTUxOCA4LjAwMDk0QzcuODE5MzQgOC4xMDUxMSA3Ljg3MTQzIDguMjIyMjkgNy44NzE0MyA4LjM1MjVDNy44NzE0MyA4LjQ4MjcxIDcuODE5MzQgOC41OTk5IDcuNzE1MTggOC43MDQwNloiLz4mI3hhOzwvZz4mI3hhOzxkZWZzPiYjeGE7PGxpbmVhckdyYWRpZW50IGdyYWRpZW50VW5pdHM9InVzZXJTcGFjZU9uVXNlIiB5Mj0iMTQuNzQ3IiB4Mj0iMTMuNjg3NCIgeTE9IjIuMjcwMTYiIHgxPSIxLjQ1MDQzIiBpZD0icGFpbnQwX2xpbmVhcl8zNTE0XzQwMjAyIj4mI3hhOzxzdG9wIHN0b3AtY29sb3I9IndoaXRlIi8+JiN4YTs8c3RvcCBzdG9wLWNvbG9yPSIjRUFFQ0VFIiBvZmZzZXQ9IjEiLz4mI3hhOzwvbGluZWFyR3JhZGllbnQ+JiN4YTs8bGluZWFyR3JhZGllbnQgZ3JhZGllbnRVbml0cz0idXNlclNwYWNlT25Vc2UiIHkyPSIxMS4wNTc0IiB4Mj0iMTEuMDciIHkxPSI0LjkyNTI1IiB4MT0iNC45MzM5NiIgaWQ9InBhaW50MV9saW5lYXJfMzUxNF80MDIwMiI+JiN4YTs8c3RvcCBzdG9wLWNvbG9yPSIjMDE5NUZGIi8+JiN4YTs8c3RvcCBzdG9wLWNvbG9yPSIjMTE0N0U5IiBvZmZzZXQ9IjAuOTkxMDI4Ii8+JiN4YTs8L2xpbmVhckdyYWRpZW50PiYjeGE7PGxpbmVhckdyYWRpZW50IGdyYWRpZW50VW5pdHM9InVzZXJTcGFjZU9uVXNlIiB5Mj0iMTEuOTkxOCIgeDI9IjEyLjEyODQiIHkxPSI4LjEyNDQ0IiB4MT0iOC4yOTkzOCIgaWQ9InBhaW50Ml9saW5lYXJfMzUxNF80MDIwMiI+JiN4YTs8c3RvcCBzdG9wLWNvbG9yPSIjMDBCQkZGIi8+JiN4YTs8c3RvcCBzdG9wLWNvbG9yPSIjMDA4QkZGIiBvZmZzZXQ9IjEiLz4mI3hhOzwvbGluZWFyR3JhZGllbnQ+JiN4YTs8bGluZWFyR3JhZGllbnQgZ3JhZGllbnRVbml0cz0idXNlclNwYWNlT25Vc2UiIHkyPSI3Ljk4NTcxIiB4Mj0iNy45NjkwMiIgeTE9IjMuODYxMzQiIHgxPSIzLjg2NzA2IiBpZD0icGFpbnQzX2xpbmVhcl8zNTE0XzQwMjAyIj4mI3hhOzxzdG9wIHN0b3AtY29sb3I9IiMxMzQ4RkYiLz4mI3hhOzxzdG9wIHN0b3AtY29sb3I9IiMwNjIzOEQiIG9mZnNldD0iMSIvPiYjeGE7PC9saW5lYXJHcmFkaWVudD4mI3hhOzxjbGlwUGF0aCBpZD0iY2xpcDBfMzUxNF80MDIwMiI+JiN4YTs8cmVjdCB0cmFuc2Zvcm09InRyYW5zbGF0ZSgyLjk5OTI3IDIuOTk5MDIpIiBmaWxsPSJ3aGl0ZSIgaGVpZ2h0PSI5Ljk5OTk2IiB3aWR0aD0iOS45OTk5NiIvPiYjeGE7PC9jbGlwUGF0aD4mI3hhOzwvZGVmcz4mI3hhOzwvc3ZnPg==;fontStyle=1;fontSize=20;" parent="urCsp88US3Rvxd7nxDVZ-52" vertex="1">
          <mxGeometry x="28.629999999999995" y="3000" width="70" height="70" as="geometry" />
        </mxCell>
        <mxCell id="0hETNHY3sNTcF9YFYVwX-80" value="" style="rounded=1;whiteSpace=wrap;html=1;fontSize=20;fontStyle=1;fillColor=#FFDBC4;strokeColor=#38112D;strokeWidth=3;align=left;fillStyle=solid;" parent="urCsp88US3Rvxd7nxDVZ-52" vertex="1">
          <mxGeometry x="-396.78" y="3448" width="826.78" height="420" as="geometry" />
        </mxCell>
        <mxCell id="0hETNHY3sNTcF9YFYVwX-85" value="" style="endArrow=none;html=1;rounded=0;exitX=0.003;exitY=0.227;exitDx=0;exitDy=0;exitPerimeter=0;strokeColor=#38112D;strokeWidth=3;" parent="urCsp88US3Rvxd7nxDVZ-52" edge="1">
          <mxGeometry width="50" height="50" relative="1" as="geometry">
            <mxPoint x="-396.7849700000003" y="3657.74775" as="sourcePoint" />
            <mxPoint x="430" y="3653" as="targetPoint" />
            <Array as="points" />
          </mxGeometry>
        </mxCell>
        <mxCell id="0hETNHY3sNTcF9YFYVwX-88" value="Neptune DXP. - SAP Edition as SAP Connector" style="text;strokeColor=none;fillColor=none;html=1;fontSize=20;fontStyle=1;verticalAlign=middle;align=center;" parent="urCsp88US3Rvxd7nxDVZ-52" vertex="1">
          <mxGeometry x="-34.27999999999997" y="3873" width="100" height="40" as="geometry" />
        </mxCell>
        <mxCell id="0hETNHY3sNTcF9YFYVwX-89" value="&lt;font style=&quot;font-size: 20px;&quot;&gt;SAP Services / tools&lt;/font&gt;" style="text;strokeColor=none;fillColor=none;html=1;fontSize=24;fontStyle=1;verticalAlign=middle;align=right;" parent="urCsp88US3Rvxd7nxDVZ-52" vertex="1">
          <mxGeometry x="342.22" y="3670.38" width="67" height="22.62" as="geometry" />
        </mxCell>
        <mxCell id="0hETNHY3sNTcF9YFYVwX-90" value="&lt;font style=&quot;font-size: 20px;&quot;&gt;Connectivity&lt;/font&gt;" style="text;strokeColor=none;fillColor=none;html=1;fontSize=24;fontStyle=1;verticalAlign=middle;align=right;" parent="urCsp88US3Rvxd7nxDVZ-52" vertex="1">
          <mxGeometry x="306.5" y="3463" width="79.22" height="22.62" as="geometry" />
        </mxCell>
        <mxCell id="0hETNHY3sNTcF9YFYVwX-91" value="" style="fontSize=12;html=1;endArrow=none;endFill=0;startArrow=none;rounded=0;startFill=0;edgeStyle=orthogonalEdgeStyle;strokeWidth=2;dashed=1;exitX=0;exitY=0.5;exitDx=0;exitDy=0;" parent="urCsp88US3Rvxd7nxDVZ-52" source="0hETNHY3sNTcF9YFYVwX-65" edge="1">
          <mxGeometry width="60" height="60" relative="1" as="geometry">
            <mxPoint x="65" y="3400" as="sourcePoint" />
            <mxPoint x="-69.49000000000001" y="3477" as="targetPoint" />
          </mxGeometry>
        </mxCell>
        <mxCell id="0hETNHY3sNTcF9YFYVwX-93" value="&lt;span style=&quot;&quot;&gt;SAP On-Premise Solutions&lt;/span&gt;" style="text;strokeColor=none;fillColor=#D4E1F5;html=1;fontSize=32;fontStyle=1;verticalAlign=middle;align=center;fontFamily=Helvetica;labelBackgroundColor=none;" parent="urCsp88US3Rvxd7nxDVZ-52" vertex="1">
          <mxGeometry x="590" y="3980.000000000001" width="100" height="40" as="geometry" />
        </mxCell>
        <mxCell id="0hETNHY3sNTcF9YFYVwX-95" value="" style="shape=image;verticalLabelPosition=bottom;labelBackgroundColor=default;verticalAlign=top;aspect=fixed;imageAspect=0;image=data:image/svg+xml,PHN2ZyB4bWxucz0iaHR0cDovL3d3dy53My5vcmcvMjAwMC9zdmciIGZpbGw9Im5vbmUiIHZpZXdCb3g9IjAgMCAxNiAxNyIgaGVpZ2h0PSIxNyIgd2lkdGg9IjE2Ij4mI3hhOzxwYXRoIGZpbGw9InVybCgjcGFpbnQwX2xpbmVhcl83MjRfMTIpIiBkPSJNMTQuMzMzNSA1LjgzNDk0QzE0LjU4MzUgNi4wODQ5NCAxNC43ODE0IDYuMzc2NjEgMTQuOTI3MiA2LjcwOTk0QzE1LjA5MzkgNy4wMjI0NCAxNS4xNzcyIDcuMzY2MTkgMTUuMTc3MiA3Ljc0MTE5VjE0LjQyODdDMTUuMTc3MiAxNS4xMzcgMTQuOTM3NiAxNS43MjA0IDE0LjQ1ODUgMTYuMTc4N0MxMy45NzkzIDE2LjY1NzkgMTMuMzg1NSAxNi44OTc1IDEyLjY3NzIgMTYuODk3NUgyLjc3MDk0QzIuMDgzNDQgMTYuODk3NSAxLjUwMDExIDE2LjY1NzkgMS4wMjA5NCAxNi4xNzg3QzAuNTQxNzY4IDE1LjcyMDQgMC4zMDIxODUgMTUuMTM3IDAuMzAyMTg1IDE0LjQyODdWNy43NDExOUMwLjMwMjE4NSA2Ljk0OTUyIDAuNTgzNDM1IDYuMzE0MTEgMS4xNDU5NCA1LjgzNDk0TDYuMDgzNDQgMS41NTM2OUM2LjU4MzQ0IDEuMTM3MDIgNy4xNDU5NCAwLjkyODY4OCA3Ljc3MDk0IDAuOTI4Njg4QzguMzk1OTQgMC45Mjg2ODggOC45Mzc2MSAxLjEzNzAyIDkuMzk1OTQgMS41NTM2OUwxNC4zMzM1IDUuODM0OTRaTTguOTg5NjkgMTAuMzAzN0g2LjQ4OTY5VjE1LjI3MjVIOC45ODk2OVYxMC4zMDM3Wk0xMy40MjcyIDcuNzQxMTlDMTMuNDI3MiA3LjQ3MDM2IDEzLjM0MzkgNy4yNTE2MSAxMy4xNzcyIDcuMDg0OTRMOC4yMzk2OSAyLjgwMzY5QzcuODg1NTIgMi41MzI4NiA3LjUyMDk0IDIuNTMyODYgNy4xNDU5NCAyLjgwMzY5TDIuMjA4NDQgNy4wODQ5NEMyLjA0MTc3IDcuMjUxNjEgMS45NTg0NCA3LjQ3MDM2IDEuOTU4NDQgNy43NDExOVYxNC40Mjg3QzEuOTU4NDQgMTQuNjc4NyAyLjAzMTM2IDE0Ljg4NyAyLjE3NzE5IDE1LjA1MzdDMi4zNDM4NiAxNS4xOTk1IDIuNTQxNzcgMTUuMjcyNSAyLjc3MDk0IDE1LjI3MjVINC44MzM0NFYxMC4zMDM3QzQuODMzNDQgOS44NDUzNiA0Ljk4OTY5IDkuNDU5OTQgNS4zMDIxOSA5LjE0NzQ0QzUuNjM1NTIgOC44MTQxMSA2LjAzMTM2IDguNjQ3NDQgNi40ODk2OSA4LjY0NzQ0SDguOTg5NjlDOS40NDgwMiA4LjY0NzQ0IDkuODMzNDkgOC44MTQxMSAxMC4xNDU5IDkuMTQ3NDRDMTAuNDU4NSA5LjQ1OTk0IDEwLjYxNDcgOS44NDUzNiAxMC42MTQ3IDEwLjMwMzdWMTUuMjcyNUgxMi42NzcyQzEyLjkyNzIgMTUuMjcyNSAxMy4xMjUxIDE1LjE5OTUgMTMuMjcwOSAxNS4wNTM3QzEzLjQzNzYgMTQuODg3IDEzLjUyMDkgMTQuNjc4NyAxMy41MjA5IDE0LjQyODdMMTMuNDI3MiA3Ljc0MTE5WiIvPiYjeGE7PGRlZnM+JiN4YTs8bGluZWFyR3JhZGllbnQgZ3JhZGllbnRVbml0cz0idXNlclNwYWNlT25Vc2UiIHkyPSI5Ljg1NDkiIHgyPSIxNS44MTkzIiB5MT0iMi40MzA4NCIgeDE9IjIuMjI0NjQiIGlkPSJwYWludDBfbGluZWFyXzcyNF8xMiI+JiN4YTs8c3RvcCBzdG9wLWNvbG9yPSIjMjM5NUZGIi8+JiN4YTs8c3RvcCBzdG9wLWNvbG9yPSIjMDA1N0QyIiBvZmZzZXQ9IjEiLz4mI3hhOzwvbGluZWFyR3JhZGllbnQ+JiN4YTs8L2RlZnM+JiN4YTs8L3N2Zz4=;strokeWidth=1.5;" parent="urCsp88US3Rvxd7nxDVZ-52" vertex="1">
          <mxGeometry x="774.1" y="3840" width="65.9" height="70" as="geometry" />
        </mxCell>
        <mxCell id="0hETNHY3sNTcF9YFYVwX-96" value="&lt;b&gt;SAP S/4 HANA&lt;/b&gt;&lt;div&gt;&lt;b&gt;SAP ECC&lt;/b&gt;&lt;/div&gt;" style="text;html=1;align=right;verticalAlign=middle;resizable=0;points=[];autosize=1;strokeColor=none;fillColor=none;fontSize=20;" parent="urCsp88US3Rvxd7nxDVZ-52" vertex="1">
          <mxGeometry x="680.0000000000005" y="3920" width="160" height="60" as="geometry" />
        </mxCell>
        <mxCell id="0hETNHY3sNTcF9YFYVwX-97" value="" style="fontSize=12;html=1;endArrow=none;endFill=0;startArrow=none;rounded=0;startFill=0;edgeStyle=orthogonalEdgeStyle;strokeWidth=2;dashed=1;entryX=0.5;entryY=0;entryDx=0;entryDy=0;exitX=1;exitY=0.5;exitDx=0;exitDy=0;" parent="urCsp88US3Rvxd7nxDVZ-52" source="0hETNHY3sNTcF9YFYVwX-65" edge="1">
          <mxGeometry width="60" height="60" relative="1" as="geometry">
            <mxPoint x="75" y="3410" as="sourcePoint" />
            <mxPoint x="185" y="3493" as="targetPoint" />
          </mxGeometry>
        </mxCell>
        <mxCell id="0hETNHY3sNTcF9YFYVwX-98" style="edgeStyle=orthogonalEdgeStyle;rounded=0;orthogonalLoop=1;jettySize=auto;html=1;exitX=0.5;exitY=1;exitDx=0;exitDy=0;" parent="urCsp88US3Rvxd7nxDVZ-52" source="DWezz2kGn4aSGZSSvi70-5" edge="1">
          <mxGeometry relative="1" as="geometry">
            <mxPoint x="-398" y="3658" as="targetPoint" />
            <Array as="points">
              <mxPoint x="-496" y="3658" />
            </Array>
          </mxGeometry>
        </mxCell>
        <mxCell id="iBRr24rVuucf6CacbPqA-1" value="" style="group" parent="urCsp88US3Rvxd7nxDVZ-52" vertex="1" connectable="0">
          <mxGeometry x="-30" y="2060" width="200" height="100" as="geometry" />
        </mxCell>
        <mxCell id="iBRr24rVuucf6CacbPqA-2" value="" style="shape=image;verticalLabelPosition=bottom;labelBackgroundColor=default;verticalAlign=top;aspect=fixed;imageAspect=0;image=data:image/svg+xml,PHN2ZyB4bWxucz0iaHR0cDovL3d3dy53My5vcmcvMjAwMC9zdmciIHZpZXdCb3g9IjAgMCAyNTYgMjU2IiBoZWlnaHQ9IjI1NiIgd2lkdGg9IjI1NiIgaWQ9InVpNSI+JiN4YTsgIDxwYXRoIHN0eWxlPSJmaWxsOiAjMDAwOyBzdHJva2Utd2lkdGg6IDBweDsiIGQ9Ik0yNDYuNzcsMTE0LjZjLTMuMTYtMjAuNzMtOS45MS0zNi42MS0yMS45Mi01MS41MS00LjI3LTUuMjgtMTQuNDktMTQuOTQtMjAuODEtMTkuNjItMTIuMjItOS4wNy0yMy4zMy0xNS4xNS00Ni41Ny0yNS41LTE1LjM0LTYuNzctMjUuMDQtMTEuNTQtMjguNzYtMTQuMDEtMS41OC0xLjA2LTIuOTktMS45Ni0zLjEyLTEuOTYtLjE3LDAtLjE3LjYsMCwxLjMyLjQ3LDIuNDMsMy4zOCw2LjUxLDcuNzMsMTAuODYsNSw1LjAyLDkuNjYsOC41MSwxOS44NywxNC45OCwxNC4zNiw5LjAyLDIwLjk4LDE0LjEzLDI5LjkxLDIzLjA3LDExLjQ5LDExLjQ1LDE4LjU0LDIyLjY5LDIxLjQ5LDM0LjQuNzMsMi45OC45LDQuOTQuOSwxMC4wOSwwLDUuNy0uMTMsNi43Ny0xLjE1LDEwLjEzLTMuNDIsMTEuMTEtMTAuOSwxOS41NC0yMC42NCwyMy4yOS0zLjI5LDEuMjgtOS43NCwxLjQ1LTEyLjM1LjMtMi4zMS0xLjAyLTQuOTEtMi44NS00LjkxLTMuNDUsMC0uMy45OC0xLjQ1LDIuMTQtMi42LDIuNjktMi42NCw1Ljk4LTcuMzYsNy40My0xMC42LDEuMzItMi45OCwyLjI2LTcuNDEsMi4wNS05LjQ1bC0uMTctMS40NS0xLjU4Ljk0Yy0zLjYzLDIuMjYtOC4wMyw0LjY0LTguOTMsNC45LTEuODQuNDMtMS45Mi0uMzQtLjczLTUuMDIuOS0zLjQ1LDEuMi01LjgzLDEuMzctMTAuODEuMjYtNi4zNC0uMDktMTIuOTgtLjY0LTEyLjk4LS4xNywwLTEuMDcsMS4xMS0yLjAxLDIuMzgtMy4xNiw0LjQzLTEwLjk0LDEwLjc3LTE2Ljg0LDEzLjc1LTEuNTQuODEtMS44NC44NS0xLjYyLjMsMS40NS0zLjc1LDEuNzUtNi4zLDEuNzUtMTMuNjctLjA0LTUuNjYtLjIxLTguMTctLjY4LTkuNTQtLjczLTIuMTMtMS42Mi0yLjgxLTEuNjItMS4yMy0uMDQsMy4xMS00LjEsOS42Mi05LjE0LDE0LjYtNi40MSw2LjM5LTE0LjU3LDExLjcxLTI3LjY1LDE4LjA1LTkuMzYsNC41MS0xNC40NCw3Ljc5LTE5LjM2LDEyLjM5LTcuMDksNi42OC05Ljc4LDEzLjAzLTguNDIsMTkuNjIuODEsMy44MywxLjE1LDQuMDQsMy42NywyLjM0LDUuMzQtMy41OCwxMi42OS0zLjc1LDE5LjMxLS40MywyLjg2LDEuNDUsNS40Myw0LjE3LDYuODgsNy4zMiwxLjU4LDMuNDksMS44NCw4Ljk4LjUxLDEyLjg2LTIuMDEsNS45Mi02Ljc1LDExLjQxLTEyLjA1LDE0LjAxLTQuNzksMi4zNC05LjEsMy4xNS0xNS4zLDIuODktNy45OS0uMzQtMTQuNC0yLjU1LTIxLjE5LTcuMzYtMy4xMi0yLjE3LTguODQtOC4xMy0xMS44NC0xMi4zLTQuMDYtNS42Ni03LjktMTQuNjktOS41Ny0yMi40OC0xLjA3LTQuOS0xLjA3LTE4LjE4LDAtMjMuMjksMy41OS0xNy4yNCwxMS4yNC0yOC45OSwyOS4xNC00NC44MywxMC4zLTkuMTUsMTQuNTMtMTMuNDksMTcuNi0xOC4wNSwyLjM1LTMuNTMsNS4yNi0xMC4wNSw0LjctMTAuNi0uMTMtLjEzLTIuMDEsMS4xOS00LjIzLDIuOTQtNS4xNyw0LjEzLTguOTMsNi42NC0xOS43OCwxMy40OS0xOC4zNywxMS41OC0yNC4wMSwxNS41OC0zMi41NiwyMy4wNy04LjgsNy43NS0xNi40OSwxNy4yLTIwLjY0LDI1LjUtNS42LDExLjA3LTguMDMsMjEuNTgtOC40MiwzNi4zNS0uNDMsMTYuOTksMi4yNiwzMC40NCw5LjA2LDQ1LjQ2LDQuMSw5LjAyLDEwLjksMTkuNzUsMTcuMzEsMjcuMzMsNi4zNyw3LjU4LDE2LjI4LDE2LjYsMjQuMTQsMjIuMDEsMjUuNjgsMTcuNjcsNTcuODUsMjQuNzMsODguNjYsMTkuNSwxMy41OS0yLjM0LDIzLjg0LTUuNzUsMzYuMTUtMTIuMDksMTAuNjgtNS40OSwxOS4xNC0xMS41OCwyNy45LTIwLjA1LDIwLjk0LTIwLjIyLDMyLjgyLTQ0LjI3LDM2LjE5LTczLjAxLjk0LTguMzQuNjQtMjMuOTctLjY4LTMyLjU3Wk0xMTAuNDIsMTIzLjA3Yy0uNjguODktMS4yNCwxLjExLTIuNjUsMS4xMS0xLjYyLDAtNy42NS0xLjYyLTguMi0yLjIxLS4xMy0uMTMsMS4yNC0xLjAyLDMuMDgtMS45Niw0LjE0LTIuMTcsNi40NS0yLjM4LDcuNzgtLjY4LjUxLjY0LjksMS40NS45LDEuODdzLS4zOCwxLjIzLS45LDEuODdaIi8+JiN4YTs8L3N2Zz4=;" parent="iBRr24rVuucf6CacbPqA-1" vertex="1">
          <mxGeometry x="110" y="15" width="70" height="70" as="geometry" />
        </mxCell>
        <mxCell id="iBRr24rVuucf6CacbPqA-3" value="" style="shape=image;verticalLabelPosition=bottom;labelBackgroundColor=default;verticalAlign=top;aspect=fixed;imageAspect=0;image=data:image/svg+xml,PHN2ZyB4bWxucz0iaHR0cDovL3d3dy53My5vcmcvMjAwMC9zdmciIHZpZXdCb3g9IjAgMCAyNTYgMjU2IiBoZWlnaHQ9IjI1NiIgd2lkdGg9IjI1NiIgaWQ9Im5lcHR1bmUtY29ubmVjdCI+JiN4YTsgIDxwYXRoIHN0eWxlPSJmaWxsOiAjMDAwOyBzdHJva2Utd2lkdGg6IDBweDsiIGQ9Ik0yMjQuMzksNzMuMDNoLTYzLjQ3bC0zMC43MSw1My4xOXMwLDAsMCwwYy0uMTguMjktMS4wMiwxLjg1LTEuMDIsMS44NSwwLDAtLjg2LTEuNTktMS4wMy0xLjg3aDBsLTE2LjMtMjguMjFoMGMtMTAuMzctMTcuOTMtMjkuNzctMzAtNTEuOTctMzBDMjYuNzQsNjgtLjEzLDk0Ljg2LS4xMywxMjhzMjYuODYsNjAsNjAsNjBjMTEuMSwwLDIxLjUtMy4wMiwzMC40Mi04LjI4LDguOTItNS4yNiwxNi4zNi0xMi43NiwyMS41NS0yMS43MmwuMjEtLjM2LDE2LjA5LTI3Ljg1czAsMCwwLDBjLjEzLS4yNSwxLjAzLTEuNywxLjAzLTEuNywwLDAsLjkxLDEuNDYsMS4wNCwxLjcxbDMwLjcsNTMuMTcsMzEuNzMtNTQuOTMsNjMuNDgtLjAzLTMxLjc0LTU0Ljk3WiIvPiYjeGE7PC9zdmc+;" parent="iBRr24rVuucf6CacbPqA-1" vertex="1">
          <mxGeometry x="20" y="15" width="70" height="70" as="geometry" />
        </mxCell>
        <mxCell id="iBRr24rVuucf6CacbPqA-4" value="&lt;b&gt;&lt;font style=&quot;font-size: 20px;&quot;&gt;Neptune App&lt;/font&gt;&lt;/b&gt;" style="rounded=0;whiteSpace=wrap;html=1;fillColor=none;strokeWidth=2;labelPosition=center;verticalLabelPosition=bottom;align=center;verticalAlign=top;" parent="iBRr24rVuucf6CacbPqA-1" vertex="1">
          <mxGeometry width="200" height="100" as="geometry" />
        </mxCell>
        <mxCell id="IH_4kgBtjWAierBhuPbd-1" value="SAP Event Mesh" style="shape=image;verticalLabelPosition=bottom;labelBackgroundColor=none;verticalAlign=top;aspect=fixed;imageAspect=0;image=data:image/svg+xml,PHN2ZyB4bWxucz0iaHR0cDovL3d3dy53My5vcmcvMjAwMC9zdmciIGZpbGw9Im5vbmUiIHZpZXdCb3g9IjAgMCAxNiAxNiIgaGVpZ2h0PSIxNiIgd2lkdGg9IjE2Ij4mI3hhOzxjaXJjbGUgc3Ryb2tlLXdpZHRoPSIwLjI4NTcwOCIgc3Ryb2tlPSIjRDVEQUREIiBmaWxsPSJ1cmwoI3BhaW50MF9saW5lYXJfMzUxNF80MDIyNikiIHI9IjcuODU2OTYiIGN5PSI3Ljk5ODg0IiBjeD0iNy45OTY0Ii8+JiN4YTs8ZyBjbGlwLXBhdGg9InVybCgjY2xpcDBfMzUxNF80MDIyNikiPiYjeGE7PHBhdGggZmlsbD0idXJsKCNwYWludDFfbGluZWFyXzM1MTRfNDAyMjYpIiBkPSJNNy41MTY5MyAzLjg1ODRDNi4xOTEwOCAzLjg1ODQgNS4yNDkwNiA0LjkzOTAzIDUuMDkyMTEgNi4wNjcyMUM0LjY2NTYyIDYuMDkyNjMgNC4yODkwMyA2LjI1MzEyIDMuOTk2NTQgNi41MjI2OEMzLjYwMDg1IDYuODg3MzUgMy4zOTY0OCA3LjQxNjY3IDMuMzk2NDggNy45NzQ4N0MzLjM5NjQ4IDguNDkzNjIgMy41NTM2NCA4Ljk4Mzk2IDMuOTA2NDggOS4zNDY0OUM0LjI2MTY5IDkuNzExNDcgNC43NjU5OSA5Ljg5NjM1IDUuMzU5NzkgOS44OTYzNUg2LjQ4OTQ3VjkuMjE3MTNDNi40ODk0NyA4LjU2MDgxIDcuMDE4NCA4LjAxOTU1IDcuNjgyMTcgOC4wMTk1NUM4LjIwMDM3IDguMDE5NTUgOC42NTU0MSA4LjM1NDYgOC44MTUzMSA4Ljg0MzRMOC44NDA1MiA4LjkyMDQ2TDguODYzNzkgOC44NDc3NUM5LjAyMDg2IDguMzU3MDMgOS40NzYwNSA4LjAxOTU1IDkuOTk1MjcgOC4wMTk1NUMxMC42MzIzIDguMDE5NTUgMTEuMTQ0NiA4LjUxOTc2IDExLjE4MTYgOS4xNDA4M0MxMS41MTg4IDguNzU2MDUgMTEuNzI5NiA4LjIzNzg2IDExLjcyOTYgNy42MTYxNkMxMS43Mjk2IDYuMzgxMTQgMTAuODQ4MSA1LjQzMjA0IDkuNzg2ODIgNS4zMzE2NkM5LjM2MTQgNC40NTA4MyA4LjU3MTcxIDMuODU4NCA3LjUxNjkzIDMuODU4NFoiLz4mI3hhOzxwYXRoIGZpbGw9InVybCgjcGFpbnQyX2xpbmVhcl8zNTE0XzQwMjI2KSIgZD0iTTExLjgyNzEgMTIuNDY1NUMxMS42ODA2IDEyLjYxNDUgMTEuNTM1OSAxMi44NDU1IDExLjY4MjQgMTIuOTk0NUMxMS44Mjg5IDEzLjE0MzUgMTEuOTk1MSAxMy4xNTM5IDEyLjE0MTYgMTMuMDA0OUwxMy4yNjY0IDExLjg2MDlDMTMuNDEyOSAxMS43MTE5IDEzLjQxMjkgMTEuNDcwNSAxMy4yNjY0IDExLjMyMTVMMTIuMTQxNiAxMC4xNzc0QzExLjk5NTEgMTAuMDI4NCAxMS44MjMgOS45NjYzNyAxMS42NzY1IDEwLjExNTRDMTEuNDkzMiAxMC4yNTg0IDExLjc0ODMgMTAuNTY3OCAxMS44OTQ4IDEwLjcxNjhMMTIuMzE0NyAxMS4yMTgxTDEwLjAwMjQgMTEuMjIwNUwxMC4wMDIyIDExLjUxNzJDMTAuMDAyMSAxMS43MjE5IDEwLjE2NjYgMTEuODg3NyAxMC4zNjk1IDExLjg4NzVMMTIuMzU2MSAxMS44ODU0TDExLjgyNzEgMTIuNDY1NVoiLz4mI3hhOzxwYXRoIGZpbGw9InVybCgjcGFpbnQzX2xpbmVhcl8zNTE0XzQwMjI2KSIgZD0iTTcuMTU2OTggOS4yNDg2MUM3LjE1Njk4IDguOTMxMyA3LjQxMjAxIDguNjc0MDcgNy43MjY2MSA4LjY3NDA3QzcuOTcyNDQgOC42NzQwNyA4LjE5MDUzIDguODMzMTMgOC4yNjc1NiA5LjA2ODU5TDguNzM0NzUgMTAuNDk2N0M4Ljc2MDc0IDEwLjU3NTQgOC43OTEzMiAxMC42ODU2IDguODI2NDggMTAuODI3NUM4Ljg2MTY0IDEwLjk2OTQgOC44ODQ1OCAxMS4wNjM0IDguODk1MjggMTEuMTA5N0M4LjkwNzUxIDExLjA2MzQgOC45MzE5NyAxMC45NzA5IDguOTY4NjYgMTAuODMyMUM5LjAwNjg5IDEwLjY5MTggOS4wMzg5OSAxMC41ODM5IDkuMDY0OTggMTAuNTA4M0w5LjUyNTYyIDkuMDY5MTJDOS42MDA5OCA4LjgzMzY1IDkuODE4MzEgOC42NzQwNyAxMC4wNjM2IDguNjc0MDdDMTAuMzc1OSA4LjY3NDA3IDEwLjYyOSA4LjkyOTM3IDEwLjYyOSA5LjI0NDNWMTEuMjE5OEwxMC4wMDI0IDExLjIyMDVMMTAuMDAyOSA5Ljk1NzhDMTAuMDAyOSA5Ljc5MTI2IDEwLjAwNjcgOS42MzM5OCAxMC4wMTQ0IDkuNDg1OTRDMTAuMDIzNiA5LjMzNzkxIDEwLjAxOTggOS4yNzkwNSAxMC4wMjgyIDkuMjUyMzNDMTAuMDI2NiA5LjI1Mzg3IDEwLjAxMTMgOS4zMDc4NCA5Ljk4MjI5IDkuNDE0MjRDOS45NjcgOS40NjUxMyA5LjkzNDg5IDkuNTc0NjEgOS44ODU5NyA5Ljc0MjY5QzkuODM4NTggOS45MTA3NyA5LjgwMTEyIDEwLjAzNDkgOS43NzM2IDEwLjExNTFMOS4yNTU4IDExLjY3QzkuMjAzNDUgMTEuODI3MiA5LjA1NzQgMTEuOTMzMSA4Ljg5Mjk5IDExLjkzMzFDOC43Mjg1NyAxMS45MzMxIDguNTgyNTIgMTEuODI3MiA4LjUzMDE3IDExLjY3TDguMDEyMzcgMTAuMTE1MUM3Ljk4MDI3IDEwLjAyMSA3LjkzNDQgOS44NzM3NiA3Ljg3NDc4IDkuNjczM0M3LjgxNjY4IDkuNDcxMyA3Ljc3NjE2IDkuMzMwOTcgNy43NTMyMyA5LjI1MjMzTDcuNzU3ODIgOS4zMTk0MUM3Ljc1OTM1IDkuMzQ0MDggNy43NjM5MyA5LjQzMTIgNy43NzE1OCA5LjU4MDc4QzcuNzc5MjIgOS43Mjg4MSA3Ljc4MzA0IDkuODU0NDkgNy43ODMwNCA5Ljk1NzhWMTEuNjE3NEM3Ljc4MzA0IDExLjc5MTggNy42NDI5IDExLjkzMzEgNy40NzAwMSAxMS45MzMxQzcuMjk3MTMgMTEuOTMzMSA3LjE1Njk4IDExLjc5MTggNy4xNTY5OCAxMS42MTc0VjkuMjQ4NjFaIi8+JiN4YTs8L2c+JiN4YTs8ZGVmcz4mI3hhOzxsaW5lYXJHcmFkaWVudCBncmFkaWVudFVuaXRzPSJ1c2VyU3BhY2VPblVzZSIgeTI9IjE0Ljc0NjgiIHgyPSIxMy42ODQ0IiB5MT0iMi4yNjk5MiIgeDE9IjEuNDQ3NSIgaWQ9InBhaW50MF9saW5lYXJfMzUxNF80MDIyNiI+JiN4YTs8c3RvcCBzdG9wLWNvbG9yPSJ3aGl0ZSIvPiYjeGE7PHN0b3Agc3RvcC1jb2xvcj0iI0VBRUNFRSIgb2Zmc2V0PSIxIi8+JiN4YTs8L2xpbmVhckdyYWRpZW50PiYjeGE7PGxpbmVhckdyYWRpZW50IGdyYWRpZW50VW5pdHM9InVzZXJTcGFjZU9uVXNlIiB5Mj0iMTAuMzA3MyIgeDI9IjguNjYyNjYiIHkxPSI0Ljc2MTM0IiB4MT0iNC42NDU2NiIgaWQ9InBhaW50MV9saW5lYXJfMzUxNF80MDIyNiI+JiN4YTs8c3RvcCBzdG9wLWNvbG9yPSIjMDE5NUZGIi8+JiN4YTs8c3RvcCBzdG9wLWNvbG9yPSIjMTE0N0U5IiBvZmZzZXQ9IjAuOTkxMDI4Ii8+JiN4YTs8L2xpbmVhckdyYWRpZW50PiYjeGE7PGxpbmVhckdyYWRpZW50IGdyYWRpZW50VW5pdHM9InVzZXJTcGFjZU9uVXNlIiB5Mj0iMTMuNDU0NyIgeDI9IjExLjAwOSIgeTE9IjkuMzI2OTMiIHgxPSI4LjA3NjQ2IiBpZD0icGFpbnQyX2xpbmVhcl8zNTE0XzQwMjI2Ij4mI3hhOzxzdG9wIHN0b3AtY29sb3I9IiMxMzQ4RkYiLz4mI3hhOzxzdG9wIHN0b3AtY29sb3I9IiMwNjIzOEQiIG9mZnNldD0iMSIvPiYjeGE7PC9saW5lYXJHcmFkaWVudD4mI3hhOzxsaW5lYXJHcmFkaWVudCBncmFkaWVudFVuaXRzPSJ1c2VyU3BhY2VPblVzZSIgeTI9IjEzLjQ1NDciIHgyPSIxMS4wMDkiIHkxPSI5LjMyNjkzIiB4MT0iOC4wNzY0NiIgaWQ9InBhaW50M19saW5lYXJfMzUxNF80MDIyNiI+JiN4YTs8c3RvcCBzdG9wLWNvbG9yPSIjMTM0OEZGIi8+JiN4YTs8c3RvcCBzdG9wLWNvbG9yPSIjMDYyMzhEIiBvZmZzZXQ9IjEiLz4mI3hhOzwvbGluZWFyR3JhZGllbnQ+JiN4YTs8Y2xpcFBhdGggaWQ9ImNsaXAwXzM1MTRfNDAyMjYiPiYjeGE7PHJlY3QgdHJhbnNmb3JtPSJ0cmFuc2xhdGUoMy4zOTY0OCAzLjc5OTA3KSIgZmlsbD0id2hpdGUiIGhlaWdodD0iMTAiIHdpZHRoPSI5Ljk5OTc3Ii8+JiN4YTs8L2NsaXBQYXRoPiYjeGE7PC9kZWZzPiYjeGE7PC9zdmc+;fontStyle=1;fontSize=20;" parent="urCsp88US3Rvxd7nxDVZ-52" vertex="1">
          <mxGeometry x="408.99" y="2996.93" width="70" height="70" as="geometry" />
        </mxCell>
        <mxCell id="g3vK2QwAtY2XpGdJESe2-1" value="Offline" style="shape=image;verticalLabelPosition=bottom;labelBackgroundColor=default;verticalAlign=top;aspect=fixed;imageAspect=0;image=data:image/svg+xml,PHN2ZyB4bWxucz0iaHR0cDovL3d3dy53My5vcmcvMjAwMC9zdmciIHZpZXdCb3g9IjAgMCAyNTYgMjU2IiBkYXRhLW5hbWU9IkxheWVyIDEiIGlkPSJMYXllcl8xIj48ZGVmcz48c3R5bGU+LmNscy0xe2ZpbGw6IzAwMDt9LmNscy0ye2ZpbGw6IzAwMDt9PC9zdHlsZT48L2RlZnM+PHBhdGggZD0iTTc3LjU4LDY3LjY5QTIxLjI3LDIxLjI3LDAsMSwxLDU2LjMxLDg5LDIxLjE1LDIxLjE1LDAsMCwxLDc3LjU4LDY3LjY5Wk05MS45Miw4OUExNC4zNywxNC4zNywwLDEsMCw3Ny41LDEwMy4zOSwxNC4zMSwxNC4zMSwwLDAsMCw5MS45Miw4OVoiIGNsYXNzPSJjbHMtMSIvPjxwYXRoIGQ9Ik0xMzEsMTA4LjdjLTEzLjQ3LS4yNy0yNS4xNSw0LjQzLTM1LjQ0LDEzLTIuNDcsMi4wNi00LjczLDQuMzEtNyw2LjU0YTQuMjMsNC4yMywwLDAsMS0yLjE3LDEuMzUsMy40OSwzLjQ5LDAsMCwxLTMuNzMtMS42OSwzLjc3LDMuNzcsMCwwLDEsMS00LjM5YzEuMjctMS4yNSwyLjU3LTIuNDcsMy44Ni0zLjY5YTY0Ljc5LDY0Ljc5LDAsMCwxLDI1LjYyLTE1LjQyLDYxLjM2LDYxLjM2LDAsMCwxLDIyLjQ4LTIuNDgsNTkuODcsNTkuODcsMCwwLDEsMjkuMjUsOS45MSw4Ny45NCw4Ny45NCwwLDAsMSwxNC4wOCwxMiwzLjM4LDMuMzgsMCwxLDEtNC43Nyw0Ljc3LDEwNi45LDEwNi45LDAsMCwwLTkuNTktOC41OSw1Mi4zMSw1Mi4zMSwwLDAsMC0yNS40MS0xMC44N0E1Ni4wNyw1Ni4wNywwLDAsMCwxMzEsMTA4LjdaIiBjbGFzcz0iY2xzLTIiLz48cGF0aCBkPSJNMTMxLjI4LDc5LjM2QTgyLjQ5LDgyLjQ5LDAsMCwwLDExMS4xNiw4MmMtLjc1LjItMS41MS4zOC0yLjI3LjUyYTMuMTksMy4xOSwwLDAsMS0zLjktMi4zNSwzLjI2LDMuMjYsMCwwLDEsMi00QTQxLjgzLDQxLjgzLDAsMCwxLDExNSw3NGE4My4xOSw4My4xOSwwLDAsMSwxNS4yNC0xLjU1YzE4LjIsMCwzNS4zMiw0LDUwLjc2LDE0YTEwNi40NywxMDYuNDcsMCwwLDEsMTcuNTQsMTQuNjQsMy40NCwzLjQ0LDAsMCwxLC4xLDUuMTFjLTEuNDgsMS40LTMuNDYsMS4xNS01LjA2LS41LTEyLjY5LTEzLjE4LTI3LjctMjIuMDgtNDYtMjUuMDZBMTA4LDEwOCwwLDAsMCwxMzEuMjgsNzkuMzZaIiBjbGFzcz0iY2xzLTIiLz48cGF0aCBkPSJNMTMwLjUsMTMxLjA1YTM5LjA2LDM5LjA2LDAsMCwxLDIxLjg5LDYuNzEsNTMuNTEsNTMuNTEsMCwwLDEsOC4zNSw2Ljg4YzEuNDIsMS40MiwxLjc0LDMuMjEuODcsNC41Ny0xLjI2LDEuOTQtMy41OCwyLjE5LTUuNDQuNS0xLjM1LTEuMjMtMi42MS0yLjU2LTQuMDYtMy42OGEzOC44NCwzOC44NCwwLDAsMC0xMS02LjM0Yy05LjE0LTMuMTUtMTcuODEtMi0yNiwyLjkzYTM0LjcsMzQuNywwLDAsMC04LjMsNi40Nyw2LjIyLDYuMjIsMCwwLDEtMS42LDEuMjgsMy40NywzLjQ3LDAsMCwxLTQuMjUtLjcxLDMuMjIsMy4yMiwwLDAsMSwwLTQuMjgsMzYuMjMsMzYuMjMsMCwwLDEsNi4xNS01LjY1LDQwLjc3LDQwLjc3LDAsMCwxLDE4LjYtOC4yNEEyNy41MiwyNy41MiwwLDAsMSwxMzAuNSwxMzEuMDVaIiBjbGFzcz0iY2xzLTIiLz48cGF0aCBkPSJNMTQ0LjE5LDE3NS4xMWMuMzgsNi43Ni01LjU2LDEzLjE4LTEzLjA3LDEzLjJhMTMuMiwxMy4yLDAsMCwxLC4wOS0yNi4zOUMxMzkuMzMsMTYyLjA2LDE0NC43MSwxNjkuMjUsMTQ0LjE5LDE3NS4xMVptLTEyLjkzLTYuMjhhNi4zMyw2LjMzLDAsMSwwLDYuMTYsNi4zNkE2LjI3LDYuMjcsMCwwLDAsMTMxLjI2LDE2OC44M1oiIGNsYXNzPSJjbHMtMiIvPjxwYXRoIGQ9Ik03Mi42Miw4MC42YTMuNjEsMy42MSwwLDAsMSwyLjU1LDEuMTVjLjgxLjcyLDEuNDIsMi4xLDIuNCwyLjA2czEuNi0xLjM2LDIuNC0yLjFhMy40MywzLjQzLDAsMCwxLDMuMjUtMUEzLjM0LDMuMzQsMCwwLDEsODUuMTUsODZhMTIuMjUsMTIuMjUsMCwwLDEtMS4zLDEuNGMtMS43MiwxLjc5LTEuNywxLjI4LDAsMy4xLjM4LjQuNzkuNzgsMS4xMiwxLjJhMy4zMywzLjMzLDAsMCwxLS4yNSw0LjU4LDMuMjYsMy4yNiwwLDAsMS00LjU3LDAsMTIuMTgsMTIuMTgsMCwwLDEtMS42NS0xLjY0Yy0uNzQtMS0xLjMyLS44Mi0yLDBhMTQuMiwxNC4yLDAsMCwxLTEuNjUsMS42NCwzLjI2LDMuMjYsMCwwLDEtNC41OC0uMTFBMy4yOSwzLjI5LDAsMCwxLDcwLDkxLjc2YTE5LjUyLDE5LjUyLDAsMCwxLDItMi4wOGMuNjMtLjU4LjU3LTEsMC0xLjU2YTIyLDIyLDAsMCwxLTEuOTItMS45NCwzLjQxLDMuNDEsMCwwLDEsMi41NS01LjU4WiIgY2xhc3M9ImNscy0xIi8+PC9zdmc+;fontStyle=1;clipPath=inset(17.67% 18% 21% 20.67%);fontSize=20;" vertex="1" parent="urCsp88US3Rvxd7nxDVZ-52">
          <mxGeometry x="340.72" y="1190.5" width="70" height="70" as="geometry" />
        </mxCell>
        <mxCell id="g3vK2QwAtY2XpGdJESe2-4" value="API Designer" style="shape=image;verticalLabelPosition=bottom;labelBackgroundColor=none;verticalAlign=top;aspect=fixed;imageAspect=0;image=data:image/svg+xml,PHN2ZyB4bWxucz0iaHR0cDovL3d3dy53My5vcmcvMjAwMC9zdmciIHZpZXdCb3g9IjAgMCAyNTYgMjU2IiBoZWlnaHQ9IjI1NiIgd2lkdGg9IjI1NiIgaWQ9ImFwaS1kZXNpZ25lciI+JiN4YTsgIDxwYXRoIHN0eWxlPSJmaWxsOiAjMDAwOyBzdHJva2Utd2lkdGg6IDBweDsiIGQ9Ik0xNzAuNjIsMTE5LjE4Yy0xNC4wNS0yMC43MS0yNS44OS00My4wNy0zNS4xOS02Ni40NmwtNy40My0xOC43MS03LjQzLDE4LjcxYy05LjMsMjMuNC0yMS4xMyw0NS43Ni0zNS4xOSw2Ni40Ni04LjMxLDEyLjI1LTE3LjUyLDI0LjA4LTI3LjM2LDM1LjE4bC00LjQsNC45Niw0LjA1LDUuMjRjNi4xNiw3Ljk4LDExLjE4LDE2Ljc1LDE0LjksMjYuMDgsMy4wNSw3LjY0LDUuMjMsMTUuNjYsNi40OCwyMy44MmwuMTUsMS4wMS40Ljk0YzEuODksNC40Miw2LjIyLDcuMjcsMTEuMDMsNy4yN2g3NC43MmMyLjM1LDAsNC42NC0uNjgsNi42MS0xLjk4LDEuOTYtMS4yOSwzLjQ5LTMuMTIsNC40Mi01LjI5bC40LS45NC4xNS0xLjAxYzEuMjUtOC4xNiwzLjQzLTE2LjE3LDYuNDgtMjMuODIsMy43Mi05LjMyLDguNzQtMTguMSwxNC45LTI2LjA4bDQuMDUtNS4yNC00LjQtNC45NmMtOS44NS0xMS4xLTE5LjA1LTIyLjkzLTI3LjM2LTM1LjE4Wk0xNjguNTcsMTg0LjcxYy0yLjk2LDcuNDEtNS4yLDE1LjExLTYuNjksMjIuOTdoLTY3Ljc2Yy0xLjQ5LTcuODUtMy43My0xNS41Ni02LjY5LTIyLjk3LTMuNDYtOC42Ni03Ljg5LTE2LjkxLTEzLjItMjQuNTksOC43MS0xMC4xOCwxNi45LTIwLjkxLDI0LjM5LTMxLjk1LDcuOC0xMS41LDE0LjkzLTIzLjQ5LDIxLjM4LTM1Ljg2djc1LjM3YzAsNC40MiwzLjU4LDgsOCw4czgtMy41OCw4LTh2LTc1LjM3YzYuNDUsMTIuMzcsMTMuNTgsMjQuMzcsMjEuMzgsMzUuODYsNy40OSwxMS4wNCwxNS42OCwyMS43NiwyNC4zOSwzMS45NS01LjMxLDcuNjgtOS43NCwxNS45My0xMy4yLDI0LjU5WiIvPiYjeGE7ICA8cGF0aCBzdHlsZT0iZmlsbDogIzAwMDsgc3Ryb2tlLXdpZHRoOiAwcHg7IiBkPSJNMTY4LDIzOS42OGgtODBjLTQuNDIsMC04LDMuNTgtOCw4czMuNTgsOCw4LDhoODBjNC40MiwwLDgtMy41OCw4LThzLTMuNTgtOC04LThaIi8+JiN4YTsgIDxwYXRoIHN0eWxlPSJmaWxsOiAjMDAwOyBzdHJva2Utd2lkdGg6IDBweDsiIGQ9Ik04MC4zMSwyNy42MmwxMC4wNCwxMC4wNGMxLjU2LDEuNTYsMy42MSwyLjM0LDUuNjYsMi4zNHM0LjA5LS43OCw1LjY2LTIuMzRjMy4xMi0zLjEyLDMuMTItOC4xOSwwLTExLjMxTDc3LjY2LDIuMzRjLTMuMTItMy4xMi04LjE5LTMuMTItMTEuMzEsMGwtMjQsMjRjLTMuMTIsMy4xMi0zLjEyLDguMTksMCwxMS4zMSwxLjU2LDEuNTYsMy42MSwyLjM0LDUuNjYsMi4zNHM0LjA5LS43OCw1LjY2LTIuMzRsMTAuNjYtMTAuNjZjLS4yMywxNC41OS0zLjE5LDM1LjY2LTE1LjI4LDU3LjA3LTEzLjM3LDIzLjY4LTMxLjg0LDM3LjUzLTQ0Ljk4LDQ0Ljk3LTMuODQsMi4xOC01LjE5LDcuMDYtMy4wMiwxMC45LDEuNDcsMi42LDQuMTgsNC4wNiw2Ljk3LDQuMDYsMS4zNCwwLDIuNjktLjMzLDMuOTQtMS4wNCwxNC45LTguNDQsMzUuODUtMjQuMTUsNTEuMDItNTEuMDMsMTMuNi0yNC4wOSwxNy4wMy00Ny43OCwxNy4zNC02NC4zMVoiLz4mI3hhOyAgPHBhdGggc3R5bGU9ImZpbGw6ICMwMDA7IHN0cm9rZS13aWR0aDogMHB4OyIgZD0iTTI1MS45NCwxMjkuMDRjLTEzLjE0LTcuNDUtMzEuNjEtMjEuMjktNDQuOTgtNDQuOTctMTIuMDktMjEuNDEtMTUuMDYtNDIuNDgtMTUuMjgtNTcuMDdsMTAuNjYsMTAuNjZjMS41NiwxLjU2LDMuNjEsMi4zNCw1LjY2LDIuMzRzNC4wOS0uNzgsNS42Ni0yLjM0YzMuMTItMy4xMiwzLjEyLTguMTksMC0xMS4zMWwtMjQtMjRjLTMuMTItMy4xMi04LjE5LTMuMTItMTEuMzEsMGwtMjQsMjRjLTMuMTIsMy4xMi0zLjEyLDguMTksMCwxMS4zMSwxLjU2LDEuNTYsMy42MSwyLjM0LDUuNjYsMi4zNHM0LjA5LS43OCw1LjY2LTIuMzRsMTAuMDQtMTAuMDRjLjMxLDE2LjUzLDMuNzQsNDAuMjMsMTcuMzQsNjQuMzEsMTUuMTgsMjYuODgsMzYuMTIsNDIuNTgsNTEuMDIsNTEuMDMsMS4yNS43MSwyLjYsMS4wNCwzLjk0LDEuMDQsMi43OSwwLDUuNS0xLjQ2LDYuOTctNC4wNiwyLjE4LTMuODQuODMtOC43My0zLjAyLTEwLjlaIi8+JiN4YTs8L3N2Zz4=;fontStyle=1;fontSize=20;" vertex="1" parent="urCsp88US3Rvxd7nxDVZ-52">
          <mxGeometry x="-104.28000000000011" y="3493" width="70" height="70" as="geometry" />
        </mxCell>
        <mxCell id="g3vK2QwAtY2XpGdJESe2-6" value="API Factory" style="shape=image;verticalLabelPosition=bottom;labelBackgroundColor=none;verticalAlign=top;aspect=fixed;imageAspect=0;image=data:image/svg+xml,PHN2ZyB4bWxucz0iaHR0cDovL3d3dy53My5vcmcvMjAwMC9zdmciIHZpZXdCb3g9IjAgMCAyNTYgMjU2IiBoZWlnaHQ9IjI1NiIgd2lkdGg9IjI1NiIgaWQ9ImFwaS1mYWN0b3J5Ij4mI3hhOyAgPHBhdGggc3R5bGU9ImZpbGw6ICMwMDA7IHN0cm9rZS13aWR0aDogMHB4OyIgZD0iTTI1MC40NCw1MC4xYy0zLjM4LTEuNC03LjIzLS42My05LjgxLDEuOTVsLTQ4LjY0LDQ4LjY0di00Mi4yN2MwLTMuNjUtMi4xOC02LjkyLTUuNTYtOC4zMS0zLjM4LTEuNC03LjIyLS42My05LjgxLDEuOTVsLTQ4LjY0LDQ4LjY0di00Mi4yN2MwLTMuNjUtMi4xOC02LjkyLTUuNTYtOC4zMS0zLjM4LTEuNC03LjIyLS42My05LjgxLDEuOTVsLTQ4LjY0LDQ4LjY0VjI0YzAtMTMuMjMtMTAuNzctMjQtMjQtMjRoLTE2QzEwLjc3LDAsMCwxMC43NywwLDI0djIwNS43MWMwLDE0LjUsMTAuNzcsMjYuMjksMjQsMjYuMjloMjA4YzEzLjIzLDAsMjQtMTEuNzksMjQtMjYuMjlWNTguNDFjMC0zLjY1LTIuMTgtNi45Mi01LjU2LTguMzFaTTI0MCwyMjkuNzFjMCw1LjU4LTMuNjYsMTAuMjktOCwxMC4yOUgyNGMtNC4zNCwwLTgtNC43MS04LTEwLjI5VjI0YzAtNC40MSwzLjU5LTgsOC04aDE2YzQuNDEsMCw4LDMuNTksOCw4djkzLjU5YzAsMy42NSwyLjE4LDYuOTIsNS41Niw4LjMxLDMuMzgsMS40LDcuMjMuNjMsOS44MS0xLjk1bDQ4LjY0LTQ4LjY0djQyLjI3YzAsMy42NSwyLjE4LDYuOTIsNS41Niw4LjMxLDMuMzgsMS40LDcuMjIuNjMsOS44MS0xLjk1bDQ4LjY0LTQ4LjY0djQyLjI3YzAsMy42NSwyLjE4LDYuOTIsNS41Niw4LjMxLDMuMzgsMS40LDcuMjIuNjMsOS44MS0xLjk1bDQ4LjY0LTQ4LjY0djE1NC40WiIvPiYjeGE7ICA8cGF0aCBzdHlsZT0iZmlsbDogIzAwMDsgc3Ryb2tlLXdpZHRoOiAwcHg7IiBkPSJNNjQsMTYwYy04LjgyLDAtMTYsNy4xOC0xNiwxNnYxNmMwLDguODIsNy4xOCwxNiwxNiwxNnMxNi03LjE4LDE2LTE2di0xNmMwLTguODItNy4xOC0xNi0xNi0xNloiLz4mI3hhOyAgPHBhdGggc3R5bGU9ImZpbGw6ICMwMDA7IHN0cm9rZS13aWR0aDogMHB4OyIgZD0iTTE3NiwxNzZ2MTZjMCw4LjgyLDcuMTgsMTYsMTYsMTZzMTYtNy4xOCwxNi0xNnYtMTZjMC04LjgyLTcuMTgtMTYtMTYtMTZzLTE2LDcuMTgtMTYsMTZaIi8+JiN4YTsgIDxwYXRoIHN0eWxlPSJmaWxsOiAjMDAwOyBzdHJva2Utd2lkdGg6IDBweDsiIGQ9Ik0xMjgsMTYwYy04LjgyLDAtMTYsNy4xOC0xNiwxNnYxNmMwLDguODIsNy4xOCwxNiwxNiwxNnMxNi03LjE4LDE2LTE2di0xNmMwLTguODItNy4xOC0xNi0xNi0xNloiLz4mI3hhOzwvc3ZnPg==;fontStyle=1;fontSize=20;" vertex="1" parent="urCsp88US3Rvxd7nxDVZ-52">
          <mxGeometry x="150" y="3493" width="70" height="70" as="geometry" />
        </mxCell>
        <mxCell id="g3vK2QwAtY2XpGdJESe2-7" value="HANA DB" style="shape=image;verticalLabelPosition=bottom;labelBackgroundColor=none;verticalAlign=top;aspect=fixed;imageAspect=0;image=data:image/svg+xml,PHN2ZyB4bWxucz0iaHR0cDovL3d3dy53My5vcmcvMjAwMC9zdmciIHZpZXdCb3g9IjAgMCAyNTYgMjU2IiBoZWlnaHQ9IjI1NiIgd2lkdGg9IjI1NiIgaWQ9ImRhdGEtc291cmNlIj4mI3hhOyAgPHBhdGggc3R5bGU9ImZpbGw6ICMwMDA7IHN0cm9rZS13aWR0aDogMHB4OyIgZD0iTTIxNC45MSw5LjY0QzE5MS42LDMuNDIsMTYwLjczLDAsMTI4LDBzLTYzLjYsMy40Mi04Ni45MSw5LjY0QzEzLjgyLDE2LjkxLDAsMjcuMTMsMCw0MHYxNzZjMCwxMi44NywxMy44MiwyMy4wOSw0MS4wOSwzMC4zNiwyMy4zMiw2LjIyLDU0LjE5LDkuNjQsODYuOTEsOS42NHM2My42LTMuNDIsODYuOTEtOS42NGMyNy4yNi03LjI3LDQxLjA5LTE3LjQ4LDQxLjA5LTMwLjM2VjQwYzAtMTIuODctMTMuODItMjMuMDktNDEuMDktMzAuMzZaTTI0MCwxNTJjMCwxLjUtNC45Niw4LjQzLTI5LjIxLDE0LjktMjIuMDEsNS44Ny01MS40MSw5LjEtODIuNzksOS4xcy02MC43OC0zLjIzLTgyLjc5LTkuMWMtMjQuMjUtNi40Ny0yOS4yMS0xMy40LTI5LjIxLTE0Ljl2LTI3LjExYzYuNDQsMy41NiwxNC44MSw2LjcyLDI1LjA5LDkuNDcsMjMuMzIsNi4yMiw1NC4xOSw5LjY0LDg2LjkxLDkuNjRzNjMuNi0zLjQyLDg2LjkxLTkuNjRjMTAuMjgtMi43NCwxOC42NS01LjksMjUuMDktOS40N3YyNy4xMVpNMjQwLDEwNGMwLDEuNS00Ljk2LDguNDMtMjkuMjEsMTQuOS0yMi4wMSw1Ljg3LTUxLjQxLDkuMS04Mi43OSw5LjFzLTYwLjc4LTMuMjMtODIuNzktOS4xYy0yNC4yNS02LjQ3LTI5LjIxLTEzLjQtMjkuMjEtMTQuOXYtNDMuMTFjNi40NCwzLjU2LDE0LjgxLDYuNzIsMjUuMDksOS40NywyMy4zMiw2LjIyLDU0LjE5LDkuNjQsODYuOTEsOS42NHM2My42LTMuNDIsODYuOTEtOS42NGMxMC4yOC0yLjc0LDE4LjY1LTUuOSwyNS4wOS05LjQ3djQzLjExWk00NS4yMSwyNS4xYzIyLjAxLTUuODcsNTEuNDEtOS4xLDgyLjc5LTkuMXM2MC43OCwzLjIzLDgyLjc5LDkuMWMyNC4yNSw2LjQ3LDI5LjIxLDEzLjQsMjkuMjEsMTQuOXMtNC45Niw4LjQzLTI5LjIxLDE0LjljLTIyLjAxLDUuODctNTEuNDEsOS4xLTgyLjc5LDkuMXMtNjAuNzgtMy4yMy04Mi43OS05LjFjLTI0LjI1LTYuNDctMjkuMjEtMTMuNC0yOS4yMS0xNC45czQuOTYtOC40MywyOS4yMS0xNC45Wk0yMTAuNzksMjMwLjljLTIyLjAxLDUuODctNTEuNDEsOS4xLTgyLjc5LDkuMXMtNjAuNzgtMy4yMy04Mi43OS05LjFjLTI0LjI1LTYuNDctMjkuMjEtMTMuNC0yOS4yMS0xNC45di00My4xMWM2LjQ0LDMuNTYsMTQuODEsNi43MiwyNS4wOSw5LjQ3LDIzLjMyLDYuMjIsNTQuMTksOS42NCw4Ni45MSw5LjY0czYzLjYtMy40Miw4Ni45MS05LjY0YzEwLjI4LTIuNzQsMTguNjUtNS45LDI1LjA5LTkuNDd2NDMuMTFjMCwxLjUtNC45Niw4LjQzLTI5LjIxLDE0LjlaIi8+JiN4YTs8L3N2Zz4=;fontStyle=1;fontSize=20;" vertex="1" parent="urCsp88US3Rvxd7nxDVZ-52">
          <mxGeometry x="9.999999999999886" y="3710" width="70" height="70" as="geometry" />
        </mxCell>
        <mxCell id="1" value="Neptune DXP Capabilities" style="" parent="0" />
      </root>
    </mxGraphModel>
  </diagram>
</mxfile>
